<?xml version="1.0" encoding="UTF-8"?>
<!DOCTYPE svg PUBLIC "-//W3C//DTD SVG 1.1//EN" "http://www.w3.org/Graphics/SVG/1.1/DTD/svg11.dtd">
<svg version="1.1" xmlns="http://www.w3.org/2000/svg" xmlns:xlink="http://www.w3.org/1999/xlink" x="0" y="0" width="30.773" height="36.399" viewBox="0, 0, 30.773, 36.399">
  <defs>
    <clipPath id="Clip_1">
      <path d="M-0.99,-1.25 L31.783,-1.25 L31.783,37.659 L-0.99,37.659 z M11.139,2.79 L10.655,2.75 C10.061,2.881 10.282,2.756 9.944,3.016 C9.816,3.052 9.884,3.017 9.763,3.155 L9.704,3.2 L9.668,3.263 L9.504,3.449 C9.336,3.898 9.372,3.709 9.334,4.001 C9.181,3.844 9.272,3.915 9.054,3.8 C8.589,3.773 8.85,3.767 8.274,3.854 C7.967,3.88 8.112,3.846 7.836,3.951 L7.683,4.164 C7.496,4.317 7.541,4.28 7.404,4.499 C7.33,4.792 7.332,4.687 7.331,4.803 C7.3,4.935 7.306,4.861 7.331,5.025 C7.33,5.184 7.328,5.055 7.387,5.407 C6.627,5.483 7.06,5.447 6.085,5.499 C4.987,5.499 4.152,5.719 3.585,6.154 C3.219,6.451 2.935,6.92 2.735,7.55 C2.633,7.985 2.569,9.884 2.535,13.252 C2.502,16.32 2.502,18.267 2.535,19.102 L2.535,20.552 C2.569,21.051 2.717,21.5 2.984,21.9 C3.253,22.335 4.152,23.087 5.684,24.151 C7.018,25.119 7.984,25.753 8.585,26.051 C10.284,26.984 11.554,27.452 12.384,27.452 C14.977,27.154 13.527,27.301 16.736,27.044 L16.705,30.45 L16.705,29.2 L13.503,29.499 C12.106,29.566 11.354,29.753 11.256,30.05 C11.154,30.616 11.486,30.865 12.253,30.802 L11.803,30.851 C11.574,30.851 11.423,30.983 11.354,31.251 C11.32,31.515 11.436,31.798 11.705,32.101 C11.905,32.335 12.189,32.432 12.555,32.399 L13.101,32.301 C12.749,32.443 12.871,32.334 12.697,32.578 C12.598,32.693 12.603,32.639 12.603,32.709 C12.516,32.832 12.557,32.745 12.604,32.999 C12.673,33.2 12.824,33.365 13.053,33.502 C13.254,33.634 13.454,33.682 13.654,33.649 C14.604,33.336 15.595,33.18 16.583,33.043 L16.905,32.999 C17.804,32.901 18.439,32.765 18.805,32.599 C19.235,32.432 19.518,32.15 19.655,31.749 C19.786,31.382 19.718,30.983 19.454,30.548 C19.323,30.347 19.171,30.181 19.005,30.05 L18.932,30.091 L19.005,29.552 L19.005,26.915 C21.321,26.645 20.228,26.786 22.287,26.5 C24.415,26.202 25.684,26.016 26.085,25.954 C26.783,25.851 27.252,25.552 27.486,25.05 C27.853,24.386 28.053,23.034 28.081,21.002 C28.219,17.77 28.283,15.401 28.283,13.902 C28.248,11.236 27.868,9.65 27.135,9.151 C26.265,8.516 24.733,7.619 22.535,6.451 C20.002,5.05 18.385,4.332 17.687,4.297 L17.288,4.296 C13.831,4.568 15.479,4.396 12.342,4.792 C12.342,4.791 12.343,4.79 12.343,4.789 C12.38,4.66 12.416,4.53 12.453,4.4 C12.555,3.869 12.535,3.531 12.404,3.4 C11.763,2.931 12.165,3.171 11.139,2.79 z"/>
    </clipPath>
    <filter id="Shadow_2">
      <feGaussianBlur in="SourceAlpha" stdDeviation="1.25"/>
      <feOffset dx="0" dy="0.5" result="offsetblur"/>
      <feFlood flood-color="#000000"/>
      <feComposite in2="offsetblur" operator="in"/>
    </filter>
    <linearGradient id="Gradient_1" gradientUnits="userSpaceOnUse" x1="16368.688" y1="-16347.7" x2="16379.688" y2="-16347.7" gradientTransform="matrix(1, -0, 0, 1, -16357.5, 16352.16)">
      <stop offset="0" stop-color="#D39825"/>
      <stop offset="0.176" stop-color="#CF9524"/>
      <stop offset="0.365" stop-color="#C48D22"/>
      <stop offset="0.561" stop-color="#B07F1F"/>
      <stop offset="0.761" stop-color="#956B1A"/>
      <stop offset="0.961" stop-color="#725214"/>
      <stop offset="1" stop-color="#6B4D12"/>
    </linearGradient>
    <linearGradient id="Gradient_2" gradientUnits="userSpaceOnUse" x1="16370.688" y1="-16327.25" x2="16372.688" y2="-16327.25" gradientTransform="matrix(1, -0, 0, 1, -16357.5, 16352.16)">
      <stop offset="0" stop-color="#D39825"/>
      <stop offset="0.176" stop-color="#CF9524"/>
      <stop offset="0.365" stop-color="#C48D22"/>
      <stop offset="0.561" stop-color="#B07F1F"/>
      <stop offset="0.761" stop-color="#956B1A"/>
      <stop offset="0.961" stop-color="#725214"/>
      <stop offset="1" stop-color="#6B4D12"/>
    </linearGradient>
    <linearGradient id="Gradient_3" gradientUnits="userSpaceOnUse" x1="16364.688" y1="-16324.25" x2="16374.688" y2="-16324.25" gradientTransform="matrix(1, -0, 0, 1, -16357.5, 16352.16)">
      <stop offset="0" stop-color="#D39825"/>
      <stop offset="0.176" stop-color="#CF9524"/>
      <stop offset="0.365" stop-color="#C48D22"/>
      <stop offset="0.561" stop-color="#B07F1F"/>
      <stop offset="0.761" stop-color="#956B1A"/>
      <stop offset="0.961" stop-color="#725214"/>
      <stop offset="1" stop-color="#6B4D12"/>
    </linearGradient>
    <linearGradient id="Gradient_4" gradientUnits="userSpaceOnUse" x1="16374.688" y1="-16324.25" x2="16377.688" y2="-16324.25" gradientTransform="matrix(1, -0, 0, 1, -16357.5, 16352.16)">
      <stop offset="0" stop-color="#D39825"/>
      <stop offset="0.176" stop-color="#CF9524"/>
      <stop offset="0.365" stop-color="#C48D22"/>
      <stop offset="0.561" stop-color="#B07F1F"/>
      <stop offset="0.761" stop-color="#956B1A"/>
      <stop offset="0.961" stop-color="#725214"/>
      <stop offset="1" stop-color="#6B4D12"/>
    </linearGradient>
    <linearGradient id="Gradient_5" gradientUnits="userSpaceOnUse" x1="16368.688" y1="-16321.25" x2="16379.688" y2="-16321.25" gradientTransform="matrix(1, -0, 0, 1, -16357.5, 16352.16)">
      <stop offset="0" stop-color="#D39825"/>
      <stop offset="0.176" stop-color="#CF9524"/>
      <stop offset="0.365" stop-color="#C48D22"/>
      <stop offset="0.561" stop-color="#B07F1F"/>
      <stop offset="0.761" stop-color="#956B1A"/>
      <stop offset="0.961" stop-color="#725214"/>
      <stop offset="1" stop-color="#6B4D12"/>
    </linearGradient>
    <linearGradient id="Gradient_6" gradientUnits="userSpaceOnUse" x1="-2114.319" y1="-13473.84" x2="-2095.119" y2="-13473.84" gradientTransform="matrix(-0.307, 0.952, -0.952, -0.307, -13455, -2113.715)">
      <stop offset="0" stop-color="#F4D935"/>
      <stop offset="1" stop-color="#D1B928"/>
    </linearGradient>
    <linearGradient id="Gradient_7" gradientUnits="userSpaceOnUse" x1="-2378.928" y1="-12908.379" x2="-2361.928" y2="-12908.379" gradientTransform="matrix(-0.357, 0.934, -0.934, -0.357, -12896.25, -2381.59)">
      <stop offset="0" stop-color="#BEA823"/>
      <stop offset="0.373" stop-color="#BAA422"/>
      <stop offset="0.772" stop-color="#AE9A20"/>
      <stop offset="1" stop-color="#A3901F"/>
    </linearGradient>
    <radialGradient id="Gradient_8" gradientUnits="userSpaceOnUse" cx="-26.639" cy="-15.868" r="3.25" gradientTransform="matrix(-1, 0, 0, 1.854, -5.985, 50.016)">
      <stop offset="0" stop-color="#000000"/>
      <stop offset="0.867" stop-color="#000000"/>
      <stop offset="1" stop-color="#000000"/>
    </radialGradient>
    <clipPath id="Clip_3">
      <path d="M20.704,20.099 C20.236,20.133 19.138,20.465 17.404,21.1 C17.473,22.668 17.824,23.985 18.454,25.05 C19.089,26.119 19.82,26.651 20.655,26.651 C21.554,26.651 22.32,26.07 22.955,24.904 C23.585,23.703 23.903,22.266 23.903,20.601 L23.903,20.353 C22.638,20.119 21.574,20.035 20.704,20.099 z"/>
    </clipPath>
    <linearGradient id="Gradient_9" gradientUnits="userSpaceOnUse" x1="-3109.79" y1="-10724.749" x2="-3105.99" y2="-10724.749" gradientTransform="matrix(-0.536, 0.844, -0.844, -0.536, -10696, -3109.465)">
      <stop offset="0" stop-color="#F4D935"/>
      <stop offset="1" stop-color="#D1B928"/>
    </linearGradient>
    <radialGradient id="Gradient_10" gradientUnits="userSpaceOnUse" cx="-11.439" cy="-13.84" r="1.312" gradientTransform="matrix(-1, 0, 0, 2.181, -5.985, 48.534)">
      <stop offset="0" stop-color="#000000"/>
      <stop offset="1" stop-color="#000000"/>
    </radialGradient>
    <clipPath id="Clip_4">
      <path d="M6.403,20.45 C6.638,19.919 6.769,19.269 6.803,18.503 L4.405,16.798 C4.235,17.301 4.151,17.819 4.151,18.351 C4.151,19.151 4.289,19.835 4.553,20.401 C4.786,20.968 5.089,21.251 5.455,21.251 C5.821,21.251 6.139,20.983 6.403,20.45 z"/>
    </clipPath>
    <linearGradient id="Gradient_11" gradientUnits="userSpaceOnUse" x1="526.803" y1="-16841.457" x2="529.283" y2="-16841.457" gradientTransform="matrix(0.06, 0.998, -0.998, 0.06, -16837.5, 510.085)">
      <stop offset="0" stop-color="#D39825"/>
      <stop offset="0.176" stop-color="#CF9524"/>
      <stop offset="0.365" stop-color="#C48D22"/>
      <stop offset="0.561" stop-color="#B07F1F"/>
      <stop offset="0.761" stop-color="#956B1A"/>
      <stop offset="0.961" stop-color="#725214"/>
      <stop offset="1" stop-color="#6B4D12"/>
    </linearGradient>
    <linearGradient id="Gradient_12" gradientUnits="userSpaceOnUse" x1="474.647" y1="-16794.488" x2="476.027" y2="-16794.488" gradientTransform="matrix(0.054, 0.998, -0.998, 0.054, -16791.25, 457.935)">
      <stop offset="0" stop-color="#F1CC7D"/>
      <stop offset="0.859" stop-color="#D39825"/>
      <stop offset="1" stop-color="#D39825"/>
    </linearGradient>
    <radialGradient id="Gradient_13" gradientUnits="userSpaceOnUse" cx="-17.389" cy="4.175" r="6.162" gradientTransform="matrix(-1, 0, 0, 0.345, -5.985, 5.611)">
      <stop offset="0" stop-color="#000000"/>
      <stop offset="1" stop-color="#000000"/>
    </radialGradient>
    <clipPath id="Clip_5">
      <path d="M11.456,8.849 L11.554,8.951 L12.004,9.151 L12.053,9.2 C13.62,9.132 14.924,8.902 15.954,8.502 C17.018,8.067 17.555,7.584 17.555,7.052 C17.555,6.485 16.954,5.982 15.754,5.547 C14.553,5.152 13.101,4.952 11.403,4.952 C9.904,4.952 8.57,5.119 7.404,5.45 L7.506,5.601 C7.673,6.134 7.873,6.617 8.101,7.052 C9.571,7.852 10.685,8.449 11.456,8.849 z"/>
    </clipPath>
  </defs>
  <g id="Layer_1">
    <g>
      <path d="M11.139,2.79 C12.165,3.171 11.763,2.931 12.404,3.4 C12.535,3.531 12.555,3.869 12.453,4.4 C12.416,4.53 12.38,4.66 12.343,4.789 C12.343,4.79 12.342,4.791 12.342,4.792 C15.479,4.396 13.831,4.568 17.288,4.296 L17.687,4.297 C18.385,4.332 20.002,5.05 22.535,6.451 C24.733,7.619 26.265,8.516 27.135,9.151 C27.868,9.65 28.248,11.236 28.283,13.902 C28.283,15.401 28.219,17.77 28.081,21.002 C28.053,23.034 27.853,24.386 27.486,25.05 C27.252,25.552 26.783,25.851 26.085,25.954 C25.684,26.016 24.415,26.202 22.287,26.5 C20.228,26.786 21.321,26.645 19.005,26.915 L19.005,29.552 L18.932,30.091 L19.005,30.05 C19.171,30.181 19.323,30.347 19.454,30.548 C19.718,30.983 19.786,31.382 19.655,31.749 C19.518,32.15 19.235,32.432 18.805,32.599 C18.439,32.765 17.804,32.901 16.905,32.999 L16.583,33.043 C15.595,33.18 14.604,33.336 13.654,33.649 C13.454,33.682 13.254,33.634 13.053,33.502 C12.824,33.365 12.673,33.2 12.604,32.999 C12.557,32.745 12.516,32.832 12.603,32.709 C12.603,32.639 12.598,32.693 12.697,32.578 C12.871,32.334 12.749,32.443 13.101,32.301 L12.555,32.399 C12.189,32.432 11.905,32.335 11.705,32.101 C11.436,31.798 11.32,31.515 11.354,31.251 C11.423,30.983 11.574,30.851 11.803,30.851 L12.253,30.802 C11.486,30.865 11.154,30.616 11.256,30.05 C11.354,29.753 12.106,29.566 13.503,29.499 L16.705,29.2 L16.705,30.45 L16.736,27.044 C13.527,27.301 14.977,27.154 12.384,27.452 C11.554,27.452 10.284,26.984 8.585,26.051 C7.984,25.753 7.018,25.119 5.684,24.151 C4.152,23.087 3.253,22.335 2.984,21.9 C2.717,21.5 2.569,21.051 2.535,20.552 L2.535,19.102 C2.502,18.267 2.502,16.32 2.535,13.252 C2.569,9.884 2.633,7.985 2.735,7.55 C2.935,6.92 3.219,6.451 3.585,6.154 C4.152,5.719 4.987,5.499 6.085,5.499 C7.06,5.447 6.627,5.483 7.387,5.407 C7.328,5.055 7.33,5.184 7.331,5.025 C7.306,4.861 7.3,4.935 7.331,4.803 C7.332,4.687 7.33,4.792 7.404,4.499 C7.541,4.28 7.496,4.317 7.683,4.164 L7.836,3.951 C8.112,3.846 7.967,3.88 8.274,3.854 C8.85,3.767 8.589,3.773 9.054,3.8 C9.272,3.915 9.181,3.844 9.334,4.001 C9.372,3.709 9.336,3.898 9.504,3.449 L9.668,3.263 L9.704,3.2 L9.763,3.155 C9.884,3.017 9.816,3.052 9.944,3.016 C10.282,2.756 10.061,2.881 10.655,2.75 L11.139,2.79 z" clip-path="url(#Clip_1)" filter="url(#Shadow_2)" fill="rgba(0,0,0,0.5)"/>
      <path d="M10.655,2.75 C10.061,2.881 10.282,2.756 9.944,3.016 C9.816,3.052 9.884,3.017 9.763,3.155 L9.704,3.2 L9.668,3.263 L9.504,3.449 C9.336,3.898 9.372,3.709 9.334,4.001 C9.181,3.844 9.272,3.915 9.054,3.8 C8.589,3.773 8.85,3.767 8.274,3.854 C7.967,3.88 8.112,3.846 7.836,3.951 L7.683,4.164 C7.496,4.317 7.541,4.28 7.404,4.499 C7.33,4.792 7.332,4.687 7.331,4.803 C7.3,4.935 7.306,4.861 7.331,5.025 C7.33,5.184 7.328,5.055 7.387,5.407 C6.627,5.483 7.06,5.447 6.085,5.499 C4.987,5.499 4.152,5.719 3.585,6.154 C3.219,6.451 2.935,6.92 2.735,7.55 C2.633,7.985 2.569,9.884 2.535,13.252 C2.502,16.32 2.502,18.267 2.535,19.102 L2.535,20.552 C2.569,21.051 2.717,21.5 2.984,21.9 C3.253,22.335 4.152,23.087 5.684,24.151 C7.018,25.119 7.984,25.753 8.585,26.051 C10.284,26.984 11.554,27.452 12.384,27.452 C14.977,27.154 13.527,27.301 16.736,27.044 L16.705,30.45 L16.705,29.2 L13.503,29.499 C12.106,29.566 11.354,29.753 11.256,30.05 C11.154,30.616 11.486,30.865 12.253,30.802 L11.803,30.851 C11.574,30.851 11.423,30.983 11.354,31.251 C11.32,31.515 11.436,31.798 11.705,32.101 C11.905,32.335 12.189,32.432 12.555,32.399 L13.102,32.301 C12.749,32.443 12.871,32.334 12.697,32.578 C12.598,32.693 12.603,32.639 12.603,32.709 C12.516,32.832 12.557,32.745 12.604,32.999 C12.673,33.2 12.824,33.365 13.053,33.502 C13.254,33.634 13.454,33.682 13.654,33.649 C14.604,33.336 15.595,33.18 16.583,33.043 L16.905,32.999 C17.804,32.901 18.439,32.765 18.805,32.599 C19.235,32.432 19.518,32.15 19.655,31.749 C19.786,31.382 19.718,30.983 19.454,30.548 C19.323,30.347 19.171,30.181 19.005,30.05 L18.932,30.091 L19.005,29.552 L19.005,26.915 C21.321,26.645 20.228,26.786 22.287,26.5 C24.415,26.202 25.684,26.016 26.085,25.954 C26.783,25.851 27.252,25.552 27.487,25.05 C27.853,24.386 28.053,23.034 28.082,21.003 C28.219,17.77 28.283,15.401 28.283,13.903 C28.248,11.236 27.868,9.65 27.135,9.151 C26.265,8.516 24.733,7.619 22.535,6.451 C20.002,5.05 18.385,4.332 17.687,4.297 L17.288,4.296 C13.831,4.568 15.479,4.396 12.342,4.792 C12.342,4.791 12.343,4.79 12.343,4.789 C12.38,4.66 12.416,4.53 12.453,4.4 C12.555,3.869 12.535,3.531 12.404,3.4 C11.905,2.965 11.32,2.75 10.655,2.75 z" fill="url(#Gradient_1)"/>
    </g>
    <path d="M14.704,23.6 C14.64,23.336 14.269,23.116 13.605,22.95 C13.273,22.852 12.936,22.784 12.604,22.75 L12.604,24.249 C12.638,24.815 12.624,25.749 12.555,27.052 C12.853,27.384 13.219,27.55 13.654,27.55 C13.956,27.55 14.205,27.432 14.405,27.199 C14.606,26.935 14.704,26.651 14.704,26.349 L14.704,23.6 z" fill="url(#Gradient_2)" id="path116"/>
    <path d="M14.704,26.749 C14.64,26.749 14.489,26.851 14.254,27.053 C13.986,27.253 13.785,27.35 13.654,27.35 C13.454,27.384 13.088,27.281 12.555,27.053 L12.453,26.149 L9.553,26.3 C8.219,26.369 7.506,26.515 7.404,26.749 C7.335,27.218 7.673,27.419 8.405,27.35 L7.955,27.399 C7.721,27.399 7.589,27.501 7.555,27.701 C7.521,27.931 7.624,28.165 7.853,28.4 C8.053,28.6 8.336,28.683 8.703,28.649 L9.151,28.551 C8.726,28.664 8.575,28.844 8.703,29.097 C8.874,29.533 9.186,29.718 9.655,29.65 C10.221,29.45 11.236,29.284 12.706,29.151 C13.57,29.049 14.151,28.931 14.454,28.8 C14.889,28.669 15.173,28.449 15.304,28.15 C15.401,27.847 15.339,27.516 15.104,27.15 C14.973,26.984 14.835,26.851 14.704,26.749 z" fill="url(#Gradient_3)" id="path144"/>
    <path d="M12.706,29.151 C13.57,29.049 14.151,28.931 14.454,28.8 C14.889,28.669 15.173,28.449 15.304,28.15 L15.304,27.799 C15.236,28.034 14.938,28.165 14.405,28.2 C12.506,28.4 11.32,28.619 10.856,28.849 C10.353,29.049 9.723,29.151 8.956,29.151 C8.854,29.118 8.771,29.015 8.703,28.849 C8.639,28.917 8.639,29 8.703,29.097 C8.874,29.532 9.186,29.717 9.655,29.65 C10.221,29.45 11.236,29.284 12.706,29.151 z" fill="#8A670D" id="path146"/>
    <path d="M8.605,27.853 C8.239,28.053 8.019,27.901 7.955,27.404 C7.721,27.404 7.589,27.501 7.555,27.701 C7.521,27.936 7.624,28.17 7.853,28.4 C8.019,28.57 8.288,28.654 8.654,28.654 L8.703,28.449 C8.771,28.316 8.936,28.165 9.205,27.999 C9.469,27.834 9.64,27.75 9.704,27.75 L9.405,27.701 C9.074,27.701 8.805,27.75 8.605,27.853 z" fill="#8A670D" id="path148"/>
    <path d="M7.955,27.35 C7.921,27.218 7.936,27.12 8.004,27.052 C8.039,27.052 8.155,26.984 8.356,26.851 L8.605,26.7 L7.901,26.851 C7.77,26.851 7.653,26.769 7.555,26.603 L7.404,26.749 C7.37,27.086 7.555,27.286 7.955,27.35 z" fill="#8A670D" id="path150"/>
    <path d="M16.754,25.05 L16.705,30.45 C17.038,30.851 17.438,31.051 17.901,31.051 C18.204,31.051 18.468,30.9 18.703,30.601 C18.903,30.299 19.005,29.953 19.005,29.553 L19.005,26.1 C18.936,25.767 18.536,25.499 17.804,25.299 C17.438,25.168 17.086,25.084 16.754,25.05 z" fill="url(#Gradient_4)" id="path178"/>
    <path d="M12.253,30.803 L11.803,30.851 C11.574,30.851 11.423,30.983 11.354,31.251 C11.32,31.515 11.436,31.798 11.705,32.101 C11.905,32.335 12.189,32.432 12.555,32.399 L13.101,32.301 C12.638,32.432 12.473,32.667 12.604,32.999 C12.673,33.2 12.824,33.365 13.053,33.503 C13.254,33.634 13.454,33.682 13.654,33.649 C14.454,33.385 15.539,33.165 16.905,32.999 C17.804,32.901 18.439,32.765 18.805,32.599 C19.235,32.432 19.518,32.15 19.655,31.749 C19.786,31.383 19.718,30.983 19.454,30.548 C19.323,30.347 19.171,30.181 19.005,30.05 C18.936,30.05 18.771,30.181 18.503,30.45 C18.239,30.685 18.039,30.803 17.901,30.803 C17.673,30.836 17.271,30.719 16.705,30.45 L16.705,29.2 L13.503,29.499 C12.106,29.566 11.354,29.753 11.256,30.05 C11.154,30.616 11.486,30.865 12.253,30.803 z" fill="url(#Gradient_5)" id="path206"/>
    <path d="M13.903,31.602 L14.606,31.5 L14.103,31.451 C13.703,31.417 13.356,31.431 13.053,31.5 C12.789,31.569 12.521,31.686 12.253,31.851 C12.086,31.915 11.94,31.832 11.803,31.602 L11.505,31.002 C11.236,31.266 11.305,31.632 11.705,32.101 C11.905,32.369 12.286,32.467 12.853,32.404 L12.901,32.252 C13.101,31.984 13.219,31.832 13.254,31.797 C13.39,31.7 13.605,31.632 13.903,31.602 z" fill="#8A670D" id="path208"/>
    <path d="M11.256,30.05 C11.188,30.416 11.388,30.665 11.851,30.802 C12.155,30.368 12.506,30.132 12.901,30.099 L13.605,30.001 L13.053,29.899 C12.653,29.869 12.335,29.899 12.106,30.001 C11.735,30.201 11.486,30.167 11.354,29.899 L11.256,30.05 z" fill="#8A670D" id="path210"/>
    <path d="M19.553,30.802 C19.553,31.334 19.303,31.681 18.805,31.851 C18.004,32.052 16.838,32.315 15.304,32.653 C14.171,33.048 13.439,33.15 13.101,32.95 C12.804,32.784 12.706,32.619 12.804,32.452 C12.604,32.584 12.535,32.765 12.604,32.999 C12.673,33.2 12.824,33.365 13.053,33.502 C13.254,33.634 13.454,33.682 13.654,33.649 C14.454,33.385 15.539,33.165 16.905,32.999 C17.804,32.901 18.439,32.765 18.805,32.599 C19.235,32.432 19.518,32.15 19.655,31.749 C19.723,31.515 19.689,31.202 19.553,30.802 z" fill="#8A670D" id="path212"/>
    <path d="M11.885,4.85 C8.752,5.284 6.818,5.499 6.085,5.499 C4.987,5.499 4.152,5.719 3.585,6.154 C3.219,6.451 2.935,6.92 2.735,7.55 C2.633,7.985 2.569,9.884 2.535,13.252 C2.502,16.32 2.502,18.267 2.535,19.103 L2.535,20.552 C2.569,21.051 2.717,21.5 2.984,21.9 C3.253,22.335 4.152,23.087 5.684,24.151 C7.018,25.119 7.984,25.753 8.585,26.051 C10.284,26.984 11.554,27.452 12.384,27.452 C14.815,27.15 16.685,27.003 17.984,27.003 C18.752,26.969 20.187,26.802 22.287,26.5 C24.415,26.202 25.684,26.016 26.085,25.954 C26.783,25.851 27.252,25.552 27.487,25.05 C27.853,24.386 28.053,23.034 28.082,21.003 C28.219,17.77 28.283,15.401 28.283,13.903 C28.248,11.236 27.868,9.65 27.135,9.151 C26.265,8.516 24.733,7.619 22.535,6.451 C20.002,5.05 18.385,4.332 17.687,4.298 C16.749,4.269 14.815,4.45 11.885,4.85 z" fill="url(#Gradient_6)" id="path230"/>
    <path d="M2.755,7.55 C2.653,8.047 2.604,8.917 2.604,10.153 C2.473,14.484 2.453,17.468 2.555,19.097 L2.555,20.548 C2.589,21.051 2.736,21.5 3.004,21.9 C3.273,22.335 4.171,23.083 5.704,24.151 C7.038,25.119 8.004,25.749 8.605,26.051 C8.874,26.218 9.504,26.485 10.504,26.851 C11.505,27.218 12.14,27.419 12.404,27.452 C12.106,26.851 11.954,26.134 11.954,25.299 L12.053,11.3 L11.954,11.149 C11.789,10.949 10.89,10.45 9.254,9.65 C7.389,8.751 6.203,8.136 5.704,7.799 C4.303,6.9 3.556,6.402 3.454,6.3 C3.155,6.602 2.921,7.017 2.755,7.55 z" fill="url(#Gradient_7)" id="path252"/>
    <path d="M8.854,9.499 C10.754,10.401 11.789,10.949 11.954,11.149 C12.888,11.085 15.803,10.783 20.704,10.25 C24.435,9.85 26.754,9.684 27.653,9.753 C27.486,9.484 27.32,9.284 27.155,9.151 C26.285,8.516 24.753,7.619 22.555,6.451 C20.021,5.05 18.405,4.333 17.706,4.298 C15.401,4.2 11.539,4.601 6.105,5.499 C4.704,5.7 3.82,5.968 3.454,6.3 C3.82,6.666 4.338,7.066 5.006,7.501 C5.504,7.799 6.789,8.468 8.854,9.499 z" fill="#F4D935" id="path254"/>
    <g clip-path="url(#Clip_3)" id="g258">
      <path d="M17.516,72.878 C17.142,72.828 16.263,72.334 14.876,71.393 C14.931,69.068 15.212,67.114 15.716,65.535 C16.224,63.95 16.809,63.16 17.477,63.16 C18.196,63.16 18.809,64.022 19.317,65.752 C19.821,67.533 20.075,69.663 20.075,72.132 L20.075,72.501 C19.063,72.848 18.212,72.972 17.516,72.878 z" fill="url(#Gradient_8)" id="path300"/>
    </g>
    <path d="M24.454,20.201 C23.488,19.601 22.888,19.249 22.653,19.151 C21.92,18.785 21.285,18.585 20.754,18.551 C19.855,18.516 19.103,18.834 18.503,19.499 C17.97,20.065 17.755,20.601 17.853,21.1 C17.955,21.569 18.288,21.964 18.854,22.301 C19.454,22.667 20.206,22.847 21.105,22.847 C22.638,22.847 24.005,22.516 25.206,21.851 C25.601,21.618 25.719,21.369 25.553,21.1 C25.421,20.865 25.055,20.567 24.454,20.201 z" fill="url(#Gradient_9)" id="path318"/>
    <path d="M22.253,18.951 C21.886,18.785 21.505,18.669 21.105,18.6 C20.836,18.669 20.588,18.785 20.353,18.951 C19.82,19.284 19.489,19.517 19.351,19.65 C19.986,19.318 20.719,19.097 21.554,19 L22.253,18.951 z" fill="#9F7626" id="path320"/>
    <path d="M24.806,20.45 L23.956,19.899 C23.39,20.099 22.955,20.299 22.653,20.499 L21.803,21.1 C23.004,20.665 23.986,20.45 24.753,20.45 L24.806,20.45 z" fill="#9F7626" id="path322"/>
    <path d="M21.354,19.801 L20.601,20.45 C21.539,20.05 22.453,19.781 23.356,19.65 L23.503,19.601 L22.706,19.151 C22.071,19.386 21.623,19.601 21.354,19.801 z" fill="#9F7626" id="path324"/>
    <path d="M17.853,21.1 C17.955,21.569 18.288,21.969 18.854,22.301 C19.454,22.668 20.206,22.853 21.105,22.853 C22.638,22.853 24.005,22.516 25.206,21.851 C25.47,21.686 25.601,21.52 25.601,21.349 C25.304,21.349 24.806,21.485 24.103,21.749 C22.404,22.453 20.905,22.516 19.606,21.95 C18.639,21.52 18.073,21.036 17.901,20.499 L17.853,21.1 z" fill="#BEA71D" id="path326"/>
    <path d="M9.054,18.551 C9.054,19.049 9.151,19.469 9.351,19.801 C9.586,20.132 9.855,20.299 10.153,20.299 C10.455,20.299 10.704,20.132 10.905,19.801 C11.139,19.469 11.256,19.049 11.256,18.551 C11.256,18.083 11.139,17.681 10.905,17.35 C10.704,17.017 10.455,16.851 10.153,16.851 C9.855,16.851 9.586,17.017 9.351,17.35 C9.151,17.681 9.054,18.083 9.054,18.551 z" fill="#978715" id="path328"/>
    <path d="M9.493,18.649 C9.493,18.98 9.592,19.284 9.792,19.551 C9.963,19.781 10.177,19.899 10.441,19.899 C10.676,19.899 10.896,19.781 11.096,19.551 C11.262,19.318 11.344,19.015 11.344,18.649 C11.344,18.283 11.262,17.965 11.096,17.701 C10.924,17.468 10.709,17.35 10.441,17.35 C10.177,17.35 9.963,17.468 9.792,17.701 C9.592,17.965 9.493,18.283 9.493,18.649 z" fill="#281E09" id="path348"/>
    <path d="M2.604,14.699 C2.604,15.167 2.673,15.547 2.804,15.851 C2.936,16.183 3.101,16.349 3.303,16.349 C3.503,16.349 3.674,16.183 3.805,15.851 C3.971,15.519 4.054,15.132 4.054,14.699 C4.054,14.269 3.971,13.882 3.805,13.551 C3.674,13.249 3.503,13.101 3.303,13.101 C2.839,13.101 2.604,13.634 2.604,14.699 z" fill="#978715" id="path350"/>
    <path d="M2.901,14.748 C2.901,15.548 3.088,15.949 3.454,15.949 C3.854,15.949 4.054,15.548 4.054,14.748 C4.054,13.952 3.854,13.552 3.454,13.552 C3.088,13.552 2.901,13.952 2.901,14.748 z" fill="#281E09" id="path370"/>
    <g clip-path="url(#Clip_4)" id="g374">
      <path d="M6.075,74.333 C6.263,75.259 6.368,76.394 6.395,77.731 L4.477,80.705 C4.341,79.826 4.274,78.924 4.274,77.994 C4.274,76.599 4.384,75.406 4.595,74.418 C4.782,73.43 5.024,72.935 5.317,72.935 C5.61,72.935 5.864,73.403 6.075,74.333 z" fill="url(#Gradient_10)" id="path412"/>
    </g>
    <path d="M6.003,17.35 C5.739,17.052 5.47,16.886 5.206,16.851 C4.504,16.818 3.888,17.12 3.356,17.75 C2.853,18.351 2.736,18.702 3.004,18.8 C3.273,18.966 3.82,19.034 4.655,19 C5.588,19 6.12,18.82 6.256,18.454 C6.388,18.083 6.305,17.716 6.003,17.35 z" fill="url(#Gradient_11)" id="path440"/>
    <path d="M5.754,17.55 C5.788,17.184 5.539,16.999 5.006,16.999 C4.606,16.964 4.22,17.135 3.854,17.501 C3.454,17.834 3.321,18.067 3.454,18.2 C3.521,18.267 3.756,18.267 4.151,18.2 C4.689,18.067 4.986,17.999 5.055,17.999 C5.485,17.999 5.719,17.852 5.754,17.55 z" fill="url(#Gradient_12)" id="path460"/>
    <path d="M12.004,10.851 C11.705,10.816 10.401,10.201 8.101,9 C6.671,8.234 5.124,7.335 3.454,6.3 C3.521,6.7 4.889,7.632 7.555,9.102 C10.255,10.601 11.638,11.52 11.705,11.851 C11.803,12.217 11.803,16.369 11.705,24.302 C11.769,26.003 12.004,27.052 12.404,27.452 L12.253,26.851 C12.155,26.584 12.12,24.586 12.155,20.851 C12.189,17.253 12.238,14.884 12.306,13.751 C12.37,12.584 12.424,11.95 12.453,11.851 C12.521,11.651 12.706,11.515 13.004,11.451 C13.37,11.349 16.223,11.031 21.554,10.499 C22.355,10.436 23.605,10.25 25.304,9.953 L27.604,9.499 L20.055,10.299 C18.654,10.465 17.038,10.616 15.206,10.749 C13.37,10.885 12.306,10.919 12.004,10.851 z" fill="#F8E87C" id="path462"/>
    <g clip-path="url(#Clip_5)" id="g466">
      <path d="M10.118,15.205 L10.196,15.177 L10.556,15.122 L10.595,15.108 C11.849,15.127 12.892,15.19 13.716,15.301 C14.567,15.421 14.997,15.554 14.997,15.701 C14.997,15.857 14.516,15.996 13.556,16.116 C12.595,16.225 11.434,16.28 10.075,16.28 C8.876,16.28 7.809,16.234 6.876,16.143 L6.958,16.101 C7.091,15.954 7.251,15.821 7.434,15.701 C8.61,15.48 9.501,15.316 10.118,15.205 z" fill="url(#Gradient_13)" id="path504"/>
    </g>
    <path d="M12.755,8.649 L13.854,7.101 C14.02,6.832 14.089,6.534 14.054,6.202 C14.054,5.836 13.936,5.567 13.703,5.401 C13.336,5.035 12.955,4.919 12.555,5.05 L12.204,5.152 C12.306,4.919 12.389,4.669 12.453,4.4 C12.555,3.869 12.535,3.531 12.404,3.4 C11.905,2.965 11.32,2.75 10.655,2.75 C10.289,2.75 9.973,2.901 9.704,3.2 C9.504,3.467 9.405,3.717 9.405,3.951 C9.396,3.99 9.396,4.034 9.405,4.074 C9.284,3.922 9.166,3.829 9.054,3.8 C8.356,3.702 7.901,3.882 7.706,4.351 C7.506,4.815 7.604,5.499 8.004,6.402 C7.706,6.597 8.239,7.066 9.606,7.799 C10.773,8.4 11.403,8.717 11.505,8.751 L12.755,8.649 z" fill="#F8E87C" id="path506"/>
    <path d="M12.106,3.551 C11.603,3.116 11.021,2.901 10.353,2.901 C9.986,2.901 9.704,3.083 9.504,3.449 C9.371,3.718 9.303,3.985 9.303,4.249 L9.303,4.553 L9.151,4.298 C9.02,4.098 8.888,3.985 8.756,3.951 C8.053,3.849 7.604,4.034 7.404,4.499 C7.204,4.968 7.306,5.65 7.706,6.549 C7.438,6.749 7.97,7.218 9.303,7.95 C9.469,8.047 9.855,8.267 10.455,8.6 C10.754,8.766 11.003,8.869 11.203,8.903 L12.755,8.649 C13.053,8.019 13.336,7.55 13.605,7.253 C13.771,7.017 13.839,6.715 13.805,6.349 C13.771,5.983 13.654,5.7 13.454,5.499 C13.019,5.168 12.624,5.065 12.253,5.201 L11.954,5.299 C12.018,5.07 12.086,4.815 12.155,4.553 C12.253,4.015 12.238,3.683 12.106,3.551 z" fill="#EFD433" id="path508"/>
    <path d="M12.053,5.299 L12.106,5.25 L11.954,5.299 C12.189,4.635 12.271,4.133 12.204,3.8 C12.204,3.869 12.14,3.902 12.004,3.902 C11.803,3.966 11.671,3.985 11.603,3.951 L11.403,3.902 C11.203,4.269 11.056,4.684 10.954,5.153 L10.803,5.749 C10.905,5.782 11.036,5.749 11.203,5.65 C11.403,5.519 11.539,5.45 11.603,5.45 L12.053,5.299 z" fill="#DCC22F" id="path510"/>
    <path d="M12.506,6.999 C12.673,6.597 12.653,6.315 12.453,6.149 L10.704,7.95 L12.155,7.652 L11.905,8.502 C12.106,8.565 12.306,8.565 12.506,8.502 L12.955,8.249 L13.605,7.252 L13.605,7.199 L13.254,7.599 L12.901,7.75 C12.604,7.819 12.438,7.765 12.404,7.599 C12.37,7.501 12.404,7.301 12.506,6.999 z" fill="#DCC22F" id="path512"/>
    <path d="M11.905,8.503 L12.155,7.653 L9.806,8.101 L10.055,8.351 C10.519,8.619 10.905,8.8 11.203,8.903 L12.755,8.649 L12.955,8.249 L12.506,8.503 C12.306,8.565 12.106,8.565 11.905,8.503 z" fill="#A89423" id="path514"/>
    <path d="M11.889,7.999 C12.221,7.535 12.421,7.15 12.49,6.851 C12.621,6.418 12.608,6.031 12.436,5.7 C12.304,5.401 12.104,5.25 11.835,5.25 C11.504,5.284 11.269,5.334 11.138,5.401 C11.24,5.168 11.338,4.919 11.44,4.65 C11.606,4.118 11.621,3.766 11.489,3.6 C11.289,3.365 11.04,3.2 10.738,3.101 C10.371,2.965 10.088,2.95 9.888,3.048 L9.688,3.249 C9.555,3.516 9.488,3.785 9.488,4.049 L9.488,4.499 C9.488,4.733 9.453,4.884 9.389,4.953 L9.086,4.45 C8.858,4.084 8.604,3.883 8.34,3.849 C8.105,3.849 7.939,3.883 7.836,3.951 L7.588,4.298 C7.388,4.766 7.49,5.465 7.885,6.403 C7.588,6.598 8.12,7.053 9.488,7.75 C9.721,7.883 10.005,8.068 10.336,8.303 C10.503,8.434 10.688,8.516 10.889,8.551 L11.186,8.903 C11.455,8.565 11.689,8.268 11.889,7.999 z" fill="#F8E87C" id="path516"/>
    <path d="M12.355,6.798 C12.453,5.836 12.223,5.383 11.651,5.45 C11.32,5.485 11.085,5.534 10.954,5.601 C11.056,5.368 11.154,5.119 11.256,4.85 C11.456,4.284 11.486,3.931 11.354,3.8 C11.12,3.565 10.856,3.4 10.553,3.303 C10.186,3.165 9.904,3.15 9.704,3.249 L9.553,3.4 C9.386,3.736 9.303,4.015 9.303,4.249 L9.303,4.65 C9.303,4.919 9.269,5.07 9.205,5.099 L8.956,4.601 C8.723,4.269 8.454,4.084 8.155,4.049 C7.985,3.985 7.839,4.015 7.706,4.151 L7.404,4.499 C7.204,4.968 7.306,5.65 7.706,6.549 C7.438,6.749 7.97,7.218 9.303,7.95 C9.469,8.048 9.855,8.268 10.455,8.6 C10.754,8.766 11.003,8.869 11.203,8.903 L11.305,8.903 C11.935,8.034 12.286,7.335 12.355,6.798 z" fill="#C8AF21" id="path518"/>
  </g>
</svg>
