<?xml version="1.0" encoding="UTF-8"?>
<!DOCTYPE svg PUBLIC "-//W3C//DTD SVG 1.1//EN" "http://www.w3.org/Graphics/SVG/1.1/DTD/svg11.dtd">
<svg version="1.1" xmlns="http://www.w3.org/2000/svg" xmlns:xlink="http://www.w3.org/1999/xlink" x="0" y="0" width="25.813" height="30.899" viewBox="0, 0, 25.813, 30.899">
  <defs>
    <linearGradient id="Gradient_1" gradientUnits="userSpaceOnUse" x1="16342.387" y1="-16330" x2="16344.387" y2="-16330" gradientTransform="matrix(-1, -0, 0, 1, 16357.5, 16352.16)">
      <stop offset="0" stop-color="#D39825"/>
      <stop offset="0.176" stop-color="#CF9524"/>
      <stop offset="0.365" stop-color="#C48D22"/>
      <stop offset="0.561" stop-color="#B07F1F"/>
      <stop offset="0.761" stop-color="#956B1A"/>
      <stop offset="0.961" stop-color="#725214"/>
      <stop offset="1" stop-color="#6B4D12"/>
    </linearGradient>
    <linearGradient id="Gradient_2" gradientUnits="userSpaceOnUse" x1="16336.387" y1="-16327" x2="16346.387" y2="-16327" gradientTransform="matrix(-1, -0, 0, 1, 16357.5, 16352.16)">
      <stop offset="0" stop-color="#D39825"/>
      <stop offset="0.176" stop-color="#CF9524"/>
      <stop offset="0.365" stop-color="#C48D22"/>
      <stop offset="0.561" stop-color="#B07F1F"/>
      <stop offset="0.761" stop-color="#956B1A"/>
      <stop offset="0.961" stop-color="#725214"/>
      <stop offset="1" stop-color="#6B4D12"/>
    </linearGradient>
    <linearGradient id="Gradient_3" gradientUnits="userSpaceOnUse" x1="16346.387" y1="-16327" x2="16349.387" y2="-16327" gradientTransform="matrix(-1, -0, 0, 1, 16357.5, 16352.16)">
      <stop offset="0" stop-color="#D39825"/>
      <stop offset="0.176" stop-color="#CF9524"/>
      <stop offset="0.365" stop-color="#C48D22"/>
      <stop offset="0.561" stop-color="#B07F1F"/>
      <stop offset="0.761" stop-color="#956B1A"/>
      <stop offset="0.961" stop-color="#725214"/>
      <stop offset="1" stop-color="#6B4D12"/>
    </linearGradient>
    <linearGradient id="Gradient_4" gradientUnits="userSpaceOnUse" x1="16340.387" y1="-16324" x2="16351.387" y2="-16324" gradientTransform="matrix(-1, -0, 0, 1, 16357.5, 16352.16)">
      <stop offset="0" stop-color="#D39825"/>
      <stop offset="0.176" stop-color="#CF9524"/>
      <stop offset="0.365" stop-color="#C48D22"/>
      <stop offset="0.561" stop-color="#B07F1F"/>
      <stop offset="0.761" stop-color="#956B1A"/>
      <stop offset="0.961" stop-color="#725214"/>
      <stop offset="1" stop-color="#6B4D12"/>
    </linearGradient>
    <linearGradient id="Gradient_5" gradientUnits="userSpaceOnUse" x1="-2108.259" y1="-13446.078" x2="-2089.059" y2="-13446.078" gradientTransform="matrix(0.307, 0.952, 0.952, -0.307, 13455, -2113.715)">
      <stop offset="0" stop-color="#F4D935"/>
      <stop offset="1" stop-color="#D1B928"/>
    </linearGradient>
    <linearGradient id="Gradient_6" gradientUnits="userSpaceOnUse" x1="-2371.382" y1="-12880.964" x2="-2354.382" y2="-12880.964" gradientTransform="matrix(0.357, 0.934, 0.934, -0.357, 12896.25, -2381.59)">
      <stop offset="0" stop-color="#BEA823"/>
      <stop offset="0.373" stop-color="#BAA422"/>
      <stop offset="0.772" stop-color="#AE9A20"/>
      <stop offset="1" stop-color="#A3901F"/>
    </linearGradient>
    <radialGradient id="Gradient_7" gradientUnits="userSpaceOnUse" cx="1.664" cy="-17.351" r="3.25" gradientTransform="matrix(1, 0, 0, 1.854, 5.985, 50.016)">
      <stop offset="0" stop-color="#000000"/>
      <stop offset="0.867" stop-color="#000000"/>
      <stop offset="1" stop-color="#000000"/>
    </radialGradient>
    <clipPath id="Clip_1">
      <path d="M7.599,17.349 C8.066,17.383 9.165,17.715 10.899,18.35 C10.83,19.918 10.479,21.235 9.849,22.3 C9.214,23.369 8.483,23.901 7.648,23.901 C6.749,23.901 5.983,23.32 5.348,22.154 C4.718,20.953 4.4,19.516 4.4,17.851 L4.4,17.603 C5.665,17.369 6.729,17.285 7.599,17.349 z"/>
    </clipPath>
    <linearGradient id="Gradient_8" gradientUnits="userSpaceOnUse" x1="-3096.926" y1="-10699.39" x2="-3093.126" y2="-10699.39" gradientTransform="matrix(0.536, 0.844, 0.844, -0.536, 10696, -3109.465)">
      <stop offset="0" stop-color="#F4D935"/>
      <stop offset="1" stop-color="#D1B928"/>
    </linearGradient>
    <linearGradient id="Gradient_9" gradientUnits="userSpaceOnUse" x1="512.108" y1="-16809.375" x2="515.058" y2="-16809.375" gradientTransform="matrix(-0.059, 0.998, 0.998, 0.059, 16827.5, 499.01)">
      <stop offset="0" stop-color="#5F4E29"/>
      <stop offset="0.859" stop-color="#271D09"/>
      <stop offset="1" stop-color="#271D09"/>
    </linearGradient>
    <linearGradient id="Gradient_10" gradientUnits="userSpaceOnUse" x1="545.056" y1="-16835.373" x2="547.806" y2="-16835.373" gradientTransform="matrix(-0.064, 0.998, 0.998, 0.064, 16861.25, 536.247)">
      <stop offset="0" stop-color="#5F4E29"/>
      <stop offset="0.859" stop-color="#271D09"/>
      <stop offset="1" stop-color="#271D09"/>
    </linearGradient>
    <radialGradient id="Gradient_11" gradientUnits="userSpaceOnUse" cx="16.864" cy="-15.101" r="1.312" gradientTransform="matrix(1, 0, 0, 2.181, 5.985, 48.534)">
      <stop offset="0" stop-color="#000000"/>
      <stop offset="1" stop-color="#000000"/>
    </radialGradient>
    <clipPath id="Clip_2">
      <path d="M21.9,17.7 C21.665,17.169 21.534,16.519 21.5,15.753 L23.897,14.048 C24.067,14.551 24.151,15.069 24.151,15.601 C24.151,16.401 24.014,17.085 23.75,17.651 C23.516,18.218 23.214,18.501 22.847,18.501 C22.481,18.501 22.164,18.233 21.9,17.7 z"/>
    </clipPath>
    <linearGradient id="Gradient_12" gradientUnits="userSpaceOnUse" x1="522.346" y1="-16813.375" x2="524.826" y2="-16813.375" gradientTransform="matrix(-0.06, 0.998, 0.998, 0.06, 16837.5, 510.085)">
      <stop offset="0" stop-color="#D39825"/>
      <stop offset="0.176" stop-color="#CF9524"/>
      <stop offset="0.365" stop-color="#C48D22"/>
      <stop offset="0.561" stop-color="#B07F1F"/>
      <stop offset="0.761" stop-color="#956B1A"/>
      <stop offset="0.961" stop-color="#725214"/>
      <stop offset="1" stop-color="#6B4D12"/>
    </linearGradient>
    <linearGradient id="Gradient_13" gradientUnits="userSpaceOnUse" x1="470.358" y1="-16766.377" x2="471.738" y2="-16766.377" gradientTransform="matrix(-0.054, 0.998, 0.998, 0.054, 16791.25, 457.935)">
      <stop offset="0" stop-color="#F1CC7D"/>
      <stop offset="0.859" stop-color="#D39825"/>
      <stop offset="1" stop-color="#D39825"/>
    </linearGradient>
    <radialGradient id="Gradient_14" gradientUnits="userSpaceOnUse" cx="10.914" cy="-3.8" r="6.162" gradientTransform="matrix(1, 0, 0, 0.345, 5.985, 5.611)">
      <stop offset="0" stop-color="#000000"/>
      <stop offset="1" stop-color="#000000"/>
    </radialGradient>
    <clipPath id="Clip_3">
      <path d="M16.846,6.099 L16.749,6.201 L16.299,6.401 L16.25,6.45 C14.682,6.382 13.379,6.152 12.349,5.752 C11.285,5.317 10.747,4.834 10.747,4.302 C10.747,3.735 11.349,3.232 12.549,2.797 C13.75,2.402 15.201,2.202 16.9,2.202 C18.399,2.202 19.732,2.369 20.899,2.7 L20.796,2.851 C20.63,3.384 20.43,3.867 20.201,4.302 C18.731,5.102 17.617,5.699 16.846,6.099 z"/>
    </clipPath>
  </defs>
  <g id="Layer_1">
    <path d="M13.599,20.85 C13.662,20.586 14.034,20.366 14.697,20.2 C15.03,20.102 15.366,20.034 15.699,20 L15.699,21.499 C15.665,22.065 15.679,22.999 15.747,24.302 C15.45,24.634 15.084,24.8 14.649,24.8 C14.346,24.8 14.097,24.682 13.898,24.449 C13.696,24.185 13.599,23.901 13.599,23.599 L13.599,20.85 z" fill="url(#Gradient_1)" id="path116"/>
    <path d="M13.599,23.999 C13.662,23.999 13.814,24.101 14.049,24.302 C14.316,24.503 14.517,24.6 14.649,24.6 C14.849,24.634 15.215,24.531 15.747,24.302 L15.85,23.399 L18.75,23.55 C20.084,23.619 20.796,23.765 20.899,23.999 C20.967,24.468 20.63,24.669 19.897,24.6 L20.347,24.649 C20.581,24.649 20.714,24.751 20.747,24.951 C20.781,25.181 20.679,25.415 20.45,25.65 C20.25,25.85 19.966,25.933 19.6,25.899 L19.151,25.801 C19.576,25.914 19.727,26.094 19.6,26.347 C19.429,26.783 19.116,26.968 18.647,26.9 C18.081,26.7 17.066,26.534 15.596,26.401 C14.732,26.299 14.151,26.181 13.849,26.05 C13.414,25.919 13.13,25.699 12.999,25.4 C12.901,25.097 12.964,24.766 13.199,24.4 C13.33,24.234 13.467,24.101 13.599,23.999 z" fill="url(#Gradient_2)" id="path144"/>
    <path d="M15.596,26.401 C14.732,26.299 14.151,26.181 13.849,26.05 C13.414,25.919 13.13,25.699 12.999,25.4 L12.999,25.049 C13.066,25.284 13.365,25.415 13.897,25.45 C15.796,25.65 16.982,25.869 17.446,26.099 C17.95,26.299 18.58,26.401 19.346,26.401 C19.449,26.368 19.531,26.265 19.6,26.099 C19.664,26.167 19.664,26.25 19.6,26.347 C19.429,26.782 19.116,26.968 18.647,26.9 C18.081,26.7 17.066,26.534 15.596,26.401 z" fill="#8A670D" id="path146"/>
    <path d="M19.697,25.103 C20.064,25.302 20.284,25.151 20.347,24.654 C20.581,24.654 20.714,24.751 20.747,24.951 C20.781,25.186 20.679,25.42 20.45,25.65 C20.284,25.82 20.015,25.904 19.649,25.904 L19.6,25.699 C19.531,25.566 19.366,25.415 19.097,25.249 C18.834,25.084 18.662,25 18.599,25 L18.897,24.951 C19.229,24.951 19.497,25 19.697,25.103 z" fill="#8A670D" id="path148"/>
    <path d="M20.347,24.6 C20.381,24.468 20.366,24.37 20.299,24.302 C20.264,24.302 20.147,24.234 19.946,24.101 L19.698,23.95 L20.401,24.101 C20.532,24.101 20.65,24.019 20.747,23.853 L20.899,23.999 C20.932,24.336 20.747,24.536 20.347,24.6 z" fill="#8A670D" id="path150"/>
    <path d="M11.549,22.3 L11.597,27.7 C11.265,28.101 10.865,28.301 10.401,28.301 C10.099,28.301 9.835,28.15 9.6,27.851 C9.4,27.549 9.297,27.202 9.297,26.802 L9.297,23.35 C9.366,23.017 9.766,22.749 10.499,22.549 C10.865,22.417 11.216,22.334 11.549,22.3 z" fill="url(#Gradient_3)" id="path178"/>
    <path d="M16.05,28.052 L16.5,28.101 C16.729,28.101 16.88,28.233 16.949,28.501 C16.983,28.765 16.866,29.048 16.597,29.351 C16.397,29.585 16.114,29.683 15.747,29.649 L15.201,29.551 C15.665,29.683 15.83,29.917 15.699,30.249 C15.63,30.45 15.479,30.615 15.25,30.753 C15.049,30.884 14.849,30.933 14.649,30.899 C13.849,30.635 12.764,30.415 11.397,30.249 C10.499,30.151 9.864,30.015 9.497,29.849 C9.067,29.683 8.785,29.4 8.647,28.999 C8.516,28.632 8.585,28.233 8.849,27.798 C8.98,27.597 9.131,27.431 9.297,27.3 C9.366,27.3 9.531,27.431 9.8,27.7 C10.064,27.935 10.264,28.052 10.401,28.052 C10.63,28.086 11.031,27.969 11.597,27.7 L11.597,26.45 L14.8,26.749 C16.196,26.816 16.949,27.003 17.046,27.3 C17.149,27.866 16.816,28.115 16.05,28.052 z" fill="url(#Gradient_4)" id="path206"/>
    <path d="M14.4,28.852 L13.696,28.75 L14.2,28.701 C14.6,28.667 14.946,28.681 15.25,28.75 C15.514,28.819 15.781,28.936 16.05,29.101 C16.216,29.165 16.362,29.082 16.5,28.852 L16.797,28.252 C17.066,28.516 16.997,28.882 16.597,29.351 C16.397,29.619 16.016,29.717 15.45,29.654 L15.401,29.502 C15.201,29.234 15.084,29.082 15.049,29.047 C14.912,28.95 14.697,28.882 14.4,28.852 z" fill="#8A670D" id="path208"/>
    <path d="M17.046,27.3 C17.115,27.666 16.915,27.915 16.451,28.053 C16.147,27.618 15.796,27.383 15.401,27.349 L14.698,27.251 L15.25,27.149 C15.65,27.119 15.967,27.149 16.196,27.251 C16.567,27.451 16.816,27.418 16.949,27.149 L17.046,27.3 z" fill="#8A670D" id="path210"/>
    <path d="M8.75,28.052 C8.75,28.584 9,28.931 9.498,29.101 C10.299,29.302 11.465,29.565 12.999,29.903 C14.131,30.298 14.864,30.4 15.201,30.2 C15.499,30.034 15.596,29.869 15.499,29.702 C15.699,29.834 15.767,30.015 15.699,30.249 C15.63,30.45 15.479,30.615 15.25,30.753 C15.049,30.884 14.849,30.932 14.649,30.899 C13.849,30.635 12.764,30.415 11.398,30.249 C10.499,30.151 9.864,30.015 9.498,29.849 C9.068,29.682 8.785,29.4 8.648,28.999 C8.58,28.765 8.614,28.452 8.75,28.052 z" fill="#8A670D" id="path212"/>
    <path d="M16.397,2.1 C19.531,2.534 21.465,2.749 22.198,2.749 C23.296,2.749 24.131,2.969 24.698,3.404 C25.064,3.701 25.347,4.17 25.548,4.8 C25.65,5.235 25.714,7.134 25.747,10.502 C25.781,13.57 25.781,15.517 25.747,16.352 L25.747,17.802 C25.714,18.301 25.566,18.75 25.299,19.15 C25.03,19.585 24.131,20.337 22.599,21.401 C21.265,22.369 20.299,23.003 19.698,23.301 C17.999,24.234 16.729,24.702 15.899,24.702 C13.467,24.4 11.597,24.253 10.299,24.253 C9.531,24.219 8.096,24.052 5.996,23.75 C3.868,23.452 2.599,23.266 2.197,23.204 C1.5,23.101 1.031,22.802 0.796,22.3 C0.43,21.636 0.23,20.284 0.201,18.253 C0.064,15.02 -0,12.651 -0,11.153 C0.035,8.486 0.415,6.9 1.148,6.401 C2.017,5.766 3.55,4.869 5.747,3.701 C8.281,2.3 9.898,1.582 10.596,1.547 C11.534,1.519 13.467,1.7 16.397,2.1 z" fill="url(#Gradient_5)" id="path230"/>
    <path d="M25.547,4.8 C25.65,5.297 25.699,6.167 25.699,7.402 C25.83,11.734 25.85,14.717 25.747,16.347 L25.747,17.797 C25.714,18.301 25.566,18.75 25.299,19.15 C25.03,19.585 24.131,20.333 22.599,21.401 C21.265,22.369 20.299,22.999 19.698,23.301 C19.429,23.467 18.799,23.735 17.799,24.101 C16.797,24.467 16.163,24.669 15.899,24.702 C16.196,24.101 16.349,23.384 16.349,22.549 L16.25,8.55 L16.349,8.399 C16.514,8.199 17.413,7.7 19.049,6.9 C20.914,6.001 22.1,5.386 22.599,5.049 C24,4.15 24.746,3.652 24.849,3.55 C25.147,3.852 25.381,4.267 25.547,4.8 z" fill="url(#Gradient_6)" id="path252"/>
    <path d="M19.449,6.749 C17.549,7.651 16.514,8.199 16.349,8.399 C15.415,8.335 12.5,8.033 7.599,7.5 C3.867,7.1 1.549,6.934 0.65,7.003 C0.816,6.734 0.982,6.534 1.147,6.401 C2.017,5.766 3.55,4.869 5.747,3.701 C8.281,2.3 9.897,1.583 10.596,1.548 C12.901,1.45 16.764,1.851 22.197,2.749 C23.599,2.95 24.482,3.218 24.849,3.55 C24.482,3.916 23.965,4.316 23.296,4.751 C22.799,5.049 21.514,5.718 19.449,6.749 z" fill="#F4D935" id="path254"/>
    <g clip-path="url(#Clip_1)" id="g258">
      <path d="M10.786,70.128 C11.16,70.078 12.039,69.584 13.426,68.643 C13.371,66.318 13.09,64.364 12.586,62.785 C12.078,61.2 11.493,60.41 10.825,60.41 C10.106,60.41 9.493,61.272 8.985,63.002 C8.481,64.783 8.227,66.913 8.227,69.382 L8.227,69.751 C9.239,70.098 10.09,70.222 10.786,70.128 z" fill="url(#Gradient_7)" id="path300"/>
    </g>
    <path d="M3.849,17.451 C4.815,16.851 5.415,16.499 5.65,16.401 C6.382,16.035 7.017,15.835 7.549,15.801 C8.448,15.766 9.2,16.084 9.8,16.749 C10.332,17.315 10.547,17.851 10.45,18.35 C10.347,18.819 10.015,19.214 9.449,19.551 C8.849,19.917 8.096,20.097 7.197,20.097 C5.665,20.097 4.297,19.766 3.096,19.101 C2.701,18.868 2.584,18.619 2.75,18.35 C2.881,18.115 3.247,17.817 3.849,17.451 z" fill="url(#Gradient_8)" id="path318"/>
    <path d="M6.05,16.201 C6.416,16.035 6.797,15.919 7.197,15.85 C7.466,15.919 7.715,16.035 7.95,16.201 C8.483,16.534 8.814,16.767 8.951,16.9 C8.316,16.568 7.584,16.347 6.749,16.25 L6.05,16.201 z" fill="#9F7626" id="path320"/>
    <path d="M3.496,17.7 L4.346,17.149 C4.912,17.349 5.347,17.549 5.65,17.749 L6.5,18.35 C5.299,17.915 4.316,17.7 3.55,17.7 L3.496,17.7 z" fill="#9F7626" id="path322"/>
    <path d="M6.949,17.051 L7.701,17.7 C6.764,17.3 5.85,17.031 4.946,16.9 L4.8,16.851 L5.596,16.401 C6.231,16.636 6.68,16.851 6.949,17.051 z" fill="#9F7626" id="path324"/>
    <path d="M10.45,18.35 C10.347,18.819 10.015,19.219 9.449,19.551 C8.849,19.918 8.096,20.103 7.197,20.103 C5.665,20.103 4.297,19.766 3.096,19.101 C2.832,18.936 2.701,18.77 2.701,18.599 C2.999,18.599 3.496,18.735 4.2,18.999 C5.899,19.703 7.397,19.766 8.696,19.2 C9.664,18.77 10.23,18.286 10.401,17.749 L10.45,18.35 z" fill="#BEA71D" id="path326"/>
    <path d="M19.249,15.801 C19.249,16.299 19.151,16.719 18.951,17.051 C18.716,17.382 18.447,17.549 18.15,17.549 C17.847,17.549 17.599,17.382 17.397,17.051 C17.164,16.719 17.046,16.299 17.046,15.801 C17.046,15.333 17.164,14.931 17.397,14.6 C17.599,14.267 17.847,14.101 18.15,14.101 C18.447,14.101 18.716,14.267 18.951,14.6 C19.151,14.931 19.249,15.333 19.249,15.801 z" fill="#978715" id="path328"/>
    <path d="M18.849,15.85 C18.849,16.181 18.75,16.485 18.55,16.753 C18.379,16.983 18.165,17.1 17.901,17.1 C17.666,17.1 17.446,16.983 17.246,16.753 C17.08,16.519 16.997,16.216 16.997,15.85 C16.997,15.484 17.08,15.166 17.246,14.903 C17.417,14.669 17.632,14.551 17.901,14.551 C18.165,14.551 18.379,14.669 18.55,14.903 C18.75,15.166 18.849,15.484 18.849,15.85 z" fill="url(#Gradient_9)" id="path348"/>
    <path d="M25.699,11.949 C25.699,12.417 25.63,12.797 25.499,13.101 C25.366,13.432 25.201,13.599 25,13.599 C24.8,13.599 24.629,13.432 24.497,13.101 C24.331,12.769 24.249,12.382 24.249,11.949 C24.249,11.519 24.331,11.132 24.497,10.801 C24.629,10.499 24.8,10.351 25,10.351 C25.464,10.351 25.699,10.884 25.699,11.949 z" fill="#978715" id="path350"/>
    <path d="M25.401,11.949 C25.401,12.749 25.215,13.15 24.849,13.15 C24.449,13.15 24.249,12.749 24.249,11.949 C24.249,11.153 24.449,10.752 24.849,10.752 C25.215,10.752 25.401,11.153 25.401,11.949 z" fill="url(#Gradient_10)" id="path370"/>
    <g clip-path="url(#Clip_2)" id="g374">
      <path d="M22.227,71.583 C22.039,72.509 21.934,73.644 21.907,74.981 L23.825,77.955 C23.961,77.076 24.028,76.174 24.028,75.244 C24.028,73.849 23.918,72.656 23.707,71.668 C23.52,70.68 23.278,70.185 22.985,70.185 C22.692,70.185 22.438,70.653 22.227,71.583 z" fill="url(#Gradient_11)" id="path412"/>
    </g>
    <path d="M22.3,14.6 C22.564,14.303 22.833,14.136 23.096,14.101 C23.799,14.068 24.415,14.37 24.946,15 C25.45,15.601 25.566,15.953 25.299,16.05 C25.03,16.216 24.483,16.284 23.647,16.25 C22.715,16.25 22.182,16.07 22.046,15.704 C21.915,15.333 21.997,14.966 22.3,14.6 z" fill="url(#Gradient_12)" id="path440"/>
    <path d="M22.549,14.8 C22.515,14.434 22.764,14.249 23.296,14.249 C23.696,14.214 24.083,14.385 24.449,14.751 C24.849,15.084 24.981,15.318 24.849,15.45 C24.781,15.517 24.546,15.517 24.151,15.45 C23.614,15.318 23.316,15.249 23.247,15.249 C22.817,15.249 22.584,15.102 22.549,14.8 z" fill="url(#Gradient_13)" id="path460"/>
    <path d="M16.299,8.101 C16.597,8.066 17.901,7.451 20.201,6.25 C21.631,5.484 23.179,4.585 24.849,3.55 C24.781,3.95 23.414,4.882 20.747,6.352 C18.048,7.851 16.665,8.77 16.597,9.101 C16.5,9.467 16.5,13.619 16.597,21.552 C16.534,23.253 16.299,24.302 15.899,24.702 L16.05,24.101 C16.148,23.834 16.183,21.836 16.148,18.101 C16.114,14.502 16.065,12.134 15.996,11.001 C15.932,9.834 15.879,9.2 15.85,9.101 C15.781,8.901 15.596,8.765 15.299,8.701 C14.932,8.599 12.08,8.281 6.749,7.749 C5.948,7.686 4.698,7.5 2.999,7.202 L0.699,6.749 L8.248,7.549 C9.649,7.715 11.265,7.866 13.096,7.999 C14.932,8.135 15.996,8.169 16.299,8.101 z" fill="#F8E87C" id="path462"/>
    <g clip-path="url(#Clip_3)" id="g466">
      <path d="M18.184,12.455 L18.106,12.427 L17.746,12.372 L17.707,12.358 C16.453,12.377 15.41,12.44 14.586,12.551 C13.735,12.671 13.305,12.804 13.305,12.951 C13.305,13.107 13.786,13.246 14.746,13.366 C15.707,13.475 16.868,13.53 18.227,13.53 C19.426,13.53 20.493,13.484 21.426,13.393 L21.344,13.351 C21.211,13.204 21.051,13.071 20.868,12.951 C19.692,12.73 18.801,12.566 18.184,12.455 z" fill="url(#Gradient_14)" id="path504"/>
    </g>
    <path d="M15.547,5.899 L14.449,4.351 C14.282,4.082 14.214,3.784 14.249,3.453 C14.249,3.086 14.366,2.818 14.6,2.651 C14.966,2.285 15.347,2.169 15.747,2.3 L16.099,2.402 C15.996,2.169 15.914,1.919 15.85,1.65 C15.747,1.119 15.767,0.781 15.899,0.65 C16.397,0.215 16.982,0 17.647,0 C18.014,0 18.33,0.151 18.599,0.45 C18.799,0.717 18.897,0.967 18.897,1.201 C18.906,1.24 18.906,1.284 18.897,1.324 C19.019,1.173 19.136,1.079 19.249,1.05 C19.946,0.952 20.401,1.133 20.596,1.601 C20.796,2.065 20.699,2.749 20.299,3.652 C20.596,3.848 20.064,4.316 18.696,5.049 C17.53,5.65 16.9,5.968 16.797,6.001 L15.547,5.899 z" fill="#F8E87C" id="path506"/>
    <path d="M16.196,0.801 C16.7,0.366 17.281,0.151 17.95,0.151 C18.316,0.151 18.599,0.333 18.799,0.699 C18.931,0.968 19,1.235 19,1.499 L19,1.803 L19.151,1.548 C19.282,1.348 19.415,1.235 19.546,1.201 C20.25,1.099 20.699,1.284 20.899,1.749 C21.099,2.218 20.996,2.9 20.596,3.799 C20.865,3.999 20.333,4.468 19,5.2 C18.834,5.298 18.448,5.517 17.847,5.85 C17.549,6.016 17.3,6.119 17.1,6.153 L15.547,5.899 C15.25,5.269 14.966,4.8 14.698,4.503 C14.531,4.267 14.464,3.965 14.498,3.599 C14.531,3.233 14.649,2.95 14.849,2.749 C15.284,2.418 15.679,2.315 16.05,2.451 L16.349,2.549 C16.285,2.32 16.216,2.065 16.147,1.803 C16.05,1.265 16.065,0.933 16.196,0.801 z" fill="#EFD433" id="path508"/>
    <path d="M16.25,2.549 L16.196,2.5 L16.349,2.549 C16.114,1.885 16.031,1.383 16.099,1.05 C16.099,1.119 16.163,1.153 16.299,1.153 C16.5,1.216 16.631,1.235 16.7,1.201 L16.9,1.153 C17.1,1.519 17.246,1.934 17.349,2.403 L17.5,2.999 C17.397,3.033 17.266,2.999 17.1,2.9 C16.9,2.769 16.764,2.7 16.7,2.7 L16.25,2.549 z" fill="#DCC22F" id="path510"/>
    <path d="M15.796,4.249 C15.63,3.848 15.65,3.565 15.85,3.399 L17.599,5.2 L16.148,4.903 L16.398,5.753 C16.196,5.815 15.996,5.815 15.796,5.753 L15.347,5.499 L14.698,4.503 L14.698,4.449 L15.049,4.849 L15.401,5 C15.699,5.069 15.865,5.015 15.899,4.849 C15.932,4.751 15.899,4.551 15.796,4.249 z" fill="#DCC22F" id="path512"/>
    <path d="M16.397,5.753 L16.147,4.903 L18.496,5.351 L18.247,5.601 C17.784,5.869 17.397,6.05 17.1,6.153 L15.547,5.899 L15.347,5.499 L15.796,5.753 C15.996,5.815 16.196,5.815 16.397,5.753 z" fill="#A89423" id="path514"/>
    <path d="M16.397,5.249 C16.065,4.785 15.865,4.4 15.796,4.101 C15.665,3.668 15.679,3.281 15.85,2.95 C15.982,2.651 16.182,2.5 16.451,2.5 C16.782,2.534 17.017,2.584 17.149,2.651 C17.046,2.418 16.949,2.169 16.846,1.9 C16.68,1.368 16.665,1.016 16.797,0.85 C16.997,0.615 17.246,0.45 17.549,0.351 C17.915,0.215 18.199,0.2 18.399,0.298 L18.599,0.499 C18.731,0.766 18.799,1.035 18.799,1.299 L18.799,1.749 C18.799,1.983 18.834,2.134 18.897,2.203 L19.2,1.7 C19.429,1.334 19.682,1.133 19.946,1.099 C20.181,1.099 20.347,1.133 20.45,1.201 L20.699,1.548 C20.899,2.016 20.796,2.715 20.401,3.653 C20.699,3.848 20.166,4.303 18.799,5 C18.565,5.133 18.281,5.318 17.95,5.553 C17.784,5.684 17.599,5.766 17.397,5.801 L17.1,6.153 C16.831,5.815 16.597,5.517 16.397,5.249 z" fill="#F8E87C" id="path516"/>
    <path d="M15.948,4.048 C15.85,3.086 16.08,2.633 16.651,2.7 C16.983,2.735 17.218,2.784 17.349,2.851 C17.246,2.618 17.149,2.369 17.046,2.1 C16.846,1.534 16.816,1.181 16.949,1.05 C17.183,0.815 17.446,0.65 17.75,0.553 C18.116,0.415 18.399,0.4 18.599,0.499 L18.75,0.65 C18.916,0.986 19,1.265 19,1.499 L19,1.9 C19,2.169 19.034,2.32 19.097,2.349 L19.346,1.851 C19.58,1.519 19.849,1.334 20.148,1.299 C20.318,1.235 20.464,1.265 20.596,1.401 L20.899,1.749 C21.099,2.218 20.996,2.9 20.596,3.799 C20.865,3.999 20.333,4.468 19,5.2 C18.834,5.298 18.448,5.518 17.847,5.85 C17.549,6.016 17.3,6.119 17.1,6.153 L16.997,6.153 C16.368,5.284 16.016,4.585 15.948,4.048 z" fill="#C8AF21" id="path518"/>
  </g>
</svg>
