<?xml version="1.0" encoding="UTF-8"?>
<!DOCTYPE svg PUBLIC "-//W3C//DTD SVG 1.1//EN" "http://www.w3.org/Graphics/SVG/1.1/DTD/svg11.dtd">
<svg version="1.1" xmlns="http://www.w3.org/2000/svg" xmlns:xlink="http://www.w3.org/1999/xlink" x="0" y="0" width="26.555" height="26.813" viewBox="0, 0, 26.555, 26.813">
  <defs>
    <linearGradient id="Gradient_1" gradientUnits="userSpaceOnUse" x1="354.619" y1="324.07" x2="356.369" y2="324.07" gradientTransform="matrix(0.999, -0.043, -0.043, -0.999, -336.6, 362.475)">
      <stop offset="0" stop-color="#E9A9BA"/>
      <stop offset="1" stop-color="#C47F91"/>
    </linearGradient>
    <linearGradient id="Gradient_2" gradientUnits="userSpaceOnUse" x1="363.919" y1="322.67" x2="365.669" y2="322.67" gradientTransform="matrix(0.999, -0.043, -0.043, -0.999, -336.6, 362.475)">
      <stop offset="0" stop-color="#E9A9BA"/>
      <stop offset="1" stop-color="#C47F91"/>
    </linearGradient>
    <linearGradient id="Gradient_3" gradientUnits="userSpaceOnUse" x1="371.729" y1="326.19" x2="373.479" y2="326.19" gradientTransform="matrix(0.999, -0.043, -0.043, -0.999, -336.6, 362.475)">
      <stop offset="0" stop-color="#E9A9BA"/>
      <stop offset="1" stop-color="#C47F91"/>
    </linearGradient>
    <linearGradient id="Gradient_4" gradientUnits="userSpaceOnUse" x1="-2112.662" y1="-13445.385" x2="-2093.562" y2="-13445.385" gradientTransform="matrix(0.307, 0.952, 0.952, -0.307, 13455, -2109.287)">
      <stop offset="0" stop-color="#E9A9BA"/>
      <stop offset="1" stop-color="#C47F91"/>
    </linearGradient>
    <linearGradient id="Gradient_5" gradientUnits="userSpaceOnUse" x1="-2375.787" y1="-12879.026" x2="-2358.787" y2="-12879.026" gradientTransform="matrix(0.357, 0.934, 0.934, -0.357, 12896.25, -2377.162)">
      <stop offset="0" stop-color="#C78F9F"/>
      <stop offset="1" stop-color="#9B6473"/>
    </linearGradient>
    <radialGradient id="Gradient_6" gradientUnits="userSpaceOnUse" cx="-1047.916" cy="-377.176" r="3.165" gradientTransform="matrix(0.999, 0.043, -0.051, 0.379, 1047.488, 191.551)">
      <stop offset="0" stop-color="#000000"/>
      <stop offset="0.867" stop-color="#000000"/>
      <stop offset="1" stop-color="#000000"/>
    </radialGradient>
    <clipPath id="Clip_1">
      <path d="M20.699,1.999 C21.534,2.068 22.218,2.219 22.749,2.448 C23.316,2.683 23.565,2.965 23.496,3.298 C23.463,3.635 23.115,3.898 22.446,4.099 C21.783,4.333 21.016,4.416 20.146,4.348 C19.546,4.348 18.916,4.25 18.248,4.05 C18.648,3.718 19.2,3.166 19.898,2.399 L20,2.199 L20.699,1.999 z"/>
    </clipPath>
    <linearGradient id="Gradient_7" gradientUnits="userSpaceOnUse" x1="-93.659" y1="-15483.668" x2="-90.142" y2="-15483.668" gradientTransform="matrix(0.1, 0.995, 1.004, -0.007, 15580, -8.193)">
      <stop offset="0" stop-color="#E9A9BA"/>
      <stop offset="1" stop-color="#C47F91"/>
    </linearGradient>
    <linearGradient id="Gradient_8" gradientUnits="userSpaceOnUse" x1="-88.695" y1="-15455.651" x2="-84.548" y2="-15455.651" gradientTransform="matrix(0.102, 0.995, 1.005, -0.006, 15558.75, 2.062)">
      <stop offset="0" stop-color="#C78F9F"/>
      <stop offset="1" stop-color="#9B6473"/>
    </linearGradient>
    <radialGradient id="Gradient_9" gradientUnits="userSpaceOnUse" cx="16.714" cy="-23.4" r="3.713" gradientTransform="matrix(1, 0, 0, 1, 5.985, 41.899)">
      <stop offset="0" stop-color="#000000"/>
      <stop offset="0.867" stop-color="#000000"/>
      <stop offset="1" stop-color="#000000"/>
    </radialGradient>
    <clipPath id="Clip_2">
      <path d="M25.796,14.601 L25.796,17.501 C25.766,18 25.615,18.449 25.348,18.849 C24.918,19.519 23.481,20.631 21.05,22.199 C19.918,22.101 19.151,21.681 18.75,20.949 C18.35,20.183 18.481,19.264 19.151,18.2 C19.849,17.13 20.879,16.251 22.246,15.549 C23.414,14.914 24.6,14.601 25.796,14.601 z"/>
    </clipPath>
    <linearGradient id="Gradient_10" gradientUnits="userSpaceOnUse" x1="-167.436" y1="-16152.075" x2="-164.066" y2="-16152.075" gradientTransform="matrix(0.022, 1, 1, -0.022, 16173.75, -174.725)">
      <stop offset="0" stop-color="#E9A9BA"/>
      <stop offset="1" stop-color="#C47F91"/>
    </linearGradient>
    <linearGradient id="Gradient_11" gradientUnits="userSpaceOnUse" x1="-2970.933" y1="-11174.917" x2="-2966.933" y2="-11174.917" gradientTransform="matrix(0.499, 0.867, 0.867, -0.499, 11190, -2983.662)">
      <stop offset="0" stop-color="#C78F9F"/>
      <stop offset="1" stop-color="#9B6473"/>
    </linearGradient>
    <linearGradient id="Gradient_12" gradientUnits="userSpaceOnUse" x1="15867.521" y1="-1091.769" x2="15869.521" y2="-1091.769" gradientTransform="matrix(-0.124, -0.992, -1.017, -0.075, 880.037, 15681.713)">
      <stop offset="0" stop-color="#9C6877"/>
      <stop offset="1" stop-color="#905D6A"/>
    </linearGradient>
    <linearGradient id="Gradient_13" gradientUnits="userSpaceOnUse" x1="15912.554" y1="-1157.81" x2="15913.554" y2="-1157.81" gradientTransform="matrix(-0.131, -0.991, -1.018, -0.07, 931.475, 15711.713)">
      <stop offset="0" stop-color="#754E5A"/>
      <stop offset="1" stop-color="#4E3238"/>
    </linearGradient>
    <linearGradient id="Gradient_14" gradientUnits="userSpaceOnUse" x1="15849.503" y1="-1170.216" x2="15851.503" y2="-1170.216" gradientTransform="matrix(-0.132, -0.991, -1.02, -0.08, 927.375, 15634.213)">
      <stop offset="0" stop-color="#9C6877"/>
      <stop offset="1" stop-color="#905D6A"/>
    </linearGradient>
    <linearGradient id="Gradient_15" gradientUnits="userSpaceOnUse" x1="15866.519" y1="-1095.169" x2="15867.519" y2="-1095.169" gradientTransform="matrix(-0.124, -0.992, -1.017, -0.075, 879.463, 15677.963)">
      <stop offset="0" stop-color="#754E5A"/>
      <stop offset="1" stop-color="#4E3238"/>
    </linearGradient>
    <linearGradient id="Gradient_16" gradientUnits="userSpaceOnUse" x1="507.414" y1="-16809.465" x2="510.364" y2="-16809.465" gradientTransform="matrix(-0.059, 0.998, 0.998, 0.059, 16827.5, 503.413)">
      <stop offset="0" stop-color="#5F4E29"/>
      <stop offset="0.859" stop-color="#271D09"/>
      <stop offset="1" stop-color="#271D09"/>
    </linearGradient>
    <linearGradient id="Gradient_17" gradientUnits="userSpaceOnUse" x1="540.353" y1="-16835.484" x2="543.112" y2="-16835.484" gradientTransform="matrix(-0.064, 0.998, 0.998, 0.064, 16861.25, 540.651)">
      <stop offset="0" stop-color="#5F4E29"/>
      <stop offset="0.859" stop-color="#271D09"/>
      <stop offset="1" stop-color="#271D09"/>
    </linearGradient>
    <radialGradient id="Gradient_18" gradientUnits="userSpaceOnUse" cx="7.564" cy="-20.299" r="3.95" gradientTransform="matrix(1, 0, 0, 0.351, 5.985, 13.481)">
      <stop offset="0" stop-color="#000000"/>
      <stop offset="0.867" stop-color="#000000"/>
      <stop offset="1" stop-color="#000000"/>
    </radialGradient>
    <clipPath id="Clip_3">
      <path d="M14.297,4.948 C15.332,4.983 16.196,5.134 16.9,5.398 C17.632,5.666 17.999,5.983 17.999,6.349 C17.999,6.715 17.617,7.048 16.851,7.35 C16.079,7.614 15.146,7.75 14.049,7.75 C13.281,7.75 12.466,7.648 11.597,7.448 C12.066,7.048 12.646,6.398 13.35,5.5 L13.496,5.198 L14.297,4.948 z"/>
    </clipPath>
    <linearGradient id="Gradient_19" gradientUnits="userSpaceOnUse" x1="-1080.63" y1="-15098.427" x2="-1076.23" y2="-15098.427" gradientTransform="matrix(0.142, 0.99, 0.99, -0.142, 15112.5, -1074.8)">
      <stop offset="0" stop-color="#E9A9BA"/>
      <stop offset="1" stop-color="#C47F91"/>
    </linearGradient>
    <linearGradient id="Gradient_20" gradientUnits="userSpaceOnUse" x1="-1065.219" y1="-15117.438" x2="-1060.019" y2="-15117.438" gradientTransform="matrix(0.14, 0.99, 0.99, -0.14, 15132.5, -1059.699)">
      <stop offset="0" stop-color="#C78F9F"/>
      <stop offset="1" stop-color="#9B6473"/>
    </linearGradient>
  </defs>
  <g id="Layer_1">
    <path d="M2.799,21.198 L7.5,21.55 C7.1,23.049 6.816,24 6.651,24.401 C6.25,25.431 5.83,25.9 5.401,25.798 C4.566,25.598 3.696,24.064 2.799,21.198 z" fill="url(#Gradient_1)" id="path106"/>
    <path d="M12.149,22.199 L16.798,22.55 C16.465,23.918 16.196,24.865 15.996,25.398 C15.601,26.433 15.181,26.901 14.746,26.799 C13.916,26.599 13.048,25.065 12.149,22.199 z" fill="url(#Gradient_2)" id="path124"/>
    <path d="M19.8,18.351 L24.498,18.698 C24.098,20.198 23.814,21.149 23.648,21.55 C23.248,22.585 22.833,23.049 22.398,22.951 C21.568,22.75 20.699,21.218 19.8,18.351 z" fill="url(#Gradient_3)" id="path142"/>
    <path d="M24.746,3.098 C25.118,3.434 25.381,3.898 25.548,4.499 C25.714,5.031 25.796,8.884 25.796,16.051 L25.796,17.501 C25.766,18 25.615,18.449 25.347,18.849 C25.084,19.284 24.18,20.031 22.646,21.1 C21.28,22.068 20.299,22.698 19.698,23 C18.066,23.933 16.798,24.401 15.899,24.401 C13.496,24.099 11.651,23.948 10.347,23.948 C9.58,23.918 8.13,23.751 5.996,23.449 C3.868,23.151 2.598,22.965 2.197,22.898 C1.534,22.765 1.065,22.468 0.796,21.999 C0.464,21.335 0.284,19.983 0.249,17.951 C0.084,14.719 -0,12.35 -0,10.851 C0.03,8.18 0.415,6.599 1.148,6.1 C2.115,5.431 3.648,4.533 5.747,3.4 C8.281,1.999 9.917,1.281 10.65,1.251 C11.549,1.218 13.481,1.398 16.45,1.799 C19.546,2.233 21.465,2.448 22.198,2.448 C23.33,2.448 24.18,2.668 24.746,3.098 z" fill="url(#Gradient_4)" id="path160"/>
    <path d="M25.747,7.101 C25.781,8.166 25.796,11.149 25.796,16.051 L25.796,17.501 C25.766,18 25.615,18.449 25.347,18.849 C25.084,19.284 24.18,20.031 22.646,21.1 C21.28,22.068 20.299,22.698 19.698,23 C19.4,23.166 18.765,23.434 17.799,23.8 C16.831,24.166 16.196,24.366 15.899,24.401 C16.231,23.733 16.382,23.014 16.347,22.248 L16.25,8.249 L16.347,8.098 C16.514,7.931 17.432,7.434 19.097,6.599 C20.899,5.734 22.066,5.114 22.597,4.748 C23.999,3.849 24.746,3.351 24.849,3.249 C25.215,3.615 25.45,4.035 25.547,4.499 C25.615,4.699 25.684,5.563 25.747,7.101 z" fill="url(#Gradient_5)" id="path178"/>
    <path d="M23.35,4.45 C22.847,4.748 21.549,5.416 19.449,6.448 C17.584,7.35 16.549,7.898 16.347,8.098 C15.484,8.034 12.584,7.731 7.646,7.199 C3.916,6.799 1.582,6.633 0.65,6.701 C0.816,6.433 0.981,6.233 1.147,6.1 C2.115,5.431 3.647,4.533 5.747,3.4 C8.281,1.999 9.917,1.281 10.65,1.251 C12.915,1.149 16.767,1.55 22.198,2.448 C23.632,2.648 24.516,2.916 24.849,3.249 C24.414,3.684 23.916,4.084 23.35,4.45 z" fill="#ECB9C9" id="path180"/>
    <g clip-path="url(#Clip_1)" id="g184">
      <path d="M1061.771,195.109 C1062.442,195.117 1062.994,195.095 1063.428,195.044 C1063.892,194.993 1064.102,194.916 1064.061,194.812 C1064.048,194.709 1063.781,194.617 1063.254,194.533 C1062.734,194.439 1062.125,194.387 1061.426,194.378 C1060.947,194.357 1060.439,194.365 1059.896,194.402 C1060.203,194.517 1060.621,194.703 1061.147,194.96 L1061.221,195.024 L1061.771,195.109 z" fill="url(#Gradient_6)" id="path226"/>
    </g>
    <path d="M18.55,3.751 C18.516,3.283 18.633,2.585 18.896,1.648 C19.267,0.514 19.683,-0.032 20.146,0.001 C20.85,0.031 21.383,0.769 21.749,2.199 C21.88,2.531 21.714,2.834 21.25,3.098 C20.381,3.566 19.864,3.8 19.698,3.8 L18.55,3.751 z" fill="#F4D8E1" id="path228"/>
    <path d="M18.55,3.751 C19.049,1.281 19.615,0.065 20.249,0.099 C20.948,0.134 21.499,0.88 21.9,2.35 C22.031,2.683 21.865,2.98 21.396,3.249 C20.532,3.718 20.015,3.948 19.849,3.948 L18.55,3.751 z" fill="url(#Gradient_7)" id="path246"/>
    <path d="M20.097,3.849 L19.898,3.849 C19.829,3.615 19.849,3.083 19.946,2.248 C20.015,1.418 20.118,0.88 20.249,0.651 C20.381,0.383 20.566,0.265 20.796,0.3 C21.132,0.598 21.465,1.251 21.798,2.248 C21.865,2.585 21.68,2.868 21.25,3.098 L20.097,3.849 z" fill="#F4D8E1" id="path248"/>
    <path d="M21.396,3.249 C20.533,3.718 20.015,3.948 19.849,3.948 C19.981,2.219 20.146,1.164 20.348,0.798 C20.548,0.5 20.733,0.363 20.899,0.398 C21.231,0.7 21.568,1.349 21.9,2.35 C22.031,2.683 21.865,2.98 21.396,3.249 z" fill="url(#Gradient_8)" id="path266"/>
    <g clip-path="url(#Clip_2)" id="g270">
      <path d="M25.384,46.767 L25.384,44.447 C25.36,44.048 25.239,43.689 25.025,43.369 C24.681,42.833 23.532,41.943 21.587,40.689 C20.681,40.767 20.068,41.103 19.747,41.689 C19.427,42.302 19.532,43.037 20.068,43.888 C20.626,44.744 21.45,45.447 22.544,46.009 C23.478,46.517 24.427,46.767 25.384,46.767 z" fill="url(#Gradient_9)" id="path312"/>
    </g>
    <path d="M25.146,13.751 C25.85,13.849 26.231,14.064 26.299,14.401 C26.534,15.265 26.016,16.198 24.746,17.199 C24.116,17.898 23.599,18.449 23.199,18.849 C22.5,19.616 21.934,20.016 21.499,20.05 C20.601,20.114 20.015,19.748 19.746,18.948 C19.516,18.318 19.516,17.668 19.746,16.999 C19.981,16.335 21.196,15.349 23.399,14.05 C23.868,13.751 24.449,13.649 25.146,13.751 z" fill="url(#Gradient_10)" id="path330"/>
    <path d="M25.65,13.898 C25.981,14 26.196,14.23 26.299,14.596 C26.368,14.996 26.231,15.598 25.899,16.398 C25.63,17.033 25.517,17.331 25.548,17.296 C23.614,19.166 22.28,20.05 21.549,19.948 C20.914,19.88 20.517,19.548 20.347,18.948 C20.181,18.38 20.249,17.765 20.548,17.096 C20.714,16.666 21.314,16.115 22.349,15.446 C22.881,15.08 23.579,14.63 24.449,14.099 C24.883,13.835 25.284,13.766 25.65,13.898 z" fill="#F4D8E1" id="path332"/>
    <path d="M25.747,13.948 C26.147,14.015 26.382,14.215 26.45,14.548 C26.714,15.88 26.48,16.833 25.747,17.399 C23.682,19.23 22.266,20.114 21.499,20.05 C20.932,19.983 20.615,19.616 20.548,18.948 C20.45,18.415 20.517,17.834 20.747,17.199 C20.948,16.701 22.164,15.715 24.4,14.25 C24.864,13.948 25.317,13.849 25.747,13.948 z" fill="url(#Gradient_11)" id="path350"/>
    <path d="M23.101,18.098 C23.101,18.766 22.818,19.148 22.246,19.25 C21.749,19.348 21.465,19.084 21.396,18.449 C21.396,18.18 21.48,17.951 21.651,17.75 C21.816,17.516 22.016,17.385 22.246,17.35 C22.481,17.316 22.681,17.365 22.848,17.501 C23.018,17.668 23.101,17.863 23.101,18.098 z" fill="#CCA0AE" id="path352"/>
    <path d="M23.101,17.849 C23.13,18.116 23.066,18.366 22.901,18.6 C22.73,18.8 22.53,18.933 22.3,19 C22.066,19.064 21.865,19.015 21.7,18.849 C21.534,18.684 21.45,18.469 21.45,18.2 C21.45,17.931 21.534,17.698 21.7,17.501 C21.831,17.268 22.016,17.13 22.246,17.101 C22.481,17.068 22.681,17.116 22.847,17.248 C23.017,17.385 23.101,17.585 23.101,17.849 z" fill="url(#Gradient_12)" id="path370"/>
    <path d="M22.848,17.75 C22.848,18.318 22.618,18.635 22.149,18.698 C21.983,18.766 21.816,18.733 21.651,18.6 C21.514,18.469 21.45,18.283 21.45,18.049 C21.45,17.516 21.68,17.184 22.149,17.048 C22.315,17.014 22.481,17.068 22.646,17.199 C22.784,17.331 22.848,17.516 22.848,17.75 z" fill="url(#Gradient_13)" id="path388"/>
    <path d="M26.196,15.998 C26.265,16.564 26.05,16.916 25.547,17.048 C25.381,17.116 25.215,17.068 25.049,16.901 C24.917,16.73 24.849,16.535 24.849,16.3 C24.849,15.734 25.064,15.383 25.499,15.25 C25.699,15.216 25.865,15.265 25.996,15.398 C26.132,15.534 26.196,15.734 26.196,15.998 z" fill="#CCA0AE" id="path390"/>
    <path d="M26.25,15.749 C26.25,16.315 26.03,16.666 25.601,16.799 C25.401,16.866 25.23,16.818 25.098,16.648 C24.966,16.515 24.898,16.315 24.898,16.051 C24.829,15.48 25.049,15.134 25.548,15.001 C25.748,14.968 25.914,15.016 26.05,15.148 C26.183,15.28 26.25,15.48 26.25,15.749 z" fill="url(#Gradient_14)" id="path408"/>
    <path d="M25.996,15.646 C25.996,16.115 25.816,16.418 25.45,16.55 C25.084,16.613 24.898,16.398 24.898,15.9 C24.829,15.431 25.015,15.134 25.45,14.996 C25.816,14.934 25.996,15.148 25.996,15.646 z" fill="url(#Gradient_15)" id="path426"/>
    <path d="M19.298,15.5 C19.298,15.998 19.2,16.418 18.999,16.75 C18.765,17.081 18.496,17.248 18.199,17.248 C17.901,17.248 17.646,17.081 17.446,16.75 C17.218,16.418 17.1,15.998 17.1,15.5 C17.1,15.031 17.218,14.63 17.446,14.299 C17.646,13.966 17.901,13.8 18.199,13.8 C18.496,13.8 18.765,13.966 18.999,14.299 C19.2,14.63 19.298,15.031 19.298,15.5 z" fill="#805361" id="path428"/>
    <path d="M18.847,15.549 C18.847,15.915 18.765,16.218 18.599,16.448 C18.433,16.681 18.214,16.799 17.95,16.799 C17.715,16.799 17.5,16.681 17.3,16.448 C17.129,16.218 17.046,15.915 17.046,15.549 C17.046,15.183 17.129,14.865 17.3,14.601 C17.466,14.366 17.681,14.25 17.95,14.25 C18.214,14.25 18.433,14.366 18.599,14.601 C18.765,14.865 18.847,15.183 18.847,15.549 z" fill="url(#Gradient_16)" id="path448"/>
    <path d="M25.748,11.648 C25.748,12.081 25.684,12.468 25.548,12.8 C25.381,13.131 25.2,13.298 25,13.298 C24.8,13.298 24.629,13.131 24.498,12.8 C24.365,12.496 24.298,12.116 24.298,11.648 C24.298,10.583 24.531,10.05 25,10.05 C25.2,10.05 25.381,10.198 25.548,10.5 C25.684,10.831 25.748,11.218 25.748,11.648 z" fill="#805361" id="path450"/>
    <path d="M25.45,11.648 C25.45,12.448 25.249,12.849 24.849,12.849 C24.449,12.849 24.249,12.448 24.249,11.648 C24.249,10.846 24.449,10.446 24.849,10.446 C25.249,10.451 25.45,10.851 25.45,11.648 z" fill="url(#Gradient_17)" id="path470"/>
    <path d="M20.748,6.051 C18.048,7.55 16.665,8.469 16.597,8.8 C16.534,9.166 16.534,13.318 16.597,21.251 C16.568,22.951 16.334,24 15.899,24.401 L16.099,23.8 C16.196,23.531 16.231,21.53 16.196,17.8 C16.168,14.366 16.114,11.999 16.05,10.7 C15.981,9.601 15.914,8.966 15.85,8.8 C15.781,8.6 15.601,8.469 15.299,8.4 C14.898,8.298 12.066,7.98 6.798,7.448 L0.699,6.448 L8.296,7.248 C9.664,7.419 11.28,7.565 13.15,7.698 C14.981,7.834 16.03,7.868 16.299,7.8 C16.631,7.765 17.93,7.15 20.2,5.949 C21.665,5.183 23.214,4.284 24.849,3.249 C24.78,3.649 23.414,4.581 20.748,6.051 z" fill="#F4D8E1" id="path472"/>
    <g clip-path="url(#Clip_3)" id="g596">
      <path d="M16.185,14.725 C17.013,14.715 17.704,14.673 18.267,14.599 C18.853,14.523 19.146,14.434 19.146,14.331 C19.146,14.228 18.841,14.135 18.228,14.05 C17.61,13.976 16.864,13.938 15.986,13.938 C15.372,13.938 14.72,13.966 14.025,14.023 C14.4,14.135 14.864,14.318 15.427,14.57 L15.544,14.655 L16.185,14.725 z" fill="url(#Gradient_18)" id="path638"/>
    </g>
    <path d="M11.949,7.101 C11.783,6.599 11.798,5.783 11.998,4.65 C12.231,3.346 12.646,2.698 13.248,2.698 C14.18,2.698 14.981,3.513 15.65,5.148 C15.879,5.514 15.714,5.866 15.146,6.198 C14.18,6.799 13.599,7.096 13.399,7.096 L11.949,7.096 L11.949,7.101 z" fill="#F4D8E1" id="path640"/>
    <path d="M11.949,7.101 C11.949,6.3 12.031,5.514 12.198,4.748 C12.432,3.449 12.832,2.8 13.399,2.8 C14.297,2.8 15.132,3.649 15.899,5.349 C15.962,5.549 15.996,5.68 15.996,5.749 C15.962,5.915 15.766,6.115 15.401,6.349 C14.365,6.95 13.765,7.248 13.599,7.248 L11.949,7.101 z" fill="url(#Gradient_19)" id="path658"/>
    <path d="M15.699,5.198 C15.932,5.568 15.766,5.915 15.2,6.251 L13.847,7.15 L13.696,7.15 L13.599,7.199 C13.468,6.93 13.384,6.315 13.35,5.349 C13.316,4.348 13.365,3.718 13.496,3.449 C13.668,3.116 13.883,2.965 14.151,3 C14.649,3.366 15.166,4.099 15.699,5.198 z" fill="#F4D8E1" id="path660"/>
    <path d="M15.401,6.349 C14.365,6.95 13.765,7.248 13.599,7.248 C13.468,5.25 13.481,4.035 13.648,3.6 C13.814,3.269 14.034,3.098 14.298,3.098 C14.8,3.469 15.333,4.215 15.899,5.349 C15.963,5.549 15.996,5.68 15.996,5.749 C15.968,5.915 15.766,6.115 15.401,6.349 z" fill="url(#Gradient_20)" id="path678"/>
  </g>
</svg>
