<?xml version="1.0" encoding="UTF-8"?>
<!DOCTYPE svg PUBLIC "-//W3C//DTD SVG 1.1//EN" "http://www.w3.org/Graphics/SVG/1.1/DTD/svg11.dtd">
<svg version="1.1" xmlns="http://www.w3.org/2000/svg" xmlns:xlink="http://www.w3.org/1999/xlink" x="0" y="0" width="31.528" height="32.313" viewBox="0, 0, 31.528, 32.313">
  <defs>
    <clipPath id="Clip_1">
      <path d="M-0.995,-1.25 L32.534,-1.25 L32.534,33.563 L-0.995,33.563 z M8.86,2.751 C8.329,2.918 8.466,2.766 8.298,2.997 L8.251,3.059 L8.21,3.05 L8.117,3.155 L8.107,3.153 C7.715,3.611 7.916,3.331 7.557,4.03 C7.231,4.549 7.415,4.208 7.106,5.1 L7.09,5.195 C6.959,5.198 7.043,5.196 6.837,5.202 C5.704,5.202 4.854,5.422 4.288,5.852 L4.162,6.01 L4.157,6.007 L3.971,6.251 C3.917,6.318 3.864,6.386 3.81,6.453 C3.808,6.458 3.806,6.464 3.804,6.469 C3.564,6.782 3.726,6.546 3.459,7.257 C3.391,7.457 3.322,8.321 3.259,9.859 C3.204,12.134 3.224,14.411 3.212,16.687 C2.664,16.918 2.878,16.73 2.578,17.258 C2.469,18.223 2.364,19.338 3.21,20.032 L3.21,20.259 C3.24,20.758 3.391,21.207 3.659,21.607 C4.23,22.299 3.849,21.886 4.894,22.755 C5.043,23.259 5.175,23.77 5.369,24.26 C5.769,25.295 6.184,25.759 6.619,25.661 C7.421,25.167 7.081,25.477 7.644,24.734 C8.954,25.578 8.39,25.251 9.309,25.758 C9.619,25.913 9.497,25.86 9.667,25.932 C10.558,26.412 11.457,26.924 12.471,27.076 C12.684,27.833 12.572,27.476 12.802,28.149 C13.197,29.184 13.617,29.652 14.052,29.55 C15.114,29.083 15.547,27.873 15.95,26.865 C17.966,26.701 17.053,26.745 18.687,26.702 C19.757,26.628 20.824,26.518 21.886,26.36 C22.042,26.882 21.955,26.619 22.147,27.148 C22.548,28.178 22.968,28.647 23.397,28.545 C24.455,28.083 24.893,26.885 25.293,25.881 C26.528,25.702 26.014,25.78 26.837,25.652 C27.5,25.519 27.969,25.222 28.238,24.753 C28.57,24.089 28.75,22.737 28.785,20.705 C28.95,17.473 29.034,15.104 29.034,13.605 C29.004,10.934 28.619,9.353 27.887,8.854 C26.919,8.185 25.387,7.287 23.287,6.154 C20.753,4.753 19.117,4.035 18.384,4.005 L17.998,4.002 C16.185,4.097 14.381,4.297 12.584,4.553 C11.063,4.763 11.847,4.657 10.231,4.867 L10.11,4.398 C9.739,3.265 9.324,2.719 8.86,2.751 z"/>
    </clipPath>
    <filter id="Shadow_2">
      <feGaussianBlur in="SourceAlpha" stdDeviation="1.25"/>
      <feOffset dx="0" dy="0.5" result="offsetblur"/>
      <feFlood flood-color="#000000"/>
      <feComposite in2="offsetblur" operator="in"/>
    </filter>
    <linearGradient id="Gradient_1" gradientUnits="userSpaceOnUse" x1="373.388" y1="341.275" x2="375.158" y2="341.275" gradientTransform="matrix(0.999, -0.043, -0.043, -0.999, -336.6, 362.475)">
      <stop offset="0" stop-color="#E9A9BA"/>
      <stop offset="1" stop-color="#C47F91"/>
    </linearGradient>
    <linearGradient id="Gradient_2" gradientUnits="userSpaceOnUse" x1="-2109.796" y1="-13444.515" x2="-2087.747" y2="-13444.515" gradientTransform="matrix(0.307, 0.952, 0.952, -0.307, 13455, -2109.287)">
      <stop offset="0" stop-color="#E9A9BA"/>
      <stop offset="1" stop-color="#C47F91"/>
    </linearGradient>
    <linearGradient id="Gradient_3" gradientUnits="userSpaceOnUse" x1="372.974" y1="320.448" x2="374.735" y2="320.448" gradientTransform="matrix(0.999, -0.043, -0.043, -0.999, -336.6, 362.475)">
      <stop offset="0" stop-color="#E9A9BA"/>
      <stop offset="1" stop-color="#C47F91"/>
    </linearGradient>
    <linearGradient id="Gradient_4" gradientUnits="userSpaceOnUse" x1="363.644" y1="319.846" x2="365.405" y2="319.846" gradientTransform="matrix(0.999, -0.043, -0.043, -0.999, -336.6, 362.475)">
      <stop offset="0" stop-color="#E9A9BA"/>
      <stop offset="1" stop-color="#C47F91"/>
    </linearGradient>
    <linearGradient id="Gradient_5" gradientUnits="userSpaceOnUse" x1="356.338" y1="324.052" x2="358.099" y2="324.052" gradientTransform="matrix(0.999, -0.043, -0.043, -0.999, -336.6, 362.475)">
      <stop offset="0" stop-color="#E9A9BA"/>
      <stop offset="1" stop-color="#C47F91"/>
    </linearGradient>
    <linearGradient id="Gradient_6" gradientUnits="userSpaceOnUse" x1="-2110.029" y1="-13443.328" x2="-2089.301" y2="-13443.328" gradientTransform="matrix(0.307, 0.952, 0.952, -0.307, 13455, -2109.287)">
      <stop offset="0" stop-color="#E9A9BA"/>
      <stop offset="1" stop-color="#C47F91"/>
    </linearGradient>
    <linearGradient id="Gradient_7" gradientUnits="userSpaceOnUse" x1="-2380.254" y1="-12891.495" x2="-2356.853" y2="-12891.495" gradientTransform="matrix(0.357, 0.934, 0.934, -0.357, 12896.25, -2377.162)">
      <stop offset="0" stop-color="#C78F9F"/>
      <stop offset="1" stop-color="#9B6473"/>
    </linearGradient>
    <radialGradient id="Gradient_8" gradientUnits="userSpaceOnUse" cx="-3102.531" cy="-184.365" r="3.602" gradientTransform="matrix(0.999, 0.043, -0.051, 0.379, 1047.488, 191.551)">
      <stop offset="0" stop-color="#000000"/>
      <stop offset="0.867" stop-color="#000000"/>
      <stop offset="1" stop-color="#000000"/>
    </radialGradient>
    <clipPath id="Clip_3">
      <path d="M8.307,4.75 C7.472,4.819 6.789,4.97 6.257,5.199 C5.69,5.434 5.441,5.716 5.51,6.049 C5.544,6.386 5.891,6.649 6.56,6.85 C7.224,7.084 7.99,7.167 8.86,7.099 C9.46,7.099 10.09,7.001 10.759,6.801 C10.359,6.469 9.806,5.917 9.109,5.15 L9.006,4.95 L8.307,4.75 z"/>
    </clipPath>
    <linearGradient id="Gradient_9" gradientUnits="userSpaceOnUse" x1="-90.97" y1="-15495.403" x2="-87.449" y2="-15495.403" gradientTransform="matrix(0.1, 0.995, 1.004, -0.007, 15580, -8.193)">
      <stop offset="0" stop-color="#E9A9BA"/>
      <stop offset="1" stop-color="#C47F91"/>
    </linearGradient>
    <linearGradient id="Gradient_10" gradientUnits="userSpaceOnUse" x1="-85.998" y1="-15468.739" x2="-81.838" y2="-15468.739" gradientTransform="matrix(0.102, 0.995, 1.005, -0.006, 15558.75, 2.062)">
      <stop offset="0" stop-color="#C78F9F"/>
      <stop offset="1" stop-color="#9B6473"/>
    </linearGradient>
    <radialGradient id="Gradient_11" gradientUnits="userSpaceOnUse" cx="0.769" cy="-20.649" r="3.712" gradientTransform="matrix(1, 0, 0, 1, 5.985, 41.899)">
      <stop offset="0" stop-color="#000000"/>
      <stop offset="0.867" stop-color="#000000"/>
      <stop offset="1" stop-color="#000000"/>
    </radialGradient>
    <clipPath id="Clip_4">
      <path d="M3.21,17.352 L3.21,20.252 C3.24,20.751 3.391,21.2 3.659,21.6 C4.089,22.27 5.525,23.382 7.956,24.95 C9.089,24.852 9.855,24.432 10.256,23.7 C10.656,22.934 10.525,22.015 9.855,20.951 C9.157,19.881 8.127,19.002 6.76,18.3 C5.592,17.665 4.406,17.352 3.21,17.352 z"/>
    </clipPath>
    <linearGradient id="Gradient_12" gradientUnits="userSpaceOnUse" x1="-165.074" y1="-16168.956" x2="-161.624" y2="-16168.956" gradientTransform="matrix(0.022, 1, 1, -0.022, 16173.75, -174.725)">
      <stop offset="0" stop-color="#E9A9BA"/>
      <stop offset="1" stop-color="#C47F91"/>
    </linearGradient>
    <linearGradient id="Gradient_13" gradientUnits="userSpaceOnUse" x1="-2979.152" y1="-11191.948" x2="-2970.69" y2="-11191.948" gradientTransform="matrix(0.499, 0.867, 0.867, -0.499, 11190, -2983.662)">
      <stop offset="0" stop-color="#C78F9F"/>
      <stop offset="1" stop-color="#9B6473"/>
    </linearGradient>
    <linearGradient id="Gradient_14" gradientUnits="userSpaceOnUse" x1="15863.562" y1="-1075.969" x2="15865.521" y2="-1075.969" gradientTransform="matrix(-0.124, -0.992, -1.017, -0.075, 880.037, 15681.713)">
      <stop offset="0" stop-color="#9C6877"/>
      <stop offset="1" stop-color="#905D6A"/>
    </linearGradient>
    <linearGradient id="Gradient_15" gradientUnits="userSpaceOnUse" x1="15908.672" y1="-1142.274" x2="15909.649" y2="-1142.274" gradientTransform="matrix(-0.131, -0.991, -1.018, -0.07, 931.475, 15711.713)">
      <stop offset="0" stop-color="#754E5A"/>
      <stop offset="1" stop-color="#4E3238"/>
    </linearGradient>
    <linearGradient id="Gradient_16" gradientUnits="userSpaceOnUse" x1="15844.97" y1="-1147.94" x2="15846.931" y2="-1147.94" gradientTransform="matrix(-0.132, -0.991, -1.02, -0.08, 927.375, 15634.213)">
      <stop offset="0" stop-color="#9C6877"/>
      <stop offset="1" stop-color="#905D6A"/>
    </linearGradient>
    <linearGradient id="Gradient_17" gradientUnits="userSpaceOnUse" x1="15862.077" y1="-1073.11" x2="15863.056" y2="-1073.11" gradientTransform="matrix(-0.124, -0.992, -1.017, -0.075, 879.463, 15677.963)">
      <stop offset="0" stop-color="#754E5A"/>
      <stop offset="1" stop-color="#4E3238"/>
    </linearGradient>
    <linearGradient id="Gradient_18" gradientUnits="userSpaceOnUse" x1="544.41" y1="-16855.959" x2="547.17" y2="-16855.959" gradientTransform="matrix(-0.064, 0.998, 0.998, 0.064, 16861.25, 540.651)">
      <stop offset="0" stop-color="#5F4E29"/>
      <stop offset="0.859" stop-color="#271D09"/>
      <stop offset="1" stop-color="#271D09"/>
    </linearGradient>
    <radialGradient id="Gradient_19" gradientUnits="userSpaceOnUse" cx="3.398" cy="-12.453" r="3.95" gradientTransform="matrix(1, 0, 0, 0.351, 5.985, 13.481)">
      <stop offset="0" stop-color="#000000"/>
      <stop offset="0.867" stop-color="#000000"/>
      <stop offset="1" stop-color="#000000"/>
    </radialGradient>
    <clipPath id="Clip_5">
      <path d="M14.709,7.703 C13.674,7.738 12.81,7.889 12.106,8.153 C11.374,8.421 11.007,8.738 11.007,9.104 C11.007,9.47 11.389,9.803 12.155,10.105 C12.927,10.369 13.86,10.505 14.957,10.505 C15.725,10.505 16.54,10.403 17.409,10.203 C16.94,9.803 16.36,9.153 15.656,8.255 L15.51,7.953 L14.709,7.703 z"/>
    </clipPath>
    <linearGradient id="Gradient_20" gradientUnits="userSpaceOnUse" x1="-1077.602" y1="-15097.773" x2="-1073.164" y2="-15097.773" gradientTransform="matrix(0.142, 0.99, 0.99, -0.142, 15112.5, -1074.8)">
      <stop offset="0" stop-color="#E9A9BA"/>
      <stop offset="1" stop-color="#C47F91"/>
    </linearGradient>
    <linearGradient id="Gradient_21" gradientUnits="userSpaceOnUse" x1="-1062.401" y1="-15118.131" x2="-1056.957" y2="-15118.131" gradientTransform="matrix(0.14, 0.99, 0.99, -0.14, 15132.5, -1059.699)">
      <stop offset="0" stop-color="#C78F9F"/>
      <stop offset="1" stop-color="#9B6473"/>
    </linearGradient>
  </defs>
  <g id="Layer_1">
    <g>
      <path d="M8.86,2.751 C9.324,2.719 9.739,3.265 10.11,4.398 L10.231,4.867 C11.847,4.657 11.063,4.763 12.584,4.553 C14.381,4.297 16.185,4.097 17.998,4.002 L18.384,4.005 C19.117,4.035 20.753,4.753 23.287,6.154 C25.387,7.287 26.919,8.185 27.887,8.854 C28.619,9.353 29.004,10.934 29.034,13.605 C29.034,15.104 28.95,17.473 28.785,20.705 C28.75,22.737 28.57,24.089 28.238,24.753 C27.969,25.222 27.5,25.519 26.837,25.652 C26.014,25.78 26.528,25.702 25.293,25.881 C24.893,26.885 24.455,28.083 23.397,28.545 C22.968,28.647 22.548,28.178 22.147,27.148 C21.955,26.619 22.042,26.882 21.886,26.36 C20.824,26.518 19.757,26.628 18.687,26.702 C17.053,26.745 17.966,26.701 15.95,26.865 C15.547,27.873 15.114,29.083 14.052,29.55 C13.617,29.652 13.197,29.184 12.802,28.149 C12.572,27.476 12.684,27.833 12.471,27.076 C11.457,26.924 10.558,26.412 9.667,25.932 C9.497,25.86 9.619,25.913 9.309,25.758 C8.39,25.251 8.954,25.578 7.644,24.734 C7.081,25.477 7.421,25.167 6.619,25.661 C6.184,25.759 5.769,25.295 5.369,24.26 C5.175,23.77 5.043,23.259 4.894,22.755 C3.849,21.886 4.23,22.299 3.659,21.607 C3.391,21.207 3.24,20.758 3.21,20.259 L3.21,20.032 C2.364,19.338 2.469,18.223 2.578,17.258 C2.878,16.73 2.664,16.918 3.212,16.687 C3.224,14.411 3.204,12.134 3.259,9.859 C3.322,8.321 3.391,7.457 3.459,7.257 C3.726,6.546 3.564,6.782 3.804,6.469 C3.806,6.464 3.808,6.458 3.81,6.453 C3.864,6.386 3.917,6.318 3.971,6.251 L4.157,6.007 L4.162,6.01 L4.288,5.852 C4.854,5.422 5.704,5.202 6.837,5.202 C7.043,5.196 6.959,5.198 7.09,5.195 L7.106,5.1 C7.415,4.208 7.231,4.549 7.557,4.03 C7.916,3.331 7.715,3.611 8.107,3.153 L8.117,3.155 L8.21,3.05 L8.251,3.059 L8.298,2.997 C8.466,2.766 8.329,2.918 8.86,2.751 z" clip-path="url(#Clip_1)" filter="url(#Shadow_2)" fill="rgba(0,0,0,0.5)"/>
      <path d="M8.86,2.751 C9.324,2.719 9.739,3.265 10.11,4.398 L10.231,4.867 C11.847,4.657 11.063,4.763 12.584,4.553 C14.381,4.297 16.185,4.097 17.998,4.002 L18.384,4.005 C19.117,4.035 20.753,4.753 23.287,6.154 C25.387,7.287 26.919,8.185 27.887,8.854 C28.619,9.353 29.004,10.934 29.034,13.605 C29.034,15.104 28.95,17.473 28.785,20.705 C28.75,22.737 28.57,24.089 28.238,24.753 C27.969,25.222 27.5,25.519 26.837,25.652 C26.014,25.78 26.528,25.702 25.293,25.881 C24.893,26.885 24.455,28.083 23.397,28.545 C22.968,28.647 22.548,28.178 22.147,27.148 C21.955,26.619 22.042,26.882 21.886,26.36 C20.824,26.518 19.757,26.628 18.687,26.702 C17.053,26.745 17.966,26.701 15.95,26.865 C15.547,27.873 15.114,29.083 14.052,29.55 C13.617,29.652 13.197,29.184 12.802,28.149 C12.572,27.476 12.684,27.833 12.471,27.076 C11.457,26.924 10.558,26.412 9.667,25.932 C9.497,25.86 9.619,25.913 9.309,25.758 C8.39,25.251 8.954,25.578 7.644,24.734 C7.081,25.477 7.421,25.167 6.619,25.661 C6.184,25.759 5.769,25.295 5.369,24.26 C5.175,23.77 5.043,23.259 4.894,22.755 C3.849,21.886 4.23,22.299 3.659,21.607 C3.391,21.207 3.24,20.758 3.21,20.259 L3.21,20.032 C2.364,19.338 2.469,18.223 2.578,17.258 C2.878,16.73 2.664,16.918 3.212,16.687 C3.224,14.411 3.204,12.134 3.259,9.859 C3.322,8.321 3.391,7.457 3.459,7.257 C3.726,6.546 3.564,6.782 3.804,6.469 C3.806,6.464 3.808,6.458 3.81,6.453 C3.864,6.386 3.917,6.318 3.971,6.251 L4.157,6.007 L4.162,6.01 L4.288,5.852 C4.854,5.422 5.704,5.202 6.837,5.202 C7.043,5.196 6.959,5.198 7.09,5.195 L7.106,5.1 C7.415,4.208 7.231,4.549 7.557,4.03 C7.916,3.331 7.715,3.611 8.107,3.153 L8.117,3.155 L8.21,3.05 L8.251,3.059 L8.298,2.997 C8.466,2.766 8.329,2.918 8.86,2.751 z" fill="url(#Gradient_1)"/>
    </g>
    <g>
      <path d="M17.481,3.993 C13.911,4.077 10.377,4.642 6.858,5.204 L6.857,5.204 C5.725,5.204 4.875,5.424 4.309,5.854 C3.812,6.479 3.927,6.218 3.797,6.541 C3.613,6.781 3.764,6.573 3.507,7.255 C3.453,7.551 3.464,7.437 3.452,7.594 C3.445,7.634 3.449,7.605 3.445,7.681 C3.33,9.172 3.374,8.447 3.307,9.858 C3.274,10.923 3.259,13.905 3.259,18.808 L3.259,20.258 C3.289,20.757 3.44,21.205 3.707,21.605 C4.245,22.257 3.897,21.884 4.822,22.653 C5.233,24.034 5.045,23.49 5.339,24.301 C5.739,25.336 6.154,25.8 6.589,25.702 C7.078,25.557 7.412,25.138 7.655,24.708 C9.002,25.576 8.426,25.242 9.357,25.757 C11.108,26.685 10.104,26.218 12.409,27.069 C12.624,27.833 12.511,27.474 12.742,28.149 C13.137,29.184 13.557,29.652 13.992,29.55 C15.054,29.095 15.487,27.871 15.888,26.872 C16.825,26.755 17.766,26.728 18.707,26.704 C19.753,26.649 20.792,26.515 21.829,26.373 C21.982,26.886 21.896,26.626 22.087,27.152 C22.488,28.182 22.908,28.651 23.337,28.549 C24.394,28.1 24.83,26.889 25.228,25.896 C26.549,25.704 26.007,25.788 26.857,25.654 C27.521,25.522 27.99,25.224 28.259,24.755 C28.591,24.092 28.771,22.739 28.806,20.708 C28.971,17.475 29.055,15.107 29.055,13.608 C29.002,12.212 29.036,10.717 28.36,9.456 L28.405,9.458 L28.222,9.199 C28.111,8.992 28.195,9.121 27.909,8.858 L27.908,8.857 C26.94,8.188 25.407,7.289 23.307,6.157 C20.774,4.755 19.137,4.038 18.405,4.008 L17.481,3.993 z" fill="url(#Gradient_2)"/>
    </g>
    <path d="M25.999,23.945 L21.298,24.297 C21.698,25.796 21.982,26.747 22.147,27.148 C22.548,28.178 22.968,28.647 23.397,28.545 C24.232,28.345 25.102,26.811 25.999,23.945 z" fill="url(#Gradient_3)" id="path106"/>
    <path d="M16.649,24.95 L12,25.301 C12.333,26.669 12.602,27.616 12.802,28.149 C13.197,29.184 13.617,29.652 14.052,29.55 C14.882,29.35 15.75,27.816 16.649,24.95 z" fill="url(#Gradient_4)" id="path124"/>
    <path d="M9.217,21.061 L4.519,21.408 C4.919,22.908 5.203,23.859 5.369,24.26 C5.769,25.295 6.184,25.759 6.619,25.661 C7.449,25.46 8.318,23.928 9.217,21.061 z" fill="url(#Gradient_5)" id="path142"/>
    <path d="M4.288,5.852 C3.917,6.188 3.653,6.652 3.487,7.253 C3.32,7.785 3.238,11.638 3.238,18.805 L3.238,20.255 C3.268,20.754 3.419,21.203 3.687,21.603 C3.95,22.038 4.854,22.785 6.388,23.854 C7.754,24.822 8.735,25.452 9.337,25.754 C10.968,26.687 12.237,27.155 13.135,27.155 C15.538,26.853 17.383,26.702 18.687,26.702 C19.454,26.672 20.904,26.505 23.038,26.203 C25.167,25.905 26.437,25.719 26.837,25.652 C27.5,25.519 27.969,25.222 28.238,24.753 C28.57,24.089 28.75,22.737 28.785,20.705 C28.95,17.473 29.034,15.104 29.034,13.605 C29.004,10.934 28.619,9.353 27.887,8.854 C26.919,8.185 25.387,7.287 23.287,6.154 C20.753,4.753 19.117,4.035 18.384,4.005 C17.485,3.972 15.553,4.152 12.584,4.553 C9.488,4.987 7.569,5.202 6.837,5.202 C5.704,5.202 4.854,5.422 4.288,5.852 z" fill="url(#Gradient_6)" id="path160"/>
    <path d="M3.259,9.859 C3.225,10.924 3.21,13.907 3.21,18.809 L3.21,20.259 C3.24,20.758 3.391,21.207 3.659,21.607 C3.922,22.042 4.826,22.789 6.36,23.858 C7.726,24.826 8.707,25.456 9.309,25.758 C9.606,25.924 10.241,26.192 11.207,26.558 C12.175,26.924 12.81,27.124 13.107,27.159 C12.775,26.491 12.624,25.772 12.659,25.006 L12.756,11.007 L12.659,10.856 C12.492,10.689 11.574,10.192 9.909,9.357 C8.107,8.492 6.94,7.872 6.409,7.506 C5.007,6.607 4.26,6.109 4.157,6.007 C3.791,6.373 3.556,6.793 3.459,7.257 C3.391,7.457 3.322,8.321 3.259,9.859 z" fill="url(#Gradient_7)" id="path178"/>
    <path d="M5.656,7.204 C6.159,7.502 7.457,8.17 9.557,9.202 C11.422,10.104 12.457,10.652 12.659,10.852 C13.522,10.788 16.422,10.485 21.36,9.953 C25.09,9.553 27.424,9.387 28.356,9.455 C28.19,9.187 28.025,8.987 27.859,8.854 C26.891,8.185 25.359,7.287 23.259,6.154 C20.725,4.753 19.089,4.035 18.356,4.005 C16.091,3.903 12.239,4.304 6.809,5.202 C5.374,5.402 4.49,5.67 4.157,6.003 C4.592,6.438 5.09,6.838 5.656,7.204 z" fill="#ECB9C9" id="path180"/>
    <g clip-path="url(#Clip_3)" id="g184">
      <path d="M-1032.765,197.86 C-1033.436,197.868 -1033.988,197.846 -1034.422,197.795 C-1034.885,197.744 -1035.096,197.667 -1035.055,197.563 C-1035.041,197.46 -1034.775,197.368 -1034.248,197.284 C-1033.727,197.19 -1033.118,197.138 -1032.42,197.129 C-1031.941,197.108 -1031.433,197.115 -1030.89,197.153 C-1031.196,197.268 -1031.615,197.454 -1032.141,197.711 L-1032.215,197.775 L-1032.765,197.86 z" fill="url(#Gradient_8)" id="path226"/>
    </g>
    <path d="M10.456,6.502 C10.49,6.034 10.374,5.336 10.11,4.399 C9.739,3.265 9.324,2.719 8.86,2.752 C8.156,2.782 7.624,3.52 7.257,4.95 C7.126,5.282 7.292,5.585 7.756,5.849 C8.625,6.317 9.142,6.551 9.309,6.551 L10.456,6.502 z" fill="#F4D8E1" id="path228"/>
    <path d="M10.456,6.502 C9.957,4.032 9.391,2.816 8.757,2.85 C8.059,2.885 7.507,3.631 7.106,5.101 C6.975,5.434 7.141,5.731 7.61,6 C8.474,6.469 8.991,6.699 9.157,6.699 L10.456,6.502 z" fill="url(#Gradient_9)" id="path246"/>
    <path d="M8.909,6.6 L9.109,6.6 C9.177,6.366 9.157,5.834 9.06,4.999 C8.991,4.169 8.889,3.631 8.757,3.402 C8.625,3.134 8.44,3.016 8.21,3.051 C7.874,3.349 7.541,4.002 7.209,4.999 C7.141,5.336 7.326,5.619 7.756,5.849 L8.909,6.6 z" fill="#F4D8E1" id="path248"/>
    <path d="M7.61,6.004 C8.474,6.473 8.991,6.703 9.157,6.703 C9.025,4.974 8.86,3.919 8.659,3.553 C8.459,3.255 8.274,3.118 8.107,3.153 C7.775,3.455 7.439,4.104 7.106,5.105 C6.975,5.438 7.141,5.735 7.61,6.004 z" fill="url(#Gradient_10)" id="path266"/>
    <g clip-path="url(#Clip_4)" id="g270">
      <path d="M3.622,49.518 L3.622,47.198 C3.646,46.799 3.767,46.44 3.981,46.12 C4.325,45.584 5.474,44.694 7.419,43.44 C8.325,43.518 8.938,43.854 9.259,44.44 C9.579,45.053 9.474,45.788 8.938,46.639 C8.38,47.495 7.556,48.198 6.462,48.76 C5.528,49.268 4.579,49.518 3.622,49.518 z" fill="url(#Gradient_11)" id="path312"/>
    </g>
    <path d="M3.86,16.502 C3.156,16.6 2.775,16.815 2.707,17.152 C2.472,18.016 2.99,18.949 4.26,19.95 C4.89,20.649 5.407,21.2 5.807,21.6 C6.506,22.367 7.072,22.767 7.507,22.801 C8.405,22.865 8.991,22.499 9.26,21.699 C9.49,21.069 9.49,20.419 9.26,19.75 C9.025,19.086 7.81,18.1 5.607,16.801 C5.139,16.502 4.557,16.4 3.86,16.502 z" fill="url(#Gradient_12)" id="path330"/>
    <path d="M3.356,16.649 C3.025,16.751 2.81,16.981 2.707,17.347 C2.639,17.747 2.775,18.349 3.107,19.149 C3.376,19.784 3.489,20.082 3.459,20.047 C5.392,21.917 6.726,22.801 7.457,22.699 C8.092,22.631 8.489,22.299 8.659,21.699 C8.825,21.131 8.757,20.516 8.459,19.847 C8.292,19.417 7.692,18.866 6.657,18.197 C6.125,17.831 5.427,17.381 4.557,16.85 C4.124,16.586 3.722,16.517 3.356,16.649 z" fill="#F4D8E1" id="path332"/>
    <path d="M3.281,16.658 C2.881,16.725 2.646,16.925 2.578,17.258 C2.314,18.59 2.548,19.543 3.281,20.109 C5.346,21.94 6.762,22.824 7.529,22.76 C8.096,22.693 8.413,22.326 8.481,21.658 C8.578,21.125 8.511,20.544 8.281,19.909 C8.081,19.411 6.864,18.425 4.628,16.96 C4.164,16.658 3.711,16.559 3.281,16.658 z" fill="url(#Gradient_13)" id="path350"/>
    <path d="M5.905,20.849 C5.905,21.517 6.189,21.899 6.76,22.001 C7.257,22.099 7.541,21.835 7.61,21.2 C7.61,20.931 7.526,20.702 7.355,20.501 C7.19,20.267 6.99,20.136 6.76,20.101 C6.525,20.067 6.325,20.116 6.159,20.252 C5.989,20.419 5.905,20.614 5.905,20.849 z" fill="#CCA0AE" id="path352"/>
    <path d="M5.905,20.6 C5.876,20.867 5.94,21.117 6.105,21.351 C6.276,21.551 6.476,21.684 6.706,21.751 C6.94,21.815 7.141,21.766 7.306,21.6 C7.472,21.435 7.556,21.22 7.556,20.951 C7.556,20.682 7.472,20.449 7.306,20.252 C7.175,20.019 6.99,19.881 6.76,19.852 C6.525,19.819 6.325,19.867 6.159,19.999 C5.989,20.136 5.905,20.336 5.905,20.6 z" fill="url(#Gradient_14)" id="path370"/>
    <path d="M6.159,20.501 C6.159,21.069 6.389,21.386 6.857,21.449 C7.024,21.517 7.19,21.484 7.355,21.351 C7.492,21.22 7.556,21.034 7.556,20.8 C7.556,20.267 7.326,19.935 6.857,19.799 C6.691,19.765 6.525,19.819 6.36,19.95 C6.222,20.082 6.159,20.267 6.159,20.501 z" fill="url(#Gradient_15)" id="path388"/>
    <path d="M2.81,18.749 C2.741,19.315 2.956,19.667 3.459,19.799 C3.625,19.867 3.791,19.819 3.957,19.652 C4.089,19.481 4.157,19.286 4.157,19.051 C4.157,18.485 3.942,18.134 3.507,18.001 C3.307,17.967 3.141,18.016 3.01,18.149 C2.874,18.285 2.81,18.485 2.81,18.749 z" fill="#CCA0AE" id="path390"/>
    <path d="M2.756,18.5 C2.756,19.066 2.976,19.417 3.405,19.55 C3.605,19.617 3.776,19.569 3.909,19.399 C4.04,19.266 4.109,19.066 4.109,18.802 C4.177,18.231 3.957,17.885 3.459,17.752 C3.259,17.719 3.092,17.767 2.956,17.899 C2.824,18.031 2.756,18.231 2.756,18.5 z" fill="url(#Gradient_16)" id="path408"/>
    <path d="M3.01,18.397 C3.01,18.866 3.19,19.169 3.556,19.301 C3.922,19.364 4.109,19.149 4.109,18.651 C4.177,18.182 3.991,17.885 3.556,17.747 C3.19,17.685 3.01,17.899 3.01,18.397 z" fill="url(#Gradient_17)" id="path426"/>
    <path d="M9.709,18.251 C9.709,18.749 9.806,19.169 10.007,19.501 C10.241,19.832 10.51,19.999 10.807,19.999 C11.105,19.999 11.36,19.832 11.56,19.501 C11.789,19.169 11.906,18.749 11.906,18.251 C11.906,17.782 11.789,17.381 11.56,17.05 C11.36,16.717 11.105,16.551 10.807,16.551 C10.51,16.551 10.241,16.717 10.007,17.05 C9.806,17.381 9.709,17.782 9.709,18.251 z" fill="#805361" id="path428"/>
    <path d="M10.139,18.299 C10.139,18.665 10.221,18.968 10.387,19.198 C10.554,19.431 10.772,19.549 11.036,19.549 C11.271,19.549 11.486,19.431 11.686,19.198 C11.857,18.968 11.94,18.665 11.94,18.299 C11.94,17.933 11.857,17.615 11.686,17.351 C11.52,17.116 11.305,17 11.036,17 C10.772,17 10.554,17.116 10.387,17.351 C10.221,17.615 10.139,17.933 10.139,18.299 z" fill="#281E0A" id="path448"/>
    <path d="M3.259,14.399 C3.259,14.832 3.322,15.219 3.459,15.551 C3.625,15.882 3.806,16.049 4.006,16.049 C4.206,16.049 4.377,15.882 4.509,15.551 C4.641,15.247 4.709,14.867 4.709,14.399 C4.709,13.334 4.475,12.801 4.006,12.801 C3.806,12.801 3.625,12.949 3.459,13.251 C3.322,13.582 3.259,13.969 3.259,14.399 z" fill="#805361" id="path450"/>
    <path d="M3.556,14.399 C3.556,15.199 3.757,15.6 4.157,15.6 C4.557,15.6 4.757,15.199 4.757,14.399 C4.757,13.597 4.557,13.197 4.157,13.197 C3.757,13.202 3.556,13.602 3.556,14.399 z" fill="url(#Gradient_18)" id="path470"/>
    <path d="M8.259,8.802 C10.959,10.301 12.341,11.22 12.409,11.551 C12.472,11.917 12.472,16.069 12.409,24.002 C12.439,25.702 12.672,26.751 13.107,27.152 L12.907,26.551 C12.81,26.282 12.775,24.281 12.81,20.551 C12.839,17.117 12.892,14.75 12.956,13.451 C13.025,12.352 13.092,11.717 13.156,11.551 C13.225,11.351 13.405,11.22 13.707,11.151 C14.109,11.049 16.94,10.731 22.209,10.199 L28.307,9.199 L20.71,9.999 C19.342,10.17 17.726,10.316 15.856,10.449 C14.025,10.585 12.976,10.619 12.707,10.551 C12.375,10.516 11.076,9.901 8.806,8.7 C7.341,7.934 5.792,7.035 4.157,6 C4.226,6.4 5.592,7.332 8.259,8.802 z" fill="#F4D8E1" id="path472"/>
    <g clip-path="url(#Clip_5)" id="g596">
      <path d="M12.821,17.48 C11.993,17.47 11.302,17.428 10.739,17.354 C10.153,17.278 9.86,17.189 9.86,17.086 C9.86,16.983 10.165,16.89 10.778,16.805 C11.396,16.731 12.142,16.693 13.02,16.693 C13.634,16.693 14.286,16.721 14.981,16.778 C14.606,16.89 14.142,17.073 13.579,17.325 L13.462,17.41 L12.821,17.48 z" fill="url(#Gradient_19)" id="path638"/>
    </g>
    <path d="M17.057,9.852 C17.224,9.35 17.209,8.534 17.009,7.401 C16.775,6.097 16.36,5.449 15.759,5.449 C14.826,5.449 14.025,6.264 13.356,7.899 C13.127,8.265 13.292,8.617 13.86,8.949 C14.826,9.55 15.407,9.847 15.607,9.847 L17.057,9.847 L17.057,9.852 z" fill="#F4D8E1" id="path640"/>
    <path d="M17.057,9.852 C17.057,9.051 16.975,8.265 16.809,7.499 C16.574,6.2 16.174,5.551 15.607,5.551 C14.709,5.551 13.874,6.4 13.107,8.1 C13.044,8.3 13.01,8.431 13.01,8.5 C13.044,8.666 13.24,8.866 13.605,9.1 C14.641,9.701 15.241,9.999 15.407,9.999 L17.057,9.852 z" fill="url(#Gradient_20)" id="path658"/>
    <path d="M13.307,7.949 C13.074,8.319 13.24,8.666 13.806,9.002 L15.159,9.901 L15.31,9.901 L15.407,9.95 C15.539,9.681 15.622,9.066 15.656,8.1 C15.69,7.099 15.641,6.469 15.51,6.2 C15.339,5.867 15.124,5.716 14.855,5.751 C14.357,6.117 13.84,6.85 13.307,7.949 z" fill="#F4D8E1" id="path660"/>
    <path d="M13.605,9.1 C14.641,9.701 15.241,9.999 15.407,9.999 C15.539,8.001 15.525,6.786 15.359,6.351 C15.192,6.02 14.972,5.849 14.709,5.849 C14.206,6.22 13.674,6.966 13.107,8.1 C13.044,8.3 13.01,8.431 13.01,8.5 C13.039,8.666 13.24,8.866 13.605,9.1 z" fill="url(#Gradient_21)" id="path678"/>
  </g>
</svg>
