<?xml version="1.0" encoding="UTF-8"?>
<!DOCTYPE svg PUBLIC "-//W3C//DTD SVG 1.1//EN" "http://www.w3.org/Graphics/SVG/1.1/DTD/svg11.dtd">
<svg version="1.1" xmlns="http://www.w3.org/2000/svg" xmlns:xlink="http://www.w3.org/1999/xlink" x="0" y="0" width="28.87" height="26.987" viewBox="0, 0, 28.87, 26.987">
  <defs>
    <linearGradient id="Gradient_1" gradientUnits="userSpaceOnUse" x1="362.687" y1="323.979" x2="364.437" y2="323.979" gradientTransform="matrix(0.999, -0.043, -0.043, -0.999, -336.688, 356.749)">
      <stop offset="0" stop-color="#D1D94C"/>
      <stop offset="1" stop-color="#8E942B"/>
    </linearGradient>
    <linearGradient id="Gradient_2" gradientUnits="userSpaceOnUse" x1="366.147" y1="322.929" x2="367.897" y2="322.929" gradientTransform="matrix(0.999, -0.043, -0.043, -0.999, -336.688, 356.749)">
      <stop offset="0" stop-color="#D1D94C"/>
      <stop offset="1" stop-color="#8E942B"/>
    </linearGradient>
    <linearGradient id="Gradient_3" gradientUnits="userSpaceOnUse" x1="369.967" y1="322.169" x2="371.717" y2="322.169" gradientTransform="matrix(0.999, -0.043, -0.043, -0.999, -336.688, 356.749)">
      <stop offset="0" stop-color="#D1D94C"/>
      <stop offset="1" stop-color="#8E942B"/>
    </linearGradient>
    <linearGradient id="Gradient_4" gradientUnits="userSpaceOnUse" x1="-2109.566" y1="-13448.861" x2="-2089.166" y2="-13448.861" gradientTransform="matrix(0.307, 0.952, 0.952, -0.307, 13457.5, -2111.639)">
      <stop offset="0" stop-color="#D1D94C"/>
      <stop offset="1" stop-color="#8E942B"/>
    </linearGradient>
    <linearGradient id="Gradient_5" gradientUnits="userSpaceOnUse" x1="-2372.425" y1="-12883.771" x2="-2351.725" y2="-12883.771" gradientTransform="matrix(0.357, 0.934, 0.934, -0.357, 12898.75, -2379.639)">
      <stop offset="0" stop-color="#D1D94C"/>
      <stop offset="1" stop-color="#8E942B"/>
    </linearGradient>
    <linearGradient id="Gradient_6" gradientUnits="userSpaceOnUse" x1="-4.208" y1="-4.218" x2="19.993" y2="-4.218" gradientTransform="matrix(1, 0, 0, -1, 5.985, -0.785)">
      <stop offset="0" stop-color="#F1FA57"/>
      <stop offset="1" stop-color="#B7C038"/>
    </linearGradient>
    <linearGradient id="Gradient_7" gradientUnits="userSpaceOnUse" x1="512.472" y1="-16809.1" x2="515.432" y2="-16809.1" gradientTransform="matrix(-0.059, 0.998, 0.998, 0.059, 16828.75, 500.849)">
      <stop offset="0" stop-color="#5F4E29"/>
      <stop offset="0.859" stop-color="#271D09"/>
      <stop offset="1" stop-color="#271D09"/>
    </linearGradient>
    <linearGradient id="Gradient_8" gradientUnits="userSpaceOnUse" x1="545.864" y1="-16835.098" x2="548.614" y2="-16835.098" gradientTransform="matrix(-0.064, 0.998, 0.998, 0.064, 16862.5, 538.086)">
      <stop offset="0" stop-color="#5F4E29"/>
      <stop offset="0.859" stop-color="#271D09"/>
      <stop offset="1" stop-color="#271D09"/>
    </linearGradient>
  </defs>
  <g id="Layer_1">
    <path d="M10.776,15.215 L15.425,15.566 C15.093,16.928 14.824,17.881 14.624,18.412 C14.229,19.447 13.809,19.916 13.374,19.813 C12.544,19.613 11.68,18.081 10.776,15.215 z" fill="url(#Gradient_1)" id="path106"/>
    <path d="M14.278,16.112 L18.926,16.465 C18.594,17.831 18.325,18.778 18.125,19.316 C17.725,20.346 17.31,20.815 16.875,20.712 C16.045,20.512 15.176,18.983 14.278,16.112 z" fill="url(#Gradient_2)" id="path124"/>
    <path d="M18.125,16.713 L22.779,17.065 C22.446,18.432 22.178,19.38 21.978,19.916 C21.578,20.947 21.163,21.416 20.728,21.313 C19.893,21.112 19.029,19.58 18.125,16.713 z" fill="url(#Gradient_3)" id="path142"/>
    <path d="M25.825,1.865 C26.196,2.162 26.48,2.631 26.68,3.266 C26.845,3.798 26.929,7.646 26.929,14.813 L26.929,16.265 C26.895,16.762 26.743,17.216 26.48,17.617 C26.176,18.046 25.259,18.798 23.725,19.862 C22.393,20.83 21.426,21.465 20.825,21.762 C19.263,22.631 18.028,23.095 17.129,23.163 L16.025,24.565 C15.528,25.233 14.761,25.678 13.725,25.912 C12.93,26.147 12.211,26.201 11.578,26.063 C11.176,25.996 11.109,25.732 11.378,25.263 C11.509,25.033 11.729,24.731 12.026,24.365 C12.261,23.93 12.295,23.383 12.129,22.715 L11.729,22.715 L10.128,24.013 C9.029,24.78 7.646,25.233 5.976,25.366 C5.41,25.4 5.244,25.146 5.479,24.613 C5.879,24.013 6.109,23.632 6.176,23.466 C6.411,22.997 6.445,22.548 6.279,22.113 L6.025,22.065 L3.379,23.212 C1.743,23.916 0.645,24.067 0.078,23.666 C-0.054,23.563 0.059,23.33 0.43,22.963 C0.928,22.5 1.211,22.162 1.279,21.962 C1.445,21.498 1.529,20.678 1.529,19.516 C1.46,19.013 1.396,18.081 1.328,16.713 C1.196,13.481 1.128,11.112 1.128,9.613 C1.163,6.947 1.543,5.366 2.275,4.862 C3.145,4.233 4.678,3.33 6.875,2.162 C9.409,0.766 11.025,0.048 11.729,0.015 C12.661,-0.02 14.595,0.166 17.529,0.566 C20.659,1.001 22.593,1.216 23.325,1.216 C24.429,1.216 25.259,1.43 25.825,1.865 z" fill="url(#Gradient_4)" id="path160"/>
    <path d="M11.729,22.715 L10.128,24.013 C9.029,24.78 7.646,25.233 5.976,25.366 C5.376,25.4 5.244,25.097 5.576,24.462 C6.279,24.633 7.129,24.462 8.125,23.965 C9.526,23.296 10.894,22.216 12.226,20.712 C12.828,22.046 12.91,22.963 12.475,23.466 L12.226,23.716 L12.129,22.715 L11.729,22.715 z" fill="#878B1F" id="path162"/>
    <path d="M14.375,24.462 C15.708,23.696 16.66,23.066 17.226,22.563 L16.328,24.213 L16.025,24.565 C15.528,25.233 14.761,25.678 13.725,25.912 C12.93,26.147 12.211,26.201 11.578,26.063 C11.109,25.966 11.079,25.648 11.48,25.117 C12.344,25.282 13.31,25.068 14.375,24.462 z" fill="#878B1F" id="path164"/>
    <path d="M4.478,21.616 L6.378,20.215 L6.378,20.663 C6.378,21.03 6.328,21.416 6.225,21.816 C6.163,21.88 6.128,21.982 6.128,22.113 L6.025,22.065 L3.379,23.212 C1.743,23.916 0.645,24.067 0.078,23.666 C-0.087,23.598 0.01,23.383 0.376,23.012 C2.075,22.846 3.443,22.382 4.478,21.616 z" fill="#878B1F" id="path166"/>
    <path d="M17.378,7.016 L17.475,6.865 C17.646,6.665 18.545,6.166 20.176,5.366 C22.041,4.462 23.228,3.847 23.725,3.515 C25.128,2.617 25.879,2.113 25.976,2.016 C26.279,2.313 26.509,2.733 26.68,3.266 C26.778,3.53 26.826,4.398 26.826,5.863 C26.895,7.997 26.929,10.981 26.929,14.813 L26.929,16.166 L26.978,16.112 L27.026,17.016 C27.129,17.646 27.378,18.095 27.779,18.363 C29.145,19.331 29.229,19.897 28.028,20.063 C27.461,20.131 26.66,20.063 25.625,19.862 L24.229,19.565 L24.829,20.512 C25.293,21.181 25.679,21.631 25.976,21.865 C26.343,22.197 26.094,22.548 25.23,22.915 C24.36,23.281 23.461,23.3 22.529,22.963 L20.176,22.065 L20.128,22.113 C20.128,23.012 19.913,23.881 19.478,24.716 C18.276,26.88 17.413,27.5 16.875,26.567 C16.509,25.932 16.563,24.8 17.026,23.163 L17.075,22.963 L17.226,22.563 L17.275,22.515 C17.413,22.113 17.475,21.616 17.475,21.015 L17.378,7.016 z" fill="url(#Gradient_5)" id="path184"/>
    <path d="M24.478,3.212 C23.98,3.515 22.676,4.18 20.576,5.215 C18.676,6.112 17.646,6.665 17.475,6.865 C16.611,6.796 13.711,6.498 8.779,5.966 C5.01,5.566 2.676,5.4 1.778,5.463 C1.944,5.2 2.109,5 2.275,4.862 C3.145,4.233 4.678,3.33 6.875,2.162 C9.409,0.766 11.025,0.048 11.729,0.015 C14.029,-0.084 17.895,0.317 23.325,1.216 C24.761,1.416 25.645,1.68 25.976,2.016 C25.645,2.382 25.146,2.782 24.478,3.212 z" fill="url(#Gradient_6)" id="path202"/>
    <path d="M20.376,18.012 C20.376,18.515 20.279,18.93 20.078,19.262 C19.844,19.6 19.575,19.765 19.278,19.765 C18.98,19.765 18.725,19.6 18.525,19.262 C18.296,18.93 18.179,18.515 18.179,18.012 C18.179,17.548 18.291,17.148 18.525,16.816 C18.725,16.483 18.98,16.313 19.278,16.313 C19.575,16.313 19.844,16.483 20.078,16.816 C20.279,17.148 20.376,17.548 20.376,18.012 z" fill="#81842A" id="path204"/>
    <path d="M19.975,18.066 C19.975,18.398 19.878,18.701 19.678,18.965 C19.511,19.198 19.293,19.316 19.029,19.316 C18.794,19.316 18.579,19.198 18.379,18.965 C18.208,18.735 18.125,18.432 18.125,18.066 C18.125,17.7 18.208,17.382 18.379,17.113 C18.545,16.885 18.76,16.767 19.029,16.767 C19.293,16.767 19.511,16.885 19.678,17.113 C19.878,17.382 19.975,17.7 19.975,18.066 z" fill="url(#Gradient_7)" id="path224"/>
    <path d="M26.826,14.613 C26.826,15.082 26.763,15.463 26.626,15.766 C26.494,16.098 26.328,16.265 26.128,16.265 C25.928,16.265 25.761,16.098 25.625,15.766 C25.459,15.43 25.376,15.048 25.376,14.613 C25.376,14.18 25.459,13.798 25.625,13.466 C25.761,13.163 25.928,13.012 26.128,13.012 C26.591,13.012 26.826,13.55 26.826,14.613 z" fill="#81842A" id="path226"/>
    <path d="M26.578,14.613 C26.578,14.946 26.509,15.233 26.378,15.463 C26.279,15.697 26.143,15.815 25.976,15.815 C25.576,15.815 25.376,15.415 25.376,14.613 C25.376,13.813 25.576,13.412 25.976,13.412 C26.143,13.412 26.279,13.53 26.378,13.765 C26.509,13.998 26.578,14.282 26.578,14.613 z" fill="url(#Gradient_8)" id="path246"/>
    <path d="M25.976,2.016 C25.913,2.416 24.541,3.35 21.875,4.813 C19.18,6.313 17.793,7.231 17.73,7.563 C17.628,7.93 17.628,12.08 17.73,20.015 C17.661,21.713 17.426,22.763 17.026,23.163 L17.226,22.563 C17.295,22.265 17.31,20.263 17.275,16.567 C17.246,12.9 17.193,10.532 17.129,9.462 C17.06,8.296 17.011,7.666 16.978,7.563 C16.909,7.362 16.729,7.231 16.426,7.162 C16.06,7.065 13.208,6.747 7.876,6.216 L1.826,5.215 L9.429,6.015 C10.791,6.181 12.413,6.332 14.278,6.465 C16.079,6.596 17.129,6.631 17.426,6.567 C17.73,6.532 19.029,5.912 21.328,4.716 C22.759,3.95 24.311,3.046 25.976,2.016 z" fill="#F4F87D" id="path248"/>
    <path d="M14.375,6.416 L16.176,6.416 C17.178,6.581 18.261,6.416 19.429,5.912 L19.478,5.912 C18.779,6.45 18.276,6.88 17.979,7.216 C17.779,7.446 17.646,7.763 17.578,8.163 C17.475,8.666 17.378,8.998 17.275,9.165 C17.075,9.131 16.978,8.716 16.978,7.915 C16.909,7.515 16.793,7.265 16.626,7.162 C16.563,7.1 16.143,6.997 15.376,6.865 C14.711,6.733 14.375,6.581 14.375,6.416 z" fill="#FDFECD" id="path250"/>
    <path d="M7.129,5.766 L8.725,6.015 C8.325,6.015 7.695,5.981 6.826,5.912 L5.43,5.663 C6.163,5.732 6.729,5.766 7.129,5.766 z" fill="#FDFECD" id="path252"/>
  </g>
</svg>
