<?xml version="1.0" encoding="UTF-8"?>
<!DOCTYPE svg PUBLIC "-//W3C//DTD SVG 1.1//EN" "http://www.w3.org/Graphics/SVG/1.1/DTD/svg11.dtd">
<svg version="1.1" xmlns="http://www.w3.org/2000/svg" xmlns:xlink="http://www.w3.org/1999/xlink" x="0" y="0" width="32.845" height="31.981" viewBox="0, 0, 32.845, 31.981">
  <defs>
    <clipPath id="Clip_1">
      <path d="M-1.358,-0.982 L32.488,-0.982 L32.488,31.999 L-1.358,31.999 z M17.335,2.018 C10.216,2.587 13.756,2.184 6.716,3.227 L6.687,3.228 C5.584,3.228 4.754,3.442 4.187,3.877 L4.095,3.985 L4.024,4.033 L4.029,4.038 L3.863,4.256 C3.641,4.515 3.73,4.372 3.594,4.681 C3.445,4.952 3.545,4.759 3.332,5.278 C3.186,5.857 3.199,6.46 3.194,7.054 C3.08,10.31 3.089,13.568 3.084,16.825 L3.084,18.178 L3.035,18.124 L2.986,19.028 C2.884,19.658 2.635,20.107 2.234,20.375 C0.867,21.343 0.784,21.909 1.985,22.075 C2.551,22.143 3.352,22.075 4.387,21.874 L5.784,21.577 L5.184,22.524 C4.72,23.193 4.334,23.643 4.036,23.877 C3.67,24.209 3.919,24.56 4.782,24.927 C5.652,25.293 6.551,25.312 7.484,24.975 L9.799,24.091 L9.886,24.136 C10.102,25.903 9.889,25.038 10.535,26.728 C11.736,28.892 12.6,29.512 13.137,28.579 C13.623,27.559 13.278,26.398 13.031,25.362 L13.987,26.577 C14.485,27.245 15.251,27.69 16.287,27.924 C17.082,28.159 17.801,28.213 18.435,28.075 C18.836,28.008 18.904,27.744 18.635,27.275 C18.504,27.045 18.284,26.743 17.986,26.377 C17.751,25.942 17.717,25.395 17.883,24.727 L18.284,24.727 L19.885,26.025 C20.984,26.792 22.366,27.245 24.036,27.378 C24.602,27.412 24.769,27.158 24.534,26.625 C24.134,26.025 23.904,25.644 23.836,25.478 C23.601,25.009 23.567,24.56 23.733,24.125 L23.987,24.077 L26.634,25.224 C28.27,25.928 29.367,26.079 29.935,25.678 C30.066,25.575 29.954,25.342 29.582,24.975 C29.085,24.512 28.801,24.174 28.733,23.974 C28.567,23.51 28.484,22.69 28.483,21.528 C28.552,21.025 28.616,20.093 28.685,18.725 C28.816,15.493 28.885,13.124 28.885,11.625 C28.829,10.232 28.864,8.74 28.191,7.479 L28.222,7.481 L28.1,7.31 C27.94,7.01 28.05,7.164 27.737,6.874 C26.867,6.245 25.335,5.342 23.137,4.174 C20.604,2.778 18.987,2.06 18.284,2.027 C17.875,2.024 18.019,2.017 17.851,2.026 L17.335,2.018 z"/>
    </clipPath>
    <filter id="Shadow_2">
      <feGaussianBlur in="SourceAlpha" stdDeviation="0.75"/>
      <feOffset dx="0" dy="0.5" result="offsetblur"/>
      <feFlood flood-color="#000000"/>
      <feComposite in2="offsetblur" operator="in"/>
    </filter>
    <linearGradient id="Gradient_1" gradientUnits="userSpaceOnUse" x1="-2116.813" y1="-13478.535" x2="-2096.158" y2="-13478.535" gradientTransform="matrix(-0.307, 0.952, -0.952, -0.307, -13457.5, -2111.639)">
      <stop offset="0" stop-color="#D1D94C"/>
      <stop offset="1" stop-color="#8E942B"/>
    </linearGradient>
    <linearGradient id="Gradient_2" gradientUnits="userSpaceOnUse" x1="332.629" y1="323.249" x2="334.379" y2="323.249" gradientTransform="matrix(-0.999, -0.043, 0.043, -0.999, 336.688, 356.749)">
      <stop offset="0" stop-color="#D1D94C"/>
      <stop offset="1" stop-color="#8E942B"/>
    </linearGradient>
    <linearGradient id="Gradient_3" gradientUnits="userSpaceOnUse" x1="336.089" y1="322.199" x2="337.839" y2="322.199" gradientTransform="matrix(-0.999, -0.043, 0.043, -0.999, 336.688, 356.749)">
      <stop offset="0" stop-color="#D1D94C"/>
      <stop offset="1" stop-color="#8E942B"/>
    </linearGradient>
    <linearGradient id="Gradient_4" gradientUnits="userSpaceOnUse" x1="339.909" y1="321.439" x2="341.659" y2="321.439" gradientTransform="matrix(-0.999, -0.043, 0.043, -0.999, 336.688, 356.749)">
      <stop offset="0" stop-color="#D1D94C"/>
      <stop offset="1" stop-color="#8E942B"/>
    </linearGradient>
    <linearGradient id="Gradient_5" gradientUnits="userSpaceOnUse" x1="-2116.853" y1="-13478.047" x2="-2096.453" y2="-13478.047" gradientTransform="matrix(-0.307, 0.952, -0.952, -0.307, -13457.5, -2111.639)">
      <stop offset="0" stop-color="#D1D94C"/>
      <stop offset="1" stop-color="#8E942B"/>
    </linearGradient>
    <linearGradient id="Gradient_6" gradientUnits="userSpaceOnUse" x1="-2381.266" y1="-12912.522" x2="-2360.566" y2="-12912.522" gradientTransform="matrix(-0.357, 0.934, -0.934, -0.357, -12898.75, -2379.639)">
      <stop offset="0" stop-color="#D1D94C"/>
      <stop offset="1" stop-color="#8E942B"/>
    </linearGradient>
    <linearGradient id="Gradient_7" gradientUnits="userSpaceOnUse" x1="-34.208" y1="-6.235" x2="-10.007" y2="-6.235" gradientTransform="matrix(-1, 0, -0, -1, -5.985, -0.785)">
      <stop offset="0" stop-color="#F1FA57"/>
      <stop offset="1" stop-color="#B7C038"/>
    </linearGradient>
    <linearGradient id="Gradient_8" gradientUnits="userSpaceOnUse" x1="516.26" y1="-16838.928" x2="519.22" y2="-16838.928" gradientTransform="matrix(0.059, 0.998, -0.998, 0.059, -16828.75, 500.849)">
      <stop offset="0" stop-color="#5F4E29"/>
      <stop offset="0.859" stop-color="#271D09"/>
      <stop offset="1" stop-color="#271D09"/>
    </linearGradient>
    <linearGradient id="Gradient_9" gradientUnits="userSpaceOnUse" x1="549.78" y1="-16864.908" x2="552.53" y2="-16864.908" gradientTransform="matrix(0.064, 0.998, -0.998, 0.064, -16862.5, 538.086)">
      <stop offset="0" stop-color="#5F4E29"/>
      <stop offset="0.859" stop-color="#271D09"/>
      <stop offset="1" stop-color="#271D09"/>
    </linearGradient>
  </defs>
  <g id="Layer_1">
    <g>
      <path d="M17.335,2.018 L17.851,2.026 C18.019,2.017 17.875,2.024 18.284,2.027 C18.987,2.06 20.604,2.778 23.137,4.174 C25.335,5.342 26.867,6.245 27.737,6.874 C28.05,7.164 27.94,7.01 28.1,7.31 L28.222,7.481 L28.191,7.479 C28.864,8.74 28.829,10.232 28.885,11.625 C28.885,13.124 28.816,15.493 28.685,18.725 C28.616,20.093 28.552,21.025 28.483,21.528 C28.484,22.69 28.567,23.51 28.733,23.974 C28.801,24.174 29.085,24.512 29.582,24.975 C29.954,25.342 30.066,25.575 29.935,25.678 C29.367,26.079 28.27,25.928 26.634,25.224 L23.987,24.077 L23.733,24.125 C23.567,24.56 23.601,25.009 23.836,25.478 C23.904,25.644 24.134,26.025 24.534,26.625 C24.769,27.158 24.602,27.412 24.036,27.378 C22.366,27.245 20.984,26.792 19.885,26.025 L18.284,24.727 L17.883,24.727 C17.717,25.395 17.751,25.942 17.986,26.377 C18.284,26.743 18.504,27.045 18.635,27.275 C18.904,27.744 18.836,28.008 18.435,28.075 C17.801,28.213 17.082,28.159 16.287,27.924 C15.251,27.69 14.485,27.245 13.987,26.577 L13.031,25.362 C13.278,26.398 13.623,27.559 13.137,28.579 C12.6,29.512 11.736,28.892 10.535,26.728 C9.889,25.038 10.102,25.903 9.886,24.136 L9.799,24.091 L7.484,24.975 C6.551,25.312 5.652,25.293 4.782,24.927 C3.919,24.56 3.67,24.209 4.036,23.877 C4.334,23.643 4.72,23.193 5.184,22.524 L5.784,21.577 L4.387,21.874 C3.352,22.075 2.551,22.143 1.985,22.075 C0.784,21.909 0.867,21.343 2.234,20.375 C2.635,20.107 2.884,19.658 2.986,19.028 L3.035,18.124 L3.084,18.178 L3.084,16.825 C3.089,13.568 3.08,10.31 3.194,7.054 C3.199,6.46 3.186,5.857 3.332,5.278 C3.545,4.759 3.445,4.952 3.594,4.681 C3.73,4.372 3.641,4.515 3.863,4.256 L4.029,4.038 L4.024,4.033 L4.095,3.985 L4.187,3.877 C4.754,3.442 5.584,3.228 6.687,3.228 L6.716,3.227 C13.756,2.184 10.216,2.587 17.335,2.018 z" clip-path="url(#Clip_1)" filter="url(#Shadow_2)" fill="rgba(0,0,0,0.5)"/>
      <path d="M17.335,2.018 C10.216,2.587 13.756,2.184 6.716,3.227 L6.687,3.228 C5.584,3.228 4.754,3.442 4.187,3.877 L4.095,3.985 L4.024,4.033 L4.029,4.038 L3.863,4.256 C3.641,4.515 3.73,4.372 3.594,4.681 C3.445,4.952 3.545,4.759 3.332,5.278 C3.186,5.857 3.199,6.46 3.194,7.054 C3.08,10.31 3.089,13.568 3.084,16.825 L3.084,18.178 L3.035,18.124 L2.986,19.028 C2.884,19.658 2.635,20.107 2.234,20.375 C0.867,21.343 0.784,21.909 1.985,22.075 C2.551,22.143 3.352,22.075 4.387,21.874 L5.784,21.577 L5.184,22.524 C4.72,23.193 4.334,23.643 4.036,23.877 C3.67,24.209 3.919,24.56 4.782,24.927 C5.652,25.293 6.551,25.312 7.484,24.975 L9.799,24.091 L9.886,24.137 C10.102,25.903 9.889,25.038 10.535,26.728 C11.736,28.892 12.6,29.512 13.137,28.579 C13.623,27.559 13.278,26.398 13.031,25.362 L13.987,26.577 C14.485,27.245 15.251,27.69 16.287,27.924 C17.082,28.159 17.801,28.213 18.435,28.075 C18.836,28.008 18.904,27.744 18.635,27.275 C18.504,27.045 18.284,26.743 17.986,26.377 C17.751,25.942 17.717,25.395 17.884,24.727 L18.284,24.727 L19.885,26.025 C20.984,26.792 22.366,27.245 24.036,27.378 C24.602,27.412 24.769,27.158 24.534,26.625 C24.134,26.025 23.904,25.644 23.836,25.478 C23.601,25.009 23.567,24.56 23.734,24.125 L23.987,24.077 L26.634,25.224 C28.27,25.928 29.367,26.079 29.935,25.678 C30.066,25.575 29.954,25.342 29.582,24.975 C29.085,24.512 28.801,24.174 28.734,23.974 C28.567,23.51 28.484,22.69 28.484,21.528 C28.552,21.025 28.616,20.093 28.685,18.725 C28.816,15.493 28.885,13.124 28.885,11.625 C28.829,10.232 28.864,8.74 28.191,7.48 L28.222,7.481 L28.1,7.31 C27.94,7.01 28.05,7.164 27.737,6.874 C26.867,6.245 25.335,5.342 23.137,4.174 C20.604,2.778 18.987,2.06 18.284,2.027 C17.875,2.024 18.019,2.017 17.851,2.026 L17.335,2.018 z" fill="url(#Gradient_1)"/>
    </g>
    <path d="M19.224,17.23 L14.575,17.581 C14.907,18.944 15.176,19.896 15.376,20.427 C15.771,21.462 16.191,21.931 16.626,21.829 C17.456,21.629 18.32,20.096 19.224,17.23 z" fill="url(#Gradient_2)" id="path106"/>
    <path d="M15.722,18.127 L11.074,18.48 C11.406,19.846 11.675,20.794 11.875,21.331 C12.275,22.361 12.69,22.83 13.125,22.727 C13.955,22.527 14.824,20.999 15.722,18.127 z" fill="url(#Gradient_3)" id="path124"/>
    <path d="M11.875,18.729 L7.221,19.08 C7.554,20.447 7.822,21.395 8.022,21.931 C8.422,22.962 8.837,23.431 9.272,23.329 C10.107,23.127 10.971,21.595 11.875,18.729 z" fill="url(#Gradient_4)" id="path142"/>
    <path d="M4.187,3.877 C3.816,4.175 3.532,4.643 3.332,5.278 C3.167,5.811 3.084,9.658 3.084,16.826 L3.084,18.277 C3.117,18.775 3.27,19.228 3.532,19.63 C3.836,20.058 4.754,20.811 6.287,21.875 C7.62,22.842 8.586,23.477 9.187,23.775 C10.75,24.643 11.985,25.107 12.884,25.176 L13.987,26.577 C14.485,27.246 15.251,27.691 16.287,27.925 C17.082,28.16 17.801,28.213 18.435,28.076 C18.836,28.008 18.904,27.745 18.635,27.276 C18.504,27.046 18.284,26.743 17.986,26.377 C17.751,25.942 17.717,25.396 17.884,24.727 L18.284,24.727 L19.885,26.026 C20.984,26.792 22.366,27.246 24.036,27.378 C24.602,27.412 24.769,27.158 24.534,26.626 C24.134,26.026 23.904,25.645 23.836,25.478 C23.601,25.01 23.567,24.561 23.734,24.126 L23.987,24.077 L26.634,25.225 C28.27,25.928 29.367,26.08 29.935,25.678 C30.066,25.576 29.954,25.342 29.582,24.976 C29.085,24.512 28.801,24.175 28.734,23.975 C28.567,23.511 28.484,22.691 28.484,21.528 C28.552,21.026 28.616,20.093 28.685,18.726 C28.816,15.493 28.885,13.125 28.885,11.626 C28.85,8.96 28.47,7.378 27.737,6.875 C26.867,6.246 25.335,5.342 23.137,4.175 C20.604,2.778 18.987,2.061 18.284,2.027 C17.351,1.992 15.417,2.178 12.484,2.578 C9.354,3.013 7.42,3.228 6.687,3.228 C5.584,3.228 4.754,3.442 4.187,3.877 z" fill="url(#Gradient_5)" id="path160"/>
    <path d="M18.271,24.73 L19.872,26.029 C20.971,26.795 22.354,27.249 24.024,27.381 C24.624,27.415 24.756,27.112 24.424,26.477 C23.721,26.649 22.871,26.477 21.875,25.98 C20.474,25.311 19.106,24.231 17.774,22.727 C17.172,24.061 17.09,24.979 17.525,25.481 L17.774,25.731 L17.871,24.73 L18.271,24.73 z" fill="#878B1F" id="path162"/>
    <path d="M15.625,26.477 C14.292,25.711 13.34,25.081 12.774,24.579 L13.672,26.229 L13.975,26.58 C14.472,27.249 15.239,27.694 16.275,27.927 C17.07,28.162 17.789,28.216 18.422,28.079 C18.891,27.981 18.921,27.664 18.52,27.132 C17.656,27.297 16.69,27.084 15.625,26.477 z" fill="#878B1F" id="path164"/>
    <path d="M25.522,23.631 L23.622,22.23 L23.622,22.679 C23.622,23.045 23.672,23.431 23.775,23.831 C23.837,23.895 23.872,23.997 23.872,24.129 L23.975,24.08 L26.621,25.227 C28.257,25.931 29.355,26.082 29.922,25.681 C30.087,25.614 29.99,25.399 29.624,25.027 C27.925,24.861 26.557,24.397 25.522,23.631 z" fill="#878B1F" id="path166"/>
    <path d="M12.635,9.028 L12.537,8.877 C12.366,8.677 11.467,8.178 9.836,7.378 C7.971,6.475 6.785,5.86 6.287,5.527 C4.885,4.63 4.134,4.126 4.036,4.028 C3.734,4.326 3.504,4.746 3.332,5.278 C3.235,5.542 3.186,6.411 3.186,7.876 C3.117,10.01 3.084,12.993 3.084,16.826 L3.084,18.178 L3.035,18.125 L2.986,19.028 C2.884,19.658 2.635,20.107 2.234,20.376 C0.867,21.343 0.784,21.91 1.985,22.076 C2.551,22.143 3.352,22.076 4.387,21.875 L5.784,21.577 L5.184,22.525 C4.72,23.193 4.334,23.643 4.036,23.877 C3.67,24.21 3.919,24.561 4.782,24.927 C5.652,25.293 6.551,25.312 7.484,24.976 L9.836,24.077 L9.885,24.126 C9.885,25.025 10.1,25.893 10.535,26.728 C11.736,28.892 12.6,29.512 13.137,28.58 C13.504,27.945 13.45,26.812 12.986,25.176 L12.937,24.976 L12.786,24.576 L12.737,24.527 C12.6,24.126 12.537,23.628 12.537,23.027 L12.635,9.028 z" fill="url(#Gradient_6)" id="path184"/>
    <path d="M5.522,5.23 C6.02,5.532 7.324,6.197 9.424,7.232 C11.324,8.13 12.354,8.682 12.525,8.882 C13.389,8.814 16.289,8.516 21.221,7.984 C24.99,7.584 27.324,7.417 28.222,7.481 C28.056,7.217 27.891,7.017 27.725,6.88 C26.855,6.251 25.322,5.347 23.125,4.18 C20.591,2.784 18.975,2.066 18.271,2.032 C15.971,1.934 12.105,2.335 6.675,3.234 C5.239,3.434 4.355,3.697 4.024,4.034 C4.355,4.4 4.854,4.8 5.522,5.23 z" fill="url(#Gradient_7)" id="path202"/>
    <path d="M9.624,20.027 C9.624,20.53 9.721,20.945 9.922,21.277 C10.156,21.615 10.425,21.78 10.722,21.78 C11.02,21.78 11.275,21.615 11.475,21.277 C11.704,20.945 11.821,20.53 11.821,20.027 C11.821,19.564 11.709,19.164 11.475,18.831 C11.275,18.499 11.02,18.329 10.722,18.329 C10.425,18.329 10.156,18.499 9.922,18.831 C9.721,19.164 9.624,19.564 9.624,20.027 z" fill="#81842A" id="path204"/>
    <path d="M10.025,20.081 C10.025,20.414 10.122,20.716 10.322,20.98 C10.489,21.214 10.707,21.331 10.971,21.331 C11.206,21.331 11.421,21.214 11.621,20.98 C11.792,20.75 11.875,20.447 11.875,20.081 C11.875,19.715 11.792,19.397 11.621,19.129 C11.455,18.9 11.24,18.782 10.971,18.782 C10.707,18.782 10.489,18.9 10.322,19.129 C10.122,19.397 10.025,19.715 10.025,20.081 z" fill="url(#Gradient_8)" id="path224"/>
    <path d="M3.174,16.629 C3.174,17.097 3.237,17.479 3.374,17.781 C3.506,18.114 3.672,18.28 3.872,18.28 C4.072,18.28 4.239,18.114 4.375,17.781 C4.541,17.445 4.624,17.064 4.624,16.629 C4.624,16.195 4.541,15.814 4.375,15.481 C4.239,15.179 4.072,15.027 3.872,15.027 C3.409,15.027 3.174,15.565 3.174,16.629 z" fill="#81842A" id="path226"/>
    <path d="M3.422,16.629 C3.422,16.961 3.491,17.249 3.622,17.479 C3.721,17.712 3.857,17.83 4.024,17.83 C4.424,17.83 4.624,17.43 4.624,16.629 C4.624,15.829 4.424,15.427 4.024,15.427 C3.857,15.427 3.721,15.545 3.622,15.78 C3.491,16.014 3.422,16.297 3.422,16.629 z" fill="url(#Gradient_9)" id="path246"/>
    <path d="M4.024,4.031 C4.087,4.431 5.459,5.365 8.125,6.829 C10.82,8.329 12.207,9.246 12.27,9.579 C12.372,9.945 12.372,14.095 12.27,22.03 C12.339,23.729 12.574,24.779 12.974,25.179 L12.774,24.579 C12.705,24.28 12.69,22.279 12.725,18.582 C12.754,14.915 12.807,12.547 12.871,11.477 C12.94,10.311 12.989,9.681 13.022,9.579 C13.091,9.377 13.271,9.246 13.574,9.177 C13.94,9.08 16.792,8.762 22.124,8.231 L28.174,7.23 L20.571,8.03 C19.209,8.196 17.587,8.347 15.722,8.48 C13.921,8.611 12.871,8.646 12.574,8.582 C12.27,8.547 10.971,7.927 8.672,6.731 C7.241,5.965 5.689,5.061 4.024,4.031 z" fill="#F4F87D" id="path248"/>
    <path d="M15.625,8.431 L13.824,8.431 C12.822,8.596 11.739,8.431 10.571,7.927 L10.522,7.927 C11.221,8.465 11.724,8.895 12.021,9.231 C12.221,9.461 12.354,9.779 12.422,10.179 C12.525,10.681 12.622,11.014 12.725,11.18 C12.925,11.146 13.022,10.731 13.022,9.93 C13.091,9.53 13.207,9.28 13.374,9.177 C13.437,9.115 13.857,9.012 14.624,8.88 C15.289,8.749 15.625,8.596 15.625,8.431 z" fill="#FDFECD" id="path250"/>
    <path d="M22.871,7.781 L21.275,8.03 C21.675,8.03 22.305,7.996 23.174,7.927 L24.57,7.679 C23.837,7.747 23.271,7.781 22.871,7.781 z" fill="#FDFECD" id="path252"/>
  </g>
</svg>
