<?xml version="1.0" encoding="UTF-8" standalone="no"?>
<!-- Created with Inkscape (http://www.inkscape.org/) -->
<svg xmlns:inkscape="http://www.inkscape.org/namespaces/inkscape" xmlns:rdf="http://www.w3.org/1999/02/22-rdf-syntax-ns#" xmlns="http://www.w3.org/2000/svg" xmlns:xlink="http://www.w3.org/1999/xlink" xmlns:ns1="http://sozi.baierouge.fr" xmlns:cc="http://creativecommons.org/ns#" xmlns:sodipodi="http://sodipodi.sourceforge.net/DTD/sodipodi-0.dtd" xmlns:dc="http://purl.org/dc/elements/1.1/" id="svg2" xml:space="preserve" viewBox="0 0 53.8 64.107" version="1.1" inkscape:version="0.91 r13725">
  <defs id="defs6">
    <linearGradient id="linearGradient26" y2="-15085" gradientUnits="userSpaceOnUse" x2="-1033.5" gradientTransform="matrix(.112 -.79216 .79216 .112 12099 881.61)" y1="-15085" x1="-1083">
      <stop id="stop28" style="stop-color:#61ba77" offset="0"/>
      <stop id="stop30" style="stop-color:#49945c" offset="1"/>
    </linearGradient>
    <linearGradient id="linearGradient50" y2="-15100" gradientUnits="userSpaceOnUse" x2="-1025.9" gradientTransform="matrix(.112 -.79216 .79216 .112 12099 881.61)" y1="-15100" x1="-1075.4">
      <stop id="stop52" style="stop-color:#b5ba5f" offset="0"/>
      <stop id="stop54" style="stop-color:#909449" offset="1"/>
    </linearGradient>
    <linearGradient id="linearGradient68" y2="-16305" gradientUnits="userSpaceOnUse" x2="36.841" gradientTransform="matrix(.000016410 -.8 .8 -.0008 13077 25.881)" y1="-16305" x1="-11.909">
      <stop id="stop70" style="stop-color:#abb05b" offset="0"/>
      <stop id="stop72" style="stop-color:#818541" offset="1"/>
    </linearGradient>
    <clipPath id="clipPath80">
      <path id="path82" d="m25.199 45.446c1.629-0.266 2.563-0.934 2.801-2 0.238-0.988-0.082-2.133-0.961-3.442-2.078-3.039-5-4.89-8.758-5.558-3.574-0.613-6.203-0.508-7.883 0.32-1.597 0.801-2.453 2.281-2.558 4.438-0.078 1.976 0.055 3.453 0.398 4.441 0.27 0.801 0.746 1.402 1.442 1.801 0.558 0.32 3.132 0.441 7.718 0.359 4.188-0.078 6.79-0.199 7.801-0.359z" inkscape:connector-curvature="0"/>
    </clipPath>
    <clipPath id="clipPath88">
      <path id="path90" d="m-13.7 11.75h27.5v16.25h-27.5v-16.25z" inkscape:connector-curvature="0"/>
    </clipPath>
    <radialGradient id="radialGradient92" gradientUnits="userSpaceOnUse" cy="9.8501" cx="-3.2002" r="16.4">
      <stop id="stop94" style="stop-color:#ffffff;stop-opacity:.25879" offset="0"/>
      <stop id="stop96" style="stop-color:#ffffff;stop-opacity:0" offset="1"/>
    </radialGradient>
    <mask id="mask98">
      <g id="g100">
        <g id="g102" clip-path="url(#clipPath88)">
          <path id="path104" style="fill:url(#radialGradient92)" d="m-13.7 11.75h27.5v16.25h-27.5v-16.25z" inkscape:connector-curvature="0"/>
        </g>
      </g>
    </mask>
    <radialGradient id="radialGradient108" gradientUnits="userSpaceOnUse" cy="9.8501" cx="-3.2002" r="16.4">
      <stop id="stop110" style="stop-color:#ffffff" offset="0"/>
      <stop id="stop112" style="stop-color:#ffffff" offset="1"/>
    </radialGradient>
    <linearGradient id="linearGradient126" y2="-16305" gradientUnits="userSpaceOnUse" x2="39.437" gradientTransform="matrix(.000016410 -.8 .8 -.0008 13077 25.881)" y1="-16305" x1="-9.3135">
      <stop id="stop128" style="stop-color:#abb05b" offset="0"/>
      <stop id="stop130" style="stop-color:#818541" offset="1"/>
    </linearGradient>
    <linearGradient id="linearGradient146" y2="-15091" gradientUnits="userSpaceOnUse" x2="-1022.6" gradientTransform="matrix(.112 -.79216 .79216 .112 12099 881.61)" y1="-15091" x1="-1072.1">
      <stop id="stop148" style="stop-color:#b5ba5f" offset="0"/>
      <stop id="stop150" style="stop-color:#909449" offset="1"/>
    </linearGradient>
    <linearGradient id="linearGradient164" y2="-15097" gradientUnits="userSpaceOnUse" x2="-1022.6" gradientTransform="matrix(.112 -.79216 .79216 .112 12099 881.61)" y1="-15097" x1="-1072.1">
      <stop id="stop166" style="stop-color:#b5ba5f" offset="0"/>
      <stop id="stop168" style="stop-color:#909449" offset="1"/>
    </linearGradient>
    <linearGradient id="linearGradient184" y2="-15104" gradientUnits="userSpaceOnUse" x2="-1022.6" gradientTransform="matrix(.112 -.79216 .79216 .112 12099 881.61)" y1="-15104" x1="-1072.1">
      <stop id="stop186" style="stop-color:#b5ba5f" offset="0"/>
      <stop id="stop188" style="stop-color:#909449" offset="1"/>
    </linearGradient>
    <linearGradient id="linearGradient202" y2="-15114" gradientUnits="userSpaceOnUse" x2="-1033.5" gradientTransform="matrix(.112 -.79216 .79216 .112 12099 881.61)" y1="-15114" x1="-1083">
      <stop id="stop204" style="stop-color:#61ba77" offset="0"/>
      <stop id="stop206" style="stop-color:#49945c" offset="1"/>
    </linearGradient>
    <linearGradient id="linearGradient222" y2="-15114" gradientUnits="userSpaceOnUse" x2="-1022.6" gradientTransform="matrix(.112 -.79216 .79216 .112 12099 881.61)" y1="-15114" x1="-1072.1">
      <stop id="stop224" style="stop-color:#b5ba5f" offset="0"/>
      <stop id="stop226" style="stop-color:#909449" offset="1"/>
    </linearGradient>
    <linearGradient id="linearGradient244" y2="-15119" gradientUnits="userSpaceOnUse" x2="-1022.6" gradientTransform="matrix(.112 -.79216 .79216 .112 12099 881.61)" y1="-15119" x1="-1072.1">
      <stop id="stop246" style="stop-color:#b5ba5f" offset="0"/>
      <stop id="stop248" style="stop-color:#909449" offset="1"/>
    </linearGradient>
    <linearGradient id="linearGradient266" y2="-16298" gradientUnits="userSpaceOnUse" x2="39.437" gradientTransform="matrix(.000016410 -.8 .8 -.0008 13077 25.881)" y1="-16298" x1="-9.3135">
      <stop id="stop268" style="stop-color:#abb05b" offset="0"/>
      <stop id="stop270" style="stop-color:#818541" offset="1"/>
    </linearGradient>
    <linearGradient id="linearGradient286" y2="-15102" gradientUnits="userSpaceOnUse" x2="-1022.6" gradientTransform="matrix(.112 -.79216 .79216 .112 12099 881.61)" y1="-15102" x1="-1072.1">
      <stop id="stop288" style="stop-color:#b5ba5f" offset="0"/>
      <stop id="stop290" style="stop-color:#909449" offset="1"/>
    </linearGradient>
    <linearGradient id="linearGradient304" y2="-16304" gradientUnits="userSpaceOnUse" x2="39.437" gradientTransform="matrix(.000016410 -.8 .8 -.0008 13077 25.881)" y1="-16304" x1="-9.3135">
      <stop id="stop306" style="stop-color:#abb05b" offset="0"/>
      <stop id="stop308" style="stop-color:#818541" offset="1"/>
    </linearGradient>
  </defs>
  <g id="g10" transform="matrix(1.25 0 0 -1.25 0 64.107)">
    <g id="g12">
      <path id="path14" style="fill-rule:evenodd;fill:#6ac480" d="m7.398 48.364c-0.144-0.145-0.277-0.293-0.398-0.438l-0.039-0.019c0.109 0.136 0.258 0.289 0.437 0.457z" inkscape:connector-curvature="0"/>
      <g id="g16">
        <g id="g18">
          <g id="g24">
            <path id="path32" style="fill-rule:evenodd;fill:url(#linearGradient26)" d="m26.641 47.606c1.359-0.082 2.425-0.16 3.199-0.242 0.082 0 0.16-0.028 0.238-0.078-1.223 0.105-2.371 0.214-3.437 0.32z" inkscape:connector-curvature="0"/>
          </g>
        </g>
      </g>
      <path id="path34" style="fill-rule:evenodd;fill:#e1f8f8" d="m9.238 47.606c-0.16 0.055-0.211 0.144-0.16 0.281 0.027 0.133 0.16 0.227 0.402 0.278 0.426 0.082 0.692 0.027 0.801-0.161 0.051-0.078 0.051-0.171 0-0.277v-0.043c-0.269-0.16-0.574-0.199-0.922-0.117-0.054 0-0.093 0.012-0.121 0.039zm5.602 0.16c0.027-0.055-0.067-0.105-0.281-0.16-0.079 0-0.278-0.039-0.598-0.121-0.16-0.055-0.375-0.067-0.641-0.039-0.668 0.054-1.132 0.16-1.398 0.32-0.082 0.051-0.149 0.106-0.203 0.16-0.133 0.16 0.308 0.266 1.32 0.321 0.695 0.027 1.215-0.067 1.563-0.282 0.16-0.078 0.238-0.144 0.238-0.199z" inkscape:connector-curvature="0"/>
      <path id="path36" style="fill-rule:evenodd;fill:#f6ff98" d="m12.441 51.247-0.48-0.321c-0.32-0.265-1.441-0.945-3.359-2.039l-0.602-0.48 8.281-0.203c2.266 0 5.719-0.2 10.36-0.598 1.066-0.106 2.214-0.215 3.437-0.32-7.066 0.347-11.773 0.507-14.117 0.48h-1.121c0 0.051-0.078 0.121-0.238 0.199-0.348 0.215-0.868 0.305-1.563 0.282-1.012-0.055-1.453-0.161-1.32-0.321 0.054-0.054 0.121-0.105 0.203-0.16-0.563 0-1.043-0.016-1.442-0.039-0.082 0-0.148-0.016-0.199-0.043v0.043c0.051 0.106 0.051 0.199 0 0.277-0.109 0.188-0.375 0.243-0.801 0.161-0.242-0.051-0.375-0.145-0.402-0.278-0.051-0.137 0-0.226 0.16-0.281-1.226-0.16-1.972-0.453-2.238-0.879-0.059-0.102-0.113-0.238-0.16-0.402-0.238-0.821-0.36-2.418-0.36-4.801 0-0.399 0.028-2.32 0.079-5.758 0.027-1.387-0.024-6.961-0.161-16.719 0-0.511-0.003-1.031-0.019-1.562-0.004-0.277-0.008-0.559-0.02-0.84-0.004-0.25-0.011-0.504-0.019-0.758-0.008-0.199-0.016-0.402-0.02-0.601h-0.558l0.078 1.441h0.039l0.199 29.68c0 0.211 0.094 0.48 0.281 0.797 0.2 0.347 0.399 0.582 0.602 0.703l0.039 0.019c0.121 0.145 0.254 0.293 0.398 0.438 0.071 0.066 0.145 0.133 0.223 0.203 0.629 0.531 1.41 1.023 2.34 1.48 1.414 0.774 2.238 1.172 2.48 1.2z" inkscape:connector-curvature="0"/>
      <path id="path38" style="fill-rule:evenodd;fill:#bfc46a" d="m26.641 47.606c-4.641 0.398-8.094 0.598-10.36 0.598l-8.281 0.203 0.602 0.48c1.918 1.094 3.039 1.774 3.359 2.039l0.48 0.321c1.946 0.078 5.719 0.039 11.321-0.122 5.57-0.132 9.332-0.292 11.277-0.48 0.133-0.027 0.266-0.105 0.402-0.238 0.747-0.907 0.094-1.723-1.961-2.442-1.054-0.359-2.14-0.617-3.261-0.781-0.047 0.043-0.09 0.074-0.141 0.102-0.078 0.05-0.156 0.078-0.238 0.078-0.774 0.082-1.84 0.16-3.199 0.242z" inkscape:connector-curvature="0"/>
      <g id="g40">
        <g id="g42">
          <g id="g48">
            <path id="path56" style="fill-rule:evenodd;fill:url(#linearGradient50)" d="m14.84 47.766h1.121c2.348 0.027 7.051-0.133 14.117-0.48 0.051-0.028 0.094-0.059 0.141-0.102 0.136-0.113 0.261-0.281 0.383-0.5 0.21-0.398 0.32-0.719 0.32-0.957 0-0.269 0.051-3.883 0.156-10.84v-17.402c-0.008-0.293-0.016-0.574-0.019-0.84 0.003-0.266 0.003-0.52 0-0.758v-0.601h-24.739c0.004 0.199 0.012 0.402 0.02 0.601 0.008 0.254 0.015 0.508 0.019 0.758 0.012 0.285 0.016 0.563 0.02 0.84 0.016 0.531 0.019 1.051 0.019 1.562 0.137 9.758 0.188 15.332 0.161 16.719-0.051 3.438-0.079 5.359-0.079 5.758 0 2.383 0.122 3.98 0.36 4.801 0.047 0.164 0.101 0.3 0.16 0.402 0.266 0.426 1.012 0.719 2.238 0.879 0.028-0.027 0.067-0.039 0.121-0.039 0.348-0.082 0.653-0.043 0.922 0.117 0.051 0.027 0.117 0.043 0.199 0.043 0.399 0.023 0.879 0.039 1.442 0.039 0.266-0.16 0.73-0.266 1.398-0.32 0.266-0.028 0.481-0.016 0.641 0.039 0.32 0.082 0.519 0.121 0.598 0.121 0.214 0.055 0.308 0.105 0.281 0.16z" inkscape:connector-curvature="0"/>
          </g>
        </g>
      </g>
      <g id="g58">
        <g id="g60">
          <g id="g66">
            <path id="path74" style="fill-rule:evenodd;fill:url(#linearGradient68)" d="m30.219 47.184c1.121 0.164 2.207 0.422 3.261 0.781 2.055 0.719 2.708 1.535 1.961 2.442-0.136 0.133-0.269 0.211-0.402 0.238 0.266-0.027 0.535-0.266 0.801-0.719 0.215-0.402 0.32-0.722 0.32-0.961 0-0.265 0.055-3.879 0.16-10.84v-15.039c0-2.296-0.082-4.164-0.242-5.601-0.027-0.297-0.058-0.578-0.098-0.84-0.035-0.273-0.074-0.527-0.121-0.758-0.004-0.043-0.011-0.082-0.019-0.121 0.117-0.168 0.238-0.328 0.359-0.48h-5.14v0.601c0.003 0.238 0.003 0.492 0 0.758 0.003 0.266 0.011 0.547 0.019 0.84v17.402c-0.105 6.957-0.156 10.571-0.156 10.84 0 0.238-0.11 0.559-0.32 0.957-0.122 0.219-0.247 0.387-0.383 0.5z" inkscape:connector-curvature="0"/>
          </g>
        </g>
      </g>
      <g id="g76">
        <g id="g78" clip-path="url(#clipPath80)">
          <g id="g84" transform="matrix(.8 0 0 -.8 17.96 55.685)">
            <g id="g106" mask="url(#mask98)">
              <path id="path114" style="fill-rule:evenodd;fill:url(#radialGradient108)" d="m25.199 45.446c1.629-0.266 2.563-0.934 2.801-2 0.238-0.988-0.082-2.133-0.961-3.442-2.078-3.039-5-4.89-8.758-5.558-3.574-0.613-6.203-0.508-7.883 0.32-1.597 0.801-2.453 2.281-2.558 4.438-0.078 1.976 0.055 3.453 0.398 4.441 0.27 0.801 0.746 1.402 1.442 1.801 0.558 0.32 3.132 0.441 7.718 0.359 4.188-0.078 6.79-0.199 7.801-0.359z" inkscape:connector-curvature="0"/>
            </g>
          </g>
        </g>
      </g>
      <g id="g116">
        <g id="g118">
          <g id="g124">
            <path id="path132" style="fill-rule:evenodd;fill:url(#linearGradient126)" d="m35.641 15.887c0.027-0.883 0.293-2.387 0.8-4.523 0.481-2.051 0.719-3.692 0.719-4.918 0-1.574-0.293-2.719-0.879-3.442-0.426-0.531-0.961-0.8-1.601-0.8 0.187 0.187 0.359 0.507 0.519 0.961 0.16 0.453 0.235 0.835 0.223 1.14-0.094 1.09-0.5 1.887-1.223 2.399-0.719 0.519-1.586 0.964-2.597 1.343-1.176 0.399-1.762 2.453-1.762 6.157l0.039 1.683h5.762z" inkscape:connector-curvature="0"/>
          </g>
        </g>
      </g>
      <path id="path134" style="fill-rule:evenodd;fill:#6e7338" d="m33.199 0.247c0-0.028 0.028-0.067 0.082-0.122 0.051-0.027-0.136-0.066-0.562-0.121-0.453-0.023-0.918 0.043-1.399 0.2-0.508 0.187-0.812 0.336-0.922 0.441-0.503 0.293-0.945 0.613-1.32 0.961-0.105 0.078-0.211 0.172-0.316 0.281-0.321 0.293-0.602 0.571-0.84 0.84-0.668 0.824-1.188 1.703-1.563 2.637-0.027 0.082-0.05 0.16-0.078 0.242l-0.359 0.879 0.117 3.719 0.039-0.079v-0.16l0.563-1.679c0.265-1.039 0.531-1.856 0.8-2.442 0.239-0.558 0.52-1.117 0.84-1.679 0.348-0.532 0.797-1.079 1.36-1.641 0.586-0.531 1.011-0.934 1.281-1.199 0.293-0.266 0.519-0.438 0.68-0.52 0.132-0.055 0.277-0.133 0.437-0.238 0.375-0.16 0.746-0.27 1.121-0.32h0.039z" inkscape:connector-curvature="0"/>
      <g id="g136">
        <g id="g138">
          <g id="g144">
            <path id="path152" style="fill-rule:evenodd;fill:url(#linearGradient146)" d="m33.199 0.247h-0.039c-0.375 0.05-0.746 0.16-1.121 0.32-0.16 0.105-0.305 0.183-0.437 0.238-0.161 0.082-0.387 0.254-0.68 0.52-0.27 0.265-0.695 0.668-1.281 1.199-0.563 0.562-1.016 1.109-1.36 1.641-0.32 0.562-0.601 1.121-0.84 1.679-0.269 0.586-0.535 1.403-0.8 2.442l-0.563 1.679v0.16c-0.051 1.625-0.117 3.547-0.199 5.762l5.043-0.043c-0.137-0.48-0.176-1.25-0.121-2.32 0.027-1.199 0.051-2.41 0.078-3.637v-2.242c0.027-1.254 0.066-2.187 0.121-2.801 0.055-0.719 0.199-1.398 0.441-2.039 0.211-0.613 0.52-1.172 0.918-1.68 0.375-0.507 0.719-0.761 1.039-0.761-0.05-0.051-0.105-0.078-0.16-0.078l-0.039-0.039z" inkscape:connector-curvature="0"/>
          </g>
        </g>
      </g>
      <g id="g154">
        <g id="g156">
          <g id="g162">
            <path id="path170" style="fill-rule:evenodd;fill:url(#linearGradient164)" d="m26.68 6.965c-0.028-0.746 0.027-1.492 0.16-2.238 0.055-0.746 0.094-1.867 0.121-3.363-0.426 0.16-1.535 1.148-3.32 2.961-1.227 1.336-1.907 2.64-2.039 3.922-0.801 3.918-1.364 6.464-1.68 7.64h6.637c-0.106-6.535-0.067-9.508 0.121-8.922z" inkscape:connector-curvature="0"/>
          </g>
        </g>
      </g>
      <path id="path172" style="fill-rule:evenodd;fill:#6e7338" d="m16.719 1.286c1.652 1.601 2.722 3.332 3.203 5.199 0.344 1.308 0.613 2.535 0.797 3.68l0.16 1.281 0.723-3.199v-0.043c-0.137-0.559-0.297-1.157-0.481-1.797-0.133-0.375-0.281-0.735-0.441-1.082-0.586-1.387-1.442-2.575-2.559-3.559-0.562-0.48-1.066-0.828-1.519-1.039l0.078 0.559h0.039z" inkscape:connector-curvature="0"/>
      <g id="g174">
        <g id="g176">
          <g id="g182">
            <path id="path190" style="fill-rule:evenodd;fill:url(#linearGradient184)" d="m21.602 8.247-0.723 3.199-0.16-1.281c-0.184-1.145-0.453-2.372-0.797-3.68-0.481-1.867-1.551-3.598-3.203-5.199 0.027 0.425 0.054 1.05 0.082 1.879 0.051 1.066-0.028 2.214-0.242 3.441-0.211 1.281-0.493 2.266-0.84 2.961l-0.16 0.398c-0.141 0.45-0.727 2.422-1.758 5.922h7.84v-7.84c-0.016 0.09-0.032 0.184-0.039 0.278v-0.078z" inkscape:connector-curvature="0"/>
          </g>
        </g>
      </g>
      <g id="g192">
        <g id="g194">
          <g id="g200">
            <path id="path208" style="fill-rule:evenodd;fill:url(#linearGradient202)" d="m15.559 9.786c-0.004 0.019-0.012 0.039-0.02 0.058l0.02-0.039v-0.019zm-9.618-6.301h0.02l0.019-0.02-0.039 0.02z" inkscape:connector-curvature="0"/>
          </g>
        </g>
      </g>
      <path id="path210" style="fill-rule:evenodd;fill:#6e7338" d="m5.941 3.485 0.039-0.02c0.04-0.011 0.086-0.035 0.141-0.058 0.024 0 0.067-0.016 0.117-0.043 0.508-0.106 1.203-0.039 2.082 0.203 1.496 0.469 2.657 1.176 3.481 2.117-0.387-0.418-0.84-0.793-1.36-1.117 0.614 0.41 1.133 0.902 1.559 1.48 0.246 0.332 0.465 0.684 0.66 1.059-0.047-0.113-0.09-0.227-0.14-0.34 0.242 0.426 0.441 0.879 0.601 1.359 0.184 0.454 0.32 0.922 0.399 1.399 0.054 0.297 0.105 0.574 0.16 0.84 0.027 0.242 0.039 0.48 0.039 0.722v0.039l0.16 0.641c0.027 0.078 0.043 0.16 0.043 0.238 0.266-0.293 0.519-0.574 0.758-0.839l0.082-0.079c0.133-0.132 0.25-0.265 0.359-0.402 0.012-0.016 0.024-0.035 0.039-0.059 0.172-0.269 0.301-0.531 0.379-0.781 0.008-0.019 0.016-0.039 0.02-0.058v-0.02l-0.481-1.48c-0.558-1.602-1.492-2.879-2.797-3.84-1.203-0.906-2.453-1.465-3.761-1.68h-0.481c-0.105 0-0.199-0.016-0.277-0.039-0.25 0.016-0.477 0.051-0.684 0.098-0.238 0.043-0.457 0.109-0.656 0.199 0.078-0.051 0.156-0.098 0.238-0.137-0.39 0.133-0.715 0.348-0.98 0.637-0.028 0.027-0.051 0.055-0.078 0.082l-0.043 0.039c0.031-0.027 0.054-0.039 0.082-0.039 0.05-0.027 0.101-0.055 0.16-0.082l-0.039 0.043-0.043 0.039c0.027-0.027 0.054-0.039 0.082-0.039l0.039-0.043c0.031-0.008 0.062-0.024 0.101-0.039z" inkscape:connector-curvature="0"/>
      <g id="g212">
        <g id="g214">
          <g id="g220">
            <path id="path228" style="fill-rule:evenodd;fill:url(#linearGradient222)" d="m15.16 10.625c-0.015 0.024-0.027 0.043-0.039 0.059-0.109 0.137-0.226 0.27-0.359 0.402l-0.082 0.079c-0.239 0.265-0.492 0.546-0.758 0.839 0-0.078-0.016-0.16-0.043-0.238l-0.16-0.641v-0.039c0-0.242-0.012-0.48-0.039-0.722-0.051-0.266-0.106-0.547-0.16-0.84-0.079-0.477-0.215-0.945-0.399-1.399-0.16-0.48-0.359-0.933-0.601-1.359 0.05 0.113 0.093 0.227 0.14 0.34-0.195-0.375-0.414-0.727-0.66-1.059-0.43-0.578-0.949-1.07-1.559-1.48 0.52 0.324 0.973 0.699 1.36 1.117-0.824-0.941-1.985-1.648-3.481-2.117-0.879-0.242-1.574-0.309-2.082-0.203-0.05 0.027-0.093 0.043-0.117 0.043-0.055 0.023-0.101 0.047-0.141 0.058 0.469-0.144 1.082-0.132 1.84 0.039-0.933-0.187-1.648-0.14-2.14 0.141-0.028 0.055-0.067 0.121-0.121 0.199l-0.321 0.481 0.321-0.121c0.269-0.079 0.574-0.09 0.921-0.039 0.106 0 0.239 0.015 0.399 0.039 0.402 0.136 0.828 0.386 1.281 0.761 0.106 0.082 0.215 0.16 0.32 0.239 0.399 0.402 0.719 0.843 0.961 1.32 0.079 0.215 0.161 0.441 0.239 0.68 0.132 0.507 0.175 1.148 0.121 1.921-0.028 0.239-0.067 0.481-0.121 0.719 0.027 0.535-0.039 1.215-0.2 2.043-0.265 1.278-0.519 2.543-0.761 3.797 0.375 0.082 0.773 0.149 1.203 0.203h5.519l0.161-1v-5.121c-0.118 0.418-0.29 0.758-0.524 1.02l0.082-0.161z" inkscape:connector-curvature="0"/>
          </g>
        </g>
      </g>
      <path id="path230" style="fill-rule:evenodd;fill:#f6ff98" d="m1.102 8.407c-0.09 0.039-0.164 0.078-0.223 0.117-0.149 0.059-0.285 0.117-0.399 0.18 0.098 0.015 0.2 0.027 0.301 0.043-0.074 0.035-0.148 0.066-0.222 0.097l0.32 0.043c0.973 0.215 1.707 0.43 2.199 0.637 0.496 0.211 0.961 0.633 1.402 1.262 0.442 0.632 0.715 1.14 0.821 1.519 0.101 0.375 0.191 0.715 0.258 1.02 0.113 0.601 0.179 1.222 0.203 1.859-0.047 0.223-0.059 0.453-0.043 0.703 0 0.344 0.109 0.613 0.32 0.797 0.027 0 0.039-0.012 0.039-0.039 0.027 0 0.055-0.012 0.082-0.039 0.028 0 0.039 0.012 0.039 0.039 0.055 0.027 0.094 0.027 0.121 0 0.106-0.215 0.145-0.453 0.121-0.719h-0.043c-0.007-0.125-0.015-0.25-0.019-0.379-0.012-0.062-0.024-0.121-0.039-0.183 0.008-0.02 0.015-0.039 0.019-0.059v-0.621c-0.023-0.48-0.05-0.961-0.078-1.437-0.019-0.254-0.039-0.508-0.062-0.762-0.004-0.027-0.012-0.051-0.02-0.078l0.02 0.019c-0.02-0.246-0.039-0.496-0.059-0.742-0.082-0.531-0.851-1.531-2.32-3-0.039-0.016-0.078-0.027-0.121-0.039l-0.16-0.059c-0.153-0.058-0.305-0.105-0.457-0.14h-0.223c-0.184 0-0.371-0.016-0.559-0.039-0.433-0.078-0.843-0.078-1.218 0z" inkscape:connector-curvature="0"/>
      <path id="path232" style="fill-rule:evenodd;fill:#6e7338" d="m1.102 8.407c0.031-0.016 0.062-0.028 0.097-0.043 0.133 0 0.309-0.028 0.52-0.078 0.215-0.028 0.453-0.067 0.722-0.121 0.106 0 0.227-0.012 0.36-0.04h0.238c0.348-0.054 0.695-0.078 1.039-0.078 0.988 0.051 1.867 0.305 2.641 0.758 0.269 0.133 0.519 0.293 0.761 0.481 0.481 0.425 0.868 0.933 1.161 1.519 0.078 0.188 0.16 0.375 0.238 0.559 0.055 0.16 0.101 0.312 0.141 0.461 0.039 0.144 0.074 0.285 0.101 0.422 0.024 0.05 0.039 0.105 0.039 0.16 0.028 0.078 0.055 0.172 0.078 0.277 0.028-0.023 0.055-0.039 0.082-0.039v-0.039l0.121-0.441c0-0.051 0.012-0.094 0.039-0.118 0.055-0.269 0.094-0.507 0.122-0.722v-0.239c0.023-0.16 0.039-0.308 0.039-0.441v-0.48c0-0.051-0.016-0.094-0.039-0.118-0.055-0.109-0.11-0.187-0.161-0.242-0.054-0.105-0.109-0.199-0.16-0.281-0.027-0.051-0.054-0.094-0.082-0.117-0.238-0.293-0.519-0.574-0.84-0.84-0.16-0.082-0.32-0.176-0.48-0.281l-1.399-0.719c-0.082-0.027-0.16-0.067-0.242-0.121-0.453-0.133-0.879-0.227-1.277-0.281-0.746-0.106-1.508-0.106-2.281 0-0.106 0.027-0.215 0.066-0.321 0.121-0.824 0.132-1.453 0.441-1.879 0.918-0.082 0.109-0.148 0.214-0.199 0.32l-0.242 0.48-0.039 0.043 0.199-0.16c0.078-0.066 0.172-0.125 0.281-0.183 0.114-0.063 0.25-0.121 0.399-0.18 0.059-0.039 0.133-0.078 0.223-0.117z" inkscape:connector-curvature="0"/>
      <g id="g234">
        <g id="g236">
          <g id="g242">
            <path id="path250" style="fill-rule:evenodd;fill:url(#linearGradient244)" d="m9.02 11.825c-0.086-0.266-0.184-0.539-0.301-0.821-0.371-0.824-0.946-1.492-1.719-2-1.012-0.64-2.199-0.918-3.559-0.839l-1.32 0.199c0.309-0.012 0.621 0.015 0.938 0.082h0.043c0.152 0.035 0.304 0.082 0.457 0.14l0.16 0.059c0.043 0.012 0.082 0.023 0.121 0.039 1.465 1.469 2.238 2.469 2.32 3 0.02 0.246 0.039 0.496 0.059 0.742v0.059c0.023 0.254 0.043 0.508 0.062 0.762 0.028 0.476 0.055 0.957 0.078 1.437v0.32c0.004 0.188 0.012 0.368 0.02 0.543 0.008 0.129 0.012 0.254 0.019 0.379h0.043c0.684 0.305 1.629 0.278 2.84-0.082l-0.043-3.16c-0.023-0.105-0.05-0.199-0.078-0.277 0-0.055-0.015-0.11-0.039-0.16-0.027-0.137-0.062-0.278-0.101-0.422z" inkscape:connector-curvature="0"/>
          </g>
        </g>
      </g>
      <path id="path252" style="fill-rule:evenodd;fill:#387347" d="m42.102 13.567h-0.024c0 0.023-0.012 0.051-0.039 0.078s-0.078 0.066-0.16 0.121c0.027 0.027 0.043 0.067 0.043 0.121 0.051-0.054 0.09-0.094 0.117-0.121 0.035-0.07 0.055-0.137 0.063-0.199z" inkscape:connector-curvature="0"/>
      <path id="path254" style="fill-rule:evenodd;fill:#6e7338" d="m41.898 13.165c0.059 0.082 0.118 0.175 0.18 0.281 0.012 0.039 0.02 0.078 0.024 0.121 0.043-0.039 0.089-0.117 0.136-0.242l0.063-0.059c0.097 0.109 0.199 0.223 0.301 0.34 0.132 0.16 0.277 0.281 0.437 0.359l-0.098-0.539c-0.101-0.465-0.246-0.992-0.441-1.582-0.047-0.14-0.121-0.273-0.219-0.398-0.109-0.188-0.226-0.348-0.359-0.481-0.027-0.054-0.082-0.093-0.16-0.121-0.617-0.586-1.535-0.945-2.762-1.078-0.266-0.027-0.535-0.027-0.801 0-0.211 0-0.414 0.012-0.597 0.039-0.723 0.055-1.297 0.254-1.723 0.602-0.184 0.16-0.359 0.32-0.52 0.48-0.027 0.051-0.05 0.117-0.078 0.199-0.48 0.719-0.722 1.801-0.722 3.239-0.024 0.453-0.024 0.972 0 1.562v0.039c0.054 0 0.121 0.012 0.203 0.039v-0.16c0.027-0.125 0.05-0.25 0.078-0.379l0.199-0.742c0.203-0.633 0.445-1.195 0.723-1.68 0.531-0.773 1.304-1.199 2.316-1.277 0.074-0.008 0.149-0.012 0.223-0.023 0.031-0.004 0.062-0.008 0.097-0.02h0.442c0.203 0.012 0.39 0.027 0.558 0.043 0.321 0.023 0.614 0.078 0.883 0.16 0.196 0.074 0.383 0.168 0.559 0.278 0.133 0.082 0.265 0.171 0.398 0.281 0.215 0.16 0.414 0.375 0.602 0.64 0.015 0.02 0.035 0.047 0.058 0.079z" inkscape:connector-curvature="0"/>
      <g id="g256">
        <g id="g258">
          <g id="g264">
            <path id="path272" style="fill-rule:evenodd;fill:url(#linearGradient266)" d="m34.762 15.965c0.343 0.188 0.636 0.227 0.879 0.121 0.48-1.093 0.718-1.656 0.718-1.679 0.746-1.043 1.735-1.614 2.961-1.723 0.586-0.023 1.028-0.023 1.321 0 0.265 0.055 0.464 0.109 0.597 0.16 0.215 0.11 0.414 0.242 0.602 0.403 0.023-0.032 0.043-0.059 0.058-0.082-0.023-0.032-0.043-0.059-0.058-0.079-0.188-0.265-0.387-0.48-0.602-0.64-0.133-0.106-0.265-0.199-0.398-0.281-0.176-0.11-0.363-0.204-0.559-0.278-0.269-0.082-0.562-0.137-0.883-0.16-0.168-0.016-0.355-0.031-0.558-0.043h-0.442c-0.035 0.012-0.066 0.016-0.097 0.02-0.074 0.011-0.149 0.015-0.223 0.023-1.012 0.078-1.785 0.504-2.316 1.277-0.278 0.485-0.52 1.047-0.723 1.68l-0.199 0.742c-0.028 0.129-0.051 0.254-0.078 0.379v0.16z" inkscape:connector-curvature="0"/>
          </g>
        </g>
      </g>
      <path id="path274" style="fill-rule:evenodd;fill:#f6ff98" d="m6.34 15.887h-0.539l0.039 0.84h0.039v0.758h0.5c-0.004-0.277-0.008-0.559-0.02-0.84-0.004-0.25-0.011-0.504-0.019-0.758z" inkscape:connector-curvature="0"/>
      <g id="g276">
        <g id="g278">
          <g id="g284">
            <path id="path292" style="fill-rule:evenodd;fill:url(#linearGradient286)" d="m6.379 17.485h24.699c-0.008-0.293-0.016-0.574-0.019-0.84 0.003-0.266 0.003-0.52 0-0.758h-24.719c0.008 0.254 0.015 0.508 0.019 0.758 0.012 0.281 0.016 0.563 0.02 0.84z" inkscape:connector-curvature="0"/>
          </g>
        </g>
      </g>
      <g id="g294">
        <g id="g296">
          <g id="g302">
            <path id="path310" style="fill-rule:evenodd;fill:url(#linearGradient304)" d="m31.059 15.887c0.003 0.238 0.003 0.492 0 0.758 0.003 0.266 0.011 0.547 0.019 0.84h5c-0.027-0.297-0.058-0.578-0.098-0.84-0.035-0.273-0.074-0.527-0.121-0.758h-4.8z" inkscape:connector-curvature="0"/>
          </g>
        </g>
      </g>
      <path id="path312" style="fill-rule:evenodd;fill:#3b3526" d="m27.078 21.926c-0.211-0.453-0.094-0.855 0.363-1.199 0.559-0.402 0.934-0.387 1.118 0.039 0.296 0.375 0.175 0.774-0.36 1.199-0.48 0.321-0.851 0.309-1.121-0.039zm-1.558 0.239c0.425 0.425 0.921 0.64 1.48 0.64 0.613 0 1.133-0.215 1.559-0.64 0.402-0.481 0.601-1.04 0.601-1.68 0-0.641-0.199-1.188-0.601-1.641-0.426-0.48-0.946-0.719-1.559-0.719-0.559 0-1.055 0.239-1.48 0.719-0.399 0.453-0.602 1-0.602 1.641 0 0.64 0.203 1.199 0.602 1.68zm2.32-3.239c-0.399-0.082-0.856 0.012-1.36 0.282-0.453 0.21-0.773 0.492-0.96 0.839l-0.2 0.559v-0.68c0.133-0.48 0.414-0.855 0.84-1.121 0.641-0.398 1.199-0.359 1.68 0.121zm-17.68 2.598c0.453-0.371 0.801-0.359 1.039 0.043 0.16 0.453 0.016 0.851-0.437 1.199-0.481 0.32-0.817 0.281-1-0.121-0.215-0.398-0.082-0.773 0.398-1.121zm-1.84 1.242c0.399 0.481 0.852 0.746 1.36 0.801 0.535 0.023 1-0.176 1.398-0.602 0.402-0.453 0.617-1 0.641-1.64 0.054-0.641-0.106-1.2-0.481-1.68-0.343-0.426-0.785-0.664-1.32-0.719-0.559-0.027-1.039 0.172-1.438 0.598-0.402 0.453-0.613 1-0.64 1.641-0.055 0.64 0.105 1.175 0.48 1.601zm2.282-3.039c-0.375-0.137-0.801-0.082-1.282 0.16-0.347 0.211-0.64 0.492-0.879 0.84l-0.203 0.559 0.082-0.68c0.078-0.508 0.332-0.879 0.758-1.121 0.617-0.371 1.121-0.293 1.524 0.242z" inkscape:connector-curvature="0"/>
      <path id="path314" style="fill-rule:evenodd;fill:#ffffff" d="m27.078 21.926c0.27 0.348 0.641 0.36 1.121 0.039 0.535-0.425 0.656-0.824 0.36-1.199-0.184-0.426-0.559-0.441-1.118-0.039-0.457 0.344-0.574 0.746-0.363 1.199zm-16.918-0.402c-0.48 0.348-0.613 0.723-0.398 1.121 0.183 0.402 0.519 0.441 1 0.121 0.453-0.348 0.597-0.746 0.437-1.199-0.238-0.402-0.586-0.414-1.039-0.043z" inkscape:connector-curvature="0"/>
      <path id="path316" style="fill-rule:evenodd;fill:#5c4f2e" d="m27.84 18.926c-0.481-0.48-1.039-0.519-1.68-0.121-0.426 0.266-0.707 0.641-0.84 1.121v0.68l0.2-0.559c0.187-0.347 0.507-0.629 0.96-0.839 0.504-0.27 0.961-0.364 1.36-0.282zm-17.238 0.801c-0.403-0.535-0.907-0.613-1.524-0.242-0.426 0.242-0.68 0.613-0.758 1.121l-0.082 0.68 0.203-0.559c0.239-0.348 0.532-0.629 0.879-0.84 0.481-0.242 0.907-0.297 1.282-0.16z" inkscape:connector-curvature="0"/>
    </g>
  </g>
<metadata><rdf:RDF><cc:Work><dc:format>image/svg+xml</dc:format><dc:type rdf:resource="http://purl.org/dc/dcmitype/StillImage"/><cc:license rdf:resource="http://creativecommons.org/licenses/publicdomain/"/><dc:publisher><cc:Agent rdf:about="http://openclipart.org/"><dc:title>Openclipart</dc:title></cc:Agent></dc:publisher></cc:Work><cc:License rdf:about="http://creativecommons.org/licenses/publicdomain/"><cc:permits rdf:resource="http://creativecommons.org/ns#Reproduction"/><cc:permits rdf:resource="http://creativecommons.org/ns#Distribution"/><cc:permits rdf:resource="http://creativecommons.org/ns#DerivativeWorks"/></cc:License></rdf:RDF></metadata></svg>
