<?xml version="1.0" encoding="UTF-8"?>
<!DOCTYPE svg PUBLIC "-//W3C//DTD SVG 1.1//EN" "http://www.w3.org/Graphics/SVG/1.1/DTD/svg11.dtd">
<svg version="1.1" xmlns="http://www.w3.org/2000/svg" xmlns:xlink="http://www.w3.org/1999/xlink" x="0" y="0" width="56.799" height="67.607" viewBox="0, 0, 56.799, 67.607">
  <defs>
    <clipPath id="Clip_1">
      <path d="M-1,-1.25 L57.799,-1.25 L57.799,68.857 L-1,68.857 z M14.143,5.693 C14.216,5.708 14.196,5.69 14.221,5.716 L14.143,5.693 L14.143,5.693 z M16.402,6.149 L16.403,6.15 L16.193,6.152 L16.402,6.149 z M29.709,6.335 C30.651,6.357 30.019,6.339 31.607,6.411 C30.191,6.35 30.823,6.373 29.709,6.335 z M15.718,6.159 C15.016,6.178 15.38,6.165 14.625,6.198 C14.522,6.198 14.44,6.218 14.376,6.252 C13.83,6.441 14.027,6.451 13.816,6.437 L14.351,6.252 C14.415,6.218 14.497,6.198 14.6,6.198 C15.522,6.159 15.149,6.167 15.718,6.159 z M13.047,6.349 L13.053,6.353 L12.352,6.471 L13.047,6.349 z M20.075,6.149 C20.109,6.218 19.991,6.281 19.724,6.349 C19.625,6.349 19.376,6.398 18.976,6.501 C18.618,6.565 18.744,6.568 18.604,6.563 L18.951,6.501 C19.351,6.398 19.6,6.349 19.699,6.349 C19.966,6.281 20.084,6.218 20.05,6.149 L20.075,6.149 z M12.302,6.48 C11.689,6.67 11.948,6.596 11.529,6.711 L12.01,6.53 L12.302,6.48 z M10.888,6.927 C10.468,7.274 10.673,7.1 10.275,7.448 C10.201,7.576 10.134,7.746 10.075,7.951 C9.777,8.977 9.625,10.973 9.625,13.952 C9.625,14.451 9.66,16.852 9.724,21.149 C9.757,22.883 9.694,29.851 9.522,42.048 C9.522,42.687 9.519,43.337 9.499,44.001 L9.474,44.001 C9.494,43.337 9.497,42.687 9.497,42.048 C9.669,29.851 9.732,22.883 9.699,21.149 C9.635,16.852 9.6,14.451 9.6,13.952 C9.6,10.973 9.752,8.977 10.05,7.951 C10.109,7.746 10.176,7.576 10.25,7.448 C10.44,7.252 10.616,7.008 10.888,6.927 z M9.428,46.638 L9.427,46.659 L9.425,46.652 L9.428,46.638 z M9.46,46.749 C9.454,46.871 9.459,46.754 9.449,47.102 L9.449,46.749 L9.46,46.749 z M13.054,49.544 L13.214,50.334 L13.15,50.099 L13.15,50.051 L13.099,50.037 L13.047,50.002 L13.054,49.544 z M9.274,50.251 L9.274,50.324 L9.249,50.348 C9.259,50.314 9.269,50.284 9.274,50.251 z M53.047,50.299 C52.881,50.437 52.716,50.548 52.55,50.651 C52.716,50.548 52.881,50.432 53.047,50.299 L53.047,50.299 z M46.905,50.327 L48.002,50.932 C47.603,50.791 47.255,50.566 46.905,50.327 z M13.502,51.982 L13.511,52.067 L13.502,51.999 L13.502,51.982 z M12.775,51.076 C12.725,51.262 12.667,51.452 12.599,51.652 C12.501,51.882 12.399,52.116 12.301,52.351 L12.035,52.778 L12.399,52.102 C12.545,51.749 12.667,51.408 12.775,51.076 L12.775,51.076 z M11.985,52.859 C11.453,53.713 11.802,53.227 10.85,54.249 C10.547,54.484 10.235,54.684 9.899,54.851 C8.931,55.417 7.832,55.734 6.597,55.798 C6.167,55.798 5.734,55.768 5.299,55.701 L5.001,55.701 C4.835,55.666 4.684,55.651 4.551,55.651 C4.215,55.583 3.917,55.534 3.649,55.499 C3.385,55.437 3.165,55.402 2.999,55.402 C2.955,55.383 2.916,55.368 2.877,55.348 C3.346,55.446 3.859,55.446 4.4,55.348 C4.635,55.319 4.869,55.299 5.099,55.299 L5.324,55.299 C4.927,55.383 4.537,55.417 4.151,55.402 L5.801,55.651 C7.501,55.749 8.985,55.402 10.25,54.602 C11.359,53.762 10.743,54.303 11.985,52.859 L11.985,52.859 z M16.5,58.298 C16.212,58.628 15.937,58.973 15.627,59.282 L16.5,58.298 z M15.531,59.431 C15.448,59.509 15.489,59.476 15.41,59.532 L15.531,59.431 z M16.251,58.752 C15.977,59.023 15.721,59.314 15.421,59.558 L16.251,58.752 z M15.389,59.586 C15.389,59.586 15.389,59.586 15.388,59.586 C15.271,59.657 15.154,59.729 15.037,59.8 L15.389,59.586 z M15.598,59.311 C15.367,59.542 15.073,59.704 14.832,59.925 L14.827,59.927 L14.827,59.928 C14.322,60.239 13.828,60.574 13.305,60.853 L14.827,59.927 L15.598,59.311 z M13.172,60.922 C12.934,61.046 13.15,60.935 12.492,61.18 L11.9,61.398 L13.172,60.922 z M20.564,1.75 C17.543,1.771 18.776,1.742 16.864,1.798 L16.7,1.907 C15.769,2.342 14.844,2.786 13.951,3.298 C12.789,3.869 11.812,4.484 11.026,5.148 C10.929,5.236 10.836,5.319 10.747,5.402 L10.441,5.702 L10.201,5.973 C9.947,6.124 9.699,6.418 9.449,6.852 C9.215,7.248 9.097,7.584 9.097,7.848 L8.855,44.001 L8.849,44.001 L8.849,44.948 L8.8,44.948 L8.776,45.388 C8.638,45.583 8.752,45.41 8.649,45.998 C8.629,46.311 8.644,46.598 8.702,46.877 C8.672,47.673 8.59,48.449 8.449,49.201 C8.365,49.582 8.252,50.007 8.126,50.476 C7.994,50.949 7.652,51.584 7.1,52.374 C6.549,53.161 5.967,53.688 5.347,53.952 C4.732,54.211 3.815,54.479 2.599,54.748 L2.199,54.802 C2.291,54.841 2.384,54.879 2.476,54.923 L2.287,54.95 L2.1,54.977 C1.964,54.904 1.846,54.831 1.749,54.748 L1.5,54.548 L1.549,54.602 L1.851,55.202 C1.915,55.334 1.997,55.466 2.1,55.602 C2.632,56.198 3.419,56.584 4.449,56.749 C4.581,56.818 4.717,56.867 4.85,56.901 C5.816,57.033 6.769,57.033 7.701,56.901 C8.199,56.833 8.731,56.716 9.297,56.549 C9.4,56.482 9.497,56.432 9.6,56.398 L11.349,55.499 C11.549,55.368 11.749,55.251 11.949,55.148 C12.35,54.816 12.701,54.464 12.999,54.098 C13.034,54.069 13.067,54.016 13.101,53.952 C13.165,53.849 13.234,53.732 13.301,53.601 C13.365,53.532 13.434,53.434 13.502,53.298 C13.531,53.268 13.551,53.214 13.551,53.151 L13.551,52.551 L13.544,52.404 C13.621,53.194 13.605,52.811 13.6,53.552 C13.667,53.849 13.716,54.152 13.751,54.451 C13.819,55.417 13.765,56.218 13.6,56.852 C13.502,57.151 13.4,57.433 13.301,57.702 C12.999,58.298 12.599,58.849 12.1,59.352 C11.969,59.451 11.832,59.548 11.7,59.651 C11.134,60.119 10.601,60.432 10.099,60.602 C9.899,60.632 9.732,60.651 9.6,60.651 C9.166,60.714 8.785,60.701 8.449,60.602 L8.047,60.451 L8.449,61.052 C8.516,61.149 8.565,61.232 8.6,61.301 C9.215,61.652 10.109,61.711 11.275,61.477 C10.327,61.691 9.561,61.706 8.975,61.526 L8.951,61.501 L8.926,61.501 C8.877,61.482 8.839,61.462 8.8,61.452 L8.751,61.398 C8.716,61.398 8.682,61.383 8.649,61.349 L8.702,61.398 L8.751,61.452 C8.677,61.418 8.614,61.383 8.551,61.349 C8.516,61.349 8.487,61.334 8.449,61.301 L8.502,61.349 C8.536,61.383 8.565,61.418 8.6,61.452 C8.931,61.813 9.337,62.082 9.825,62.248 C9.722,62.199 9.625,62.141 9.527,62.077 C9.776,62.189 10.05,62.272 10.347,62.326 C10.606,62.384 10.89,62.428 11.202,62.448 C11.3,62.419 11.417,62.399 11.549,62.399 L12.15,62.399 C13.785,62.131 15.347,61.432 16.851,60.299 C18.482,59.098 19.65,57.502 20.347,55.499 L20.949,53.649 L20.949,53.601 L20.924,53.552 C20.826,53.239 20.665,52.912 20.45,52.576 L20.347,52.374 C20.64,52.702 20.855,53.127 21.002,53.649 L21.002,53.534 L21.149,53.898 C21.582,54.767 21.935,55.998 22.199,57.599 C22.466,59.133 22.565,60.568 22.501,61.901 C22.466,62.937 22.432,63.718 22.399,64.249 L22.35,64.249 L22.252,64.948 C22.819,64.684 23.449,64.249 24.151,63.649 C25.547,62.419 26.617,60.934 27.35,59.201 C27.55,58.767 27.735,58.317 27.901,57.848 C28.131,57.048 28.331,56.301 28.502,55.602 L28.502,55.548 L28.538,55.717 L28.551,55.798 L28.551,55.782 C28.921,57.552 29.792,59.147 31.051,60.451 C33.282,62.717 34.669,63.952 35.201,64.152 C35.175,62.91 35.157,61.668 35.079,60.428 C35.576,61.433 35.198,60.722 36.403,62.448 C36.7,62.784 37.051,63.132 37.452,63.498 C37.584,63.634 37.716,63.752 37.847,63.849 C38.316,64.284 38.869,64.684 39.498,65.051 C39.635,65.182 40.015,65.368 40.65,65.602 C41.251,65.798 41.833,65.881 42.399,65.852 C42.931,65.783 43.165,65.734 43.101,65.701 L43.025,65.612 L42.999,65.548 L43.047,65.499 C43.116,65.499 43.185,65.466 43.247,65.402 C42.847,65.402 42.417,65.084 41.949,64.451 C41.451,63.816 41.065,63.117 40.801,62.351 C40.499,61.549 40.319,60.701 40.25,59.802 C40.181,59.034 40.132,57.868 40.099,56.301 L40.099,54.975 C40.6,55.674 40.292,55.408 41.002,55.798 C42.266,56.272 43.35,56.828 44.249,57.477 C45.152,58.117 45.66,59.113 45.777,60.476 C45.792,60.857 45.699,61.334 45.499,61.901 C45.299,62.468 45.084,62.868 44.85,63.102 C45.65,63.102 46.319,62.766 46.851,62.102 C47.584,61.198 47.95,59.767 47.95,57.799 C47.883,56.303 47.826,54.833 47.42,53.362 C48.064,53.586 47.706,53.495 48.502,53.601 C48.731,53.634 48.985,53.649 49.249,53.649 C49.581,53.683 49.917,53.683 50.25,53.649 C51.784,53.483 52.931,53.034 53.702,52.302 C53.8,52.267 53.869,52.218 53.902,52.151 C54.069,51.984 54.215,51.784 54.351,51.549 C54.474,51.393 54.566,51.227 54.625,51.052 C54.869,50.314 55.05,49.656 55.176,49.074 L55.299,48.401 C54.969,48.468 54.688,48.562 54.361,48.882 C54.222,49.018 54.097,49.049 53.8,49.298 C53.563,49.497 53.316,49.664 53.047,49.802 C52.881,49.866 52.632,49.933 52.301,50.002 C51.935,50.031 51.382,50.031 50.65,50.002 C49.117,49.866 47.881,49.152 46.949,47.848 C46.771,47.378 46.913,47.749 46.487,46.749 L46.3,46.149 C46.31,46.101 46.319,46.052 46.324,45.998 C46.382,45.709 46.431,45.392 46.475,45.051 C46.525,44.723 46.564,44.372 46.597,44.001 C46.749,42.331 46.843,42.982 46.843,41.831 C46.843,40.312 46.9,37.132 46.9,32.451 L46.9,18.201 C46.769,9.499 46.7,4.982 46.7,4.651 C46.7,4.352 46.569,3.952 46.3,3.449 C45.763,2.753 46.044,2.922 45.638,2.72 C45.478,2.594 45.584,2.664 45.299,2.551 L45.638,2.72 L45.801,2.848 C46.735,3.982 45.919,5.002 43.35,5.901 C40.675,6.673 42.027,6.349 39.294,6.873 L39.258,6.844 C41.839,6.349 40.537,6.659 43.162,5.901 C45.731,5.002 46.547,3.982 45.614,2.848 C45.444,2.682 45.277,2.584 45.111,2.551 C42.68,2.316 37.977,2.116 31.015,1.951 C27.532,1.856 24.048,1.763 20.564,1.75 z"/>
    </clipPath>
    <filter id="Shadow_2">
      <feGaussianBlur in="SourceAlpha" stdDeviation="0.75"/>
      <feOffset dx="0" dy="0.5" result="offsetblur"/>
      <feFlood flood-color="#000000"/>
      <feComposite in2="offsetblur" operator="in"/>
    </filter>
    <linearGradient id="Gradient_1" gradientUnits="userSpaceOnUse" x1="-1081.057" y1="-15083.76" x2="-1031.557" y2="-15083.76" gradientTransform="matrix(0.14, 0.99, 0.99, -0.14, 15123.75, -1037.906)">
      <stop offset="0" stop-color="#61BA77"/>
      <stop offset="1" stop-color="#49945C"/>
    </linearGradient>
    <linearGradient id="Gradient_2" gradientUnits="userSpaceOnUse" x1="-1073.454" y1="-15098.735" x2="-1023.954" y2="-15098.735" gradientTransform="matrix(0.14, 0.99, 0.99, -0.14, 15123.75, -1037.906)">
      <stop offset="0" stop-color="#B5BA5F"/>
      <stop offset="1" stop-color="#909449"/>
    </linearGradient>
    <linearGradient id="Gradient_3" gradientUnits="userSpaceOnUse" x1="-10.161" y1="-16303.5" x2="38.589" y2="-16303.5" gradientTransform="matrix(0, 1, 1, 0.001, 16346.25, 31.756)">
      <stop offset="0" stop-color="#ABB05B"/>
      <stop offset="1" stop-color="#818541"/>
    </linearGradient>
    <radialGradient id="Gradient_4" gradientUnits="userSpaceOnUse" cx="-1.673" cy="11.6" r="16.4" gradientTransform="matrix(1, 0, 0, 1, 22.45, -5.499)">
      <stop offset="0" stop-color="#FFFFFF"/>
      <stop offset="1" stop-color="#FFFFFF"/>
    </radialGradient>
    <clipPath id="Clip_3">
      <path d="M33.026,9.049 C35.062,9.382 36.23,10.217 36.527,11.549 C36.825,12.784 36.425,14.216 35.326,15.852 C32.728,19.651 29.076,21.964 24.378,22.799 C19.911,23.566 16.625,23.434 14.525,22.399 C12.528,21.398 11.458,19.548 11.327,16.852 C11.23,14.382 11.396,12.536 11.825,11.301 C12.162,10.299 12.757,9.548 13.627,9.049 C14.325,8.649 17.542,8.498 23.275,8.601 C28.51,8.698 31.762,8.849 33.026,9.049 z"/>
    </clipPath>
    <linearGradient id="Gradient_5" gradientUnits="userSpaceOnUse" x1="-7.565" y1="-16303.5" x2="41.185" y2="-16303.5" gradientTransform="matrix(0, 1, 1, 0.001, 16346.25, 31.756)">
      <stop offset="0" stop-color="#ABB05B"/>
      <stop offset="1" stop-color="#818541"/>
    </linearGradient>
    <linearGradient id="Gradient_6" gradientUnits="userSpaceOnUse" x1="-1070.157" y1="-15089.76" x2="-1020.657" y2="-15089.76" gradientTransform="matrix(0.14, 0.99, 0.99, -0.14, 15123.75, -1037.906)">
      <stop offset="0" stop-color="#B5BA5F"/>
      <stop offset="1" stop-color="#909449"/>
    </linearGradient>
    <linearGradient id="Gradient_7" gradientUnits="userSpaceOnUse" x1="-1070.157" y1="-15095.76" x2="-1020.657" y2="-15095.76" gradientTransform="matrix(0.14, 0.99, 0.99, -0.14, 15123.75, -1037.906)">
      <stop offset="0" stop-color="#B5BA5F"/>
      <stop offset="1" stop-color="#909449"/>
    </linearGradient>
    <linearGradient id="Gradient_8" gradientUnits="userSpaceOnUse" x1="-1070.157" y1="-15102.76" x2="-1020.657" y2="-15102.76" gradientTransform="matrix(0.14, 0.99, 0.99, -0.14, 15123.75, -1037.906)">
      <stop offset="0" stop-color="#B5BA5F"/>
      <stop offset="1" stop-color="#909449"/>
    </linearGradient>
    <linearGradient id="Gradient_9" gradientUnits="userSpaceOnUse" x1="-1081.057" y1="-15112.76" x2="-1031.557" y2="-15112.76" gradientTransform="matrix(0.14, 0.99, 0.99, -0.14, 15123.75, -1037.906)">
      <stop offset="0" stop-color="#61BA77"/>
      <stop offset="1" stop-color="#49945C"/>
    </linearGradient>
    <linearGradient id="Gradient_10" gradientUnits="userSpaceOnUse" x1="-1070.157" y1="-15112.76" x2="-1020.657" y2="-15112.76" gradientTransform="matrix(0.14, 0.99, 0.99, -0.14, 15123.75, -1037.906)">
      <stop offset="0" stop-color="#B5BA5F"/>
      <stop offset="1" stop-color="#909449"/>
    </linearGradient>
    <linearGradient id="Gradient_11" gradientUnits="userSpaceOnUse" x1="-1070.157" y1="-15117.76" x2="-1020.657" y2="-15117.76" gradientTransform="matrix(0.14, 0.99, 0.99, -0.14, 15123.75, -1037.906)">
      <stop offset="0" stop-color="#B5BA5F"/>
      <stop offset="1" stop-color="#909449"/>
    </linearGradient>
    <linearGradient id="Gradient_12" gradientUnits="userSpaceOnUse" x1="-7.555" y1="-16296.39" x2="41.195" y2="-16296.39" gradientTransform="matrix(0, 1, 1, 0.001, 16346.25, 31.756)">
      <stop offset="0" stop-color="#ABB05B"/>
      <stop offset="1" stop-color="#818541"/>
    </linearGradient>
    <linearGradient id="Gradient_13" gradientUnits="userSpaceOnUse" x1="-1070.157" y1="-15100.76" x2="-1020.657" y2="-15100.76" gradientTransform="matrix(0.14, 0.99, 0.99, -0.14, 15123.75, -1037.906)">
      <stop offset="0" stop-color="#B5BA5F"/>
      <stop offset="1" stop-color="#909449"/>
    </linearGradient>
    <linearGradient id="Gradient_14" gradientUnits="userSpaceOnUse" x1="-7.565" y1="-16302.5" x2="41.185" y2="-16302.5" gradientTransform="matrix(0, 1, 1, 0.001, 16346.25, 31.756)">
      <stop offset="0" stop-color="#ABB05B"/>
      <stop offset="1" stop-color="#818541"/>
    </linearGradient>
  </defs>
  <g id="Layer_1">
    <g>
      <path d="M20.564,1.75 C24.048,1.763 27.532,1.856 31.015,1.951 C37.977,2.116 42.68,2.316 45.111,2.551 C45.277,2.584 45.444,2.682 45.614,2.848 C46.547,3.982 45.731,5.002 43.162,5.901 C40.537,6.659 41.839,6.349 39.258,6.844 L39.294,6.873 C42.027,6.349 40.675,6.673 43.35,5.901 C45.919,5.002 46.735,3.982 45.801,2.848 L45.638,2.72 L45.299,2.551 C45.584,2.664 45.478,2.594 45.638,2.72 C46.044,2.922 45.763,2.753 46.3,3.449 C46.569,3.952 46.7,4.352 46.7,4.651 C46.7,4.982 46.769,9.499 46.9,18.201 L46.9,32.451 C46.9,37.132 46.843,40.312 46.843,41.831 C46.843,42.982 46.749,42.331 46.597,44.001 C46.564,44.372 46.525,44.723 46.475,45.051 C46.431,45.392 46.382,45.709 46.324,45.998 C46.319,46.052 46.31,46.101 46.3,46.149 L46.487,46.749 C46.913,47.749 46.771,47.378 46.949,47.848 C47.881,49.152 49.117,49.866 50.65,50.002 C51.382,50.031 51.935,50.031 52.301,50.002 C52.632,49.933 52.881,49.866 53.047,49.802 C53.316,49.664 53.563,49.497 53.8,49.298 C54.097,49.049 54.222,49.018 54.361,48.882 C54.688,48.562 54.969,48.468 55.299,48.401 L55.176,49.074 C55.05,49.656 54.869,50.314 54.625,51.052 C54.566,51.227 54.474,51.393 54.351,51.549 C54.215,51.784 54.069,51.984 53.902,52.151 C53.869,52.218 53.8,52.267 53.702,52.302 C52.931,53.034 51.784,53.483 50.25,53.649 C49.917,53.683 49.581,53.683 49.249,53.649 C48.985,53.649 48.731,53.634 48.502,53.601 C47.706,53.495 48.064,53.586 47.42,53.362 C47.826,54.833 47.883,56.303 47.95,57.799 C47.95,59.767 47.584,61.198 46.851,62.102 C46.319,62.766 45.65,63.102 44.85,63.102 C45.084,62.868 45.299,62.468 45.499,61.901 C45.699,61.334 45.792,60.857 45.777,60.476 C45.66,59.113 45.152,58.117 44.249,57.477 C43.35,56.828 42.266,56.272 41.002,55.798 C40.292,55.408 40.6,55.674 40.099,54.975 L40.099,56.301 C40.132,57.868 40.181,59.034 40.25,59.802 C40.319,60.701 40.499,61.549 40.801,62.351 C41.065,63.117 41.451,63.816 41.949,64.451 C42.417,65.084 42.847,65.402 43.247,65.402 C43.185,65.466 43.116,65.499 43.047,65.499 L42.999,65.548 L43.025,65.612 L43.101,65.701 C43.165,65.734 42.931,65.783 42.399,65.852 C41.833,65.881 41.251,65.798 40.65,65.602 C40.015,65.368 39.635,65.182 39.498,65.051 C38.869,64.684 38.316,64.284 37.847,63.849 C37.716,63.752 37.584,63.634 37.452,63.498 C37.051,63.132 36.7,62.784 36.403,62.448 C35.198,60.722 35.576,61.433 35.079,60.428 C35.157,61.668 35.175,62.91 35.201,64.152 C34.669,63.952 33.282,62.717 31.051,60.451 C29.792,59.147 28.921,57.552 28.551,55.782 L28.551,55.798 L28.538,55.717 L28.502,55.548 L28.502,55.602 C28.331,56.301 28.131,57.048 27.901,57.848 C27.735,58.317 27.55,58.767 27.35,59.201 C26.617,60.934 25.547,62.419 24.151,63.649 C23.449,64.249 22.819,64.684 22.252,64.948 L22.35,64.249 L22.399,64.249 C22.432,63.718 22.466,62.937 22.501,61.901 C22.565,60.568 22.466,59.133 22.199,57.599 C21.935,55.998 21.582,54.767 21.149,53.898 L21.002,53.534 L21.002,53.649 C20.855,53.127 20.64,52.702 20.347,52.374 L20.45,52.576 C20.665,52.912 20.826,53.239 20.924,53.552 L20.949,53.601 L20.949,53.649 L20.347,55.499 C19.65,57.502 18.482,59.098 16.851,60.299 C15.347,61.432 13.785,62.131 12.15,62.399 L11.549,62.399 C11.417,62.399 11.3,62.419 11.202,62.448 C10.89,62.428 10.606,62.384 10.347,62.326 C10.05,62.272 9.776,62.189 9.527,62.077 C9.625,62.141 9.722,62.199 9.825,62.248 C9.337,62.082 8.931,61.813 8.6,61.452 C8.565,61.418 8.536,61.383 8.502,61.349 L8.449,61.301 C8.487,61.334 8.516,61.349 8.551,61.349 C8.614,61.383 8.677,61.418 8.751,61.452 L8.702,61.398 L8.649,61.349 C8.682,61.383 8.716,61.398 8.751,61.398 L8.8,61.452 C8.839,61.462 8.877,61.482 8.926,61.501 L8.951,61.501 L8.975,61.526 C9.561,61.706 10.327,61.691 11.275,61.477 C10.109,61.711 9.215,61.652 8.6,61.301 C8.565,61.232 8.516,61.149 8.449,61.052 L8.047,60.451 L8.449,60.602 C8.785,60.701 9.166,60.714 9.6,60.651 C9.732,60.651 9.899,60.632 10.099,60.602 C10.601,60.432 11.134,60.119 11.7,59.651 C11.832,59.548 11.969,59.451 12.1,59.352 C12.599,58.849 12.999,58.298 13.301,57.702 C13.4,57.433 13.502,57.151 13.6,56.852 C13.765,56.218 13.819,55.417 13.751,54.451 C13.716,54.152 13.667,53.849 13.6,53.552 C13.605,52.811 13.621,53.194 13.544,52.404 L13.551,52.551 L13.551,53.151 C13.551,53.214 13.531,53.268 13.502,53.298 C13.434,53.434 13.365,53.532 13.301,53.601 C13.234,53.732 13.165,53.849 13.101,53.952 C13.067,54.016 13.034,54.069 12.999,54.098 C12.701,54.464 12.35,54.816 11.949,55.148 C11.749,55.251 11.549,55.368 11.349,55.499 L9.6,56.398 C9.497,56.432 9.4,56.482 9.297,56.549 C8.731,56.716 8.199,56.833 7.701,56.901 C6.769,57.033 5.816,57.033 4.85,56.901 C4.717,56.867 4.581,56.818 4.449,56.749 C3.419,56.584 2.632,56.198 2.1,55.602 C1.997,55.466 1.915,55.334 1.851,55.202 L1.549,54.602 L1.5,54.548 L1.749,54.748 C1.846,54.831 1.964,54.904 2.1,54.977 L2.287,54.95 L2.476,54.923 C2.384,54.879 2.291,54.841 2.199,54.802 L2.599,54.748 C3.815,54.479 4.732,54.211 5.347,53.952 C5.967,53.688 6.549,53.161 7.1,52.374 C7.652,51.584 7.994,50.949 8.126,50.476 C8.252,50.007 8.365,49.582 8.449,49.201 C8.59,48.449 8.672,47.673 8.702,46.877 C8.644,46.598 8.629,46.311 8.649,45.998 C8.752,45.41 8.638,45.583 8.776,45.388 L8.8,44.948 L8.849,44.948 L8.849,44.001 L8.855,44.001 L9.097,7.848 C9.097,7.584 9.215,7.248 9.449,6.852 C9.699,6.418 9.947,6.124 10.201,5.973 L10.441,5.702 L10.747,5.402 C10.836,5.319 10.929,5.236 11.026,5.148 C11.812,4.484 12.789,3.869 13.951,3.298 C14.844,2.786 15.769,2.342 16.7,1.907 L16.864,1.798 C18.776,1.742 17.543,1.771 20.564,1.75 z M13.172,60.922 L11.9,61.398 L12.492,61.18 C13.15,60.935 12.934,61.046 13.172,60.922 z M15.598,59.311 L14.827,59.927 L13.305,60.853 C13.828,60.574 14.322,60.239 14.827,59.928 L14.827,59.927 L14.832,59.925 C15.073,59.704 15.367,59.542 15.598,59.311 z M15.389,59.586 L15.037,59.8 C15.154,59.729 15.271,59.657 15.388,59.586 C15.389,59.586 15.389,59.586 15.389,59.586 z M16.251,58.752 L15.421,59.558 C15.721,59.314 15.977,59.023 16.251,58.752 z M15.531,59.431 L15.41,59.532 C15.489,59.476 15.448,59.509 15.531,59.431 z M16.5,58.298 L15.627,59.282 C15.937,58.973 16.212,58.628 16.5,58.298 z M11.985,52.859 L11.985,52.859 C10.743,54.303 11.359,53.762 10.25,54.602 C8.985,55.402 7.501,55.749 5.801,55.651 L4.151,55.402 C4.537,55.417 4.927,55.383 5.324,55.299 L5.099,55.299 C4.869,55.299 4.635,55.319 4.4,55.348 C3.859,55.446 3.346,55.446 2.877,55.348 C2.916,55.368 2.955,55.383 2.999,55.402 C3.165,55.402 3.385,55.437 3.649,55.499 C3.917,55.534 4.215,55.583 4.551,55.651 C4.684,55.651 4.835,55.666 5.001,55.701 L5.299,55.701 C5.734,55.768 6.167,55.798 6.597,55.798 C7.832,55.734 8.931,55.417 9.899,54.851 C10.235,54.684 10.547,54.484 10.85,54.249 C11.802,53.227 11.453,53.713 11.985,52.859 z M12.775,51.076 L12.775,51.076 C12.667,51.408 12.545,51.749 12.399,52.102 L12.035,52.778 L12.301,52.351 C12.399,52.116 12.501,51.882 12.599,51.652 C12.667,51.452 12.725,51.262 12.775,51.076 z M13.502,51.982 L13.502,51.999 L13.511,52.067 L13.502,51.982 z M46.905,50.327 C47.255,50.566 47.603,50.791 48.002,50.932 L46.905,50.327 z M53.047,50.299 L53.047,50.299 C52.881,50.432 52.716,50.548 52.55,50.651 C52.716,50.548 52.881,50.437 53.047,50.299 z M9.274,50.251 C9.269,50.284 9.259,50.314 9.249,50.348 L9.274,50.324 L9.274,50.251 z M13.054,49.544 L13.047,50.002 L13.099,50.037 L13.15,50.051 L13.15,50.099 L13.214,50.334 L13.054,49.544 z M9.46,46.749 L9.449,46.749 L9.449,47.102 C9.459,46.754 9.454,46.871 9.46,46.749 z M9.428,46.638 L9.425,46.652 L9.427,46.659 L9.428,46.638 z M10.888,6.927 C10.616,7.008 10.44,7.252 10.25,7.448 C10.176,7.576 10.109,7.746 10.05,7.951 C9.752,8.977 9.6,10.973 9.6,13.952 C9.6,14.451 9.635,16.852 9.699,21.149 C9.732,22.883 9.669,29.851 9.497,42.048 C9.497,42.687 9.494,43.337 9.474,44.001 L9.499,44.001 C9.519,43.337 9.522,42.687 9.522,42.048 C9.694,29.851 9.757,22.883 9.724,21.149 C9.66,16.852 9.625,14.451 9.625,13.952 C9.625,10.973 9.777,8.977 10.075,7.951 C10.134,7.746 10.201,7.576 10.275,7.448 C10.673,7.1 10.468,7.274 10.888,6.927 z M12.302,6.48 L12.01,6.53 L11.529,6.711 C11.948,6.596 11.689,6.67 12.302,6.48 z M20.075,6.149 L20.05,6.149 C20.084,6.218 19.966,6.281 19.699,6.349 C19.6,6.349 19.351,6.398 18.951,6.501 L18.604,6.563 C18.744,6.568 18.618,6.565 18.976,6.501 C19.376,6.398 19.625,6.349 19.724,6.349 C19.991,6.281 20.109,6.218 20.075,6.149 z M13.047,6.349 L12.352,6.471 L13.053,6.353 L13.047,6.349 z M15.718,6.159 C15.149,6.167 15.522,6.159 14.6,6.198 C14.497,6.198 14.415,6.218 14.351,6.252 L13.816,6.437 C14.027,6.451 13.83,6.441 14.376,6.252 C14.44,6.218 14.522,6.198 14.625,6.198 C15.38,6.165 15.016,6.178 15.718,6.159 z M29.709,6.335 C30.823,6.373 30.191,6.35 31.607,6.411 C30.019,6.339 30.651,6.357 29.709,6.335 z M16.402,6.149 L16.193,6.152 L16.403,6.15 L16.402,6.149 z M14.143,5.693 L14.143,5.693 L14.221,5.716 C14.196,5.69 14.216,5.708 14.143,5.693 z" clip-path="url(#Clip_1)" filter="url(#Shadow_2)" fill="rgba(0,0,0,0.5)"/>
      <path d="M10.441,5.702 L10.747,5.402 C10.836,5.319 10.929,5.236 11.026,5.148 C11.812,4.484 12.789,3.869 13.951,3.298 C14.844,2.786 15.769,2.342 16.7,1.907 L16.864,1.798 C18.776,1.742 17.543,1.771 20.564,1.75 C24.048,1.763 27.532,1.856 31.015,1.951 C37.977,2.116 42.68,2.316 45.111,2.551 C45.277,2.584 45.444,2.682 45.614,2.848 C46.547,3.982 45.731,5.002 43.162,5.901 C40.537,6.659 41.839,6.349 39.258,6.844 L39.294,6.873 C42.027,6.349 40.675,6.673 43.35,5.901 C45.919,5.002 46.735,3.982 45.801,2.848 L45.638,2.72 L45.299,2.551 C45.584,2.664 45.478,2.594 45.638,2.72 C46.044,2.922 45.763,2.753 46.3,3.449 C46.569,3.952 46.7,4.352 46.7,4.651 C46.7,4.982 46.769,9.499 46.9,18.201 L46.9,32.451 C46.9,37.132 46.843,40.312 46.843,41.831 C46.843,42.982 46.749,42.331 46.597,44.001 C46.564,44.372 46.525,44.723 46.475,45.051 C46.431,45.392 46.382,45.709 46.324,45.998 C46.319,46.052 46.31,46.101 46.3,46.149 L46.487,46.749 C46.913,47.749 46.771,47.378 46.949,47.848 C47.881,49.152 49.117,49.866 50.65,50.002 C51.382,50.031 51.935,50.031 52.301,50.002 C52.632,49.933 52.881,49.866 53.047,49.802 C53.316,49.664 53.563,49.497 53.8,49.298 C54.097,49.049 54.222,49.018 54.361,48.882 C54.688,48.562 54.969,48.468 55.299,48.401 L55.176,49.074 C55.05,49.656 54.869,50.314 54.625,51.052 C54.566,51.227 54.474,51.393 54.351,51.549 C54.215,51.784 54.069,51.984 53.902,52.151 C53.869,52.218 53.8,52.267 53.702,52.302 C52.931,53.034 51.784,53.483 50.25,53.649 C49.917,53.683 49.581,53.683 49.249,53.649 C48.985,53.649 48.731,53.634 48.502,53.601 C47.706,53.495 48.064,53.586 47.42,53.362 C47.826,54.833 47.883,56.303 47.95,57.799 C47.95,59.767 47.584,61.198 46.851,62.102 C46.319,62.766 45.65,63.102 44.85,63.102 C45.084,62.868 45.299,62.468 45.499,61.901 C45.699,61.334 45.792,60.857 45.777,60.476 C45.66,59.113 45.152,58.117 44.249,57.477 C43.35,56.828 42.266,56.272 41.002,55.798 C40.292,55.408 40.6,55.674 40.099,54.975 L40.099,56.301 C40.132,57.868 40.181,59.034 40.25,59.802 C40.319,60.701 40.499,61.549 40.801,62.351 C41.065,63.117 41.451,63.816 41.949,64.451 C42.417,65.084 42.847,65.402 43.247,65.402 C43.185,65.466 43.116,65.499 43.047,65.499 L42.999,65.548 L43.025,65.612 L43.101,65.701 C43.165,65.734 42.931,65.783 42.399,65.852 C41.833,65.881 41.251,65.798 40.65,65.602 C40.015,65.368 39.635,65.182 39.498,65.051 C38.869,64.684 38.316,64.284 37.847,63.849 C37.716,63.752 37.584,63.634 37.452,63.498 C37.051,63.132 36.7,62.784 36.403,62.448 C35.198,60.722 35.576,61.433 35.079,60.428 C35.157,61.668 35.175,62.91 35.201,64.152 C34.669,63.952 33.282,62.717 31.051,60.451 C29.792,59.147 28.921,57.552 28.551,55.782 L28.551,55.798 L28.538,55.717 L28.502,55.548 L28.502,55.602 C28.331,56.301 28.131,57.048 27.901,57.848 C27.735,58.317 27.55,58.767 27.35,59.201 C26.617,60.934 25.547,62.419 24.151,63.649 C23.449,64.249 22.819,64.684 22.252,64.948 L22.35,64.249 L22.399,64.249 C22.432,63.718 22.466,62.937 22.501,61.901 C22.565,60.568 22.466,59.133 22.199,57.599 C21.935,55.998 21.582,54.767 21.149,53.898 L21.002,53.534 L21.002,53.649 C20.855,53.127 20.64,52.702 20.347,52.374 L20.45,52.576 C20.665,52.912 20.826,53.239 20.924,53.552 L20.949,53.601 L20.949,53.649 L20.347,55.499 C19.65,57.502 18.482,59.098 16.851,60.299 C15.347,61.432 13.785,62.131 12.15,62.399 L11.549,62.399 C11.417,62.399 11.3,62.419 11.202,62.448 C10.89,62.428 10.606,62.384 10.347,62.326 C10.05,62.272 9.776,62.189 9.527,62.077 C9.625,62.141 9.722,62.199 9.825,62.248 C9.337,62.082 8.931,61.813 8.6,61.452 C8.565,61.418 8.536,61.383 8.502,61.349 L8.449,61.301 C8.487,61.334 8.516,61.349 8.551,61.349 C8.614,61.383 8.677,61.418 8.751,61.452 L8.702,61.398 L8.649,61.349 C8.682,61.383 8.716,61.398 8.751,61.398 L8.8,61.452 C8.839,61.462 8.877,61.482 8.926,61.501 L8.951,61.501 L8.975,61.526 C9.561,61.706 10.327,61.691 11.275,61.477 C10.109,61.711 9.215,61.652 8.6,61.301 C8.565,61.232 8.516,61.149 8.449,61.052 L8.047,60.451 L8.449,60.602 C8.785,60.701 9.166,60.714 9.6,60.651 C9.732,60.651 9.899,60.632 10.099,60.602 C10.601,60.432 11.134,60.119 11.7,59.651 C11.832,59.548 11.969,59.451 12.1,59.352 C12.599,58.849 12.999,58.298 13.301,57.702 C13.4,57.433 13.502,57.151 13.6,56.852 C13.765,56.218 13.819,55.417 13.751,54.451 C13.716,54.152 13.667,53.849 13.6,53.552 C13.605,52.811 13.621,53.194 13.544,52.404 L13.551,52.551 L13.551,53.151 C13.551,53.214 13.531,53.268 13.502,53.298 C13.434,53.434 13.365,53.532 13.301,53.601 C13.234,53.732 13.165,53.849 13.101,53.952 C13.067,54.016 13.034,54.069 12.999,54.098 C12.701,54.464 12.35,54.816 11.949,55.148 C11.749,55.251 11.549,55.368 11.349,55.499 L9.6,56.398 C9.497,56.432 9.4,56.482 9.297,56.549 C8.731,56.716 8.199,56.833 7.701,56.901 C6.769,57.033 5.816,57.033 4.85,56.901 C4.717,56.867 4.581,56.818 4.449,56.749 C3.419,56.584 2.632,56.198 2.1,55.602 C1.997,55.466 1.915,55.334 1.851,55.202 L1.549,54.602 L1.5,54.548 L1.749,54.748 C1.846,54.831 1.964,54.904 2.1,54.977 L2.287,54.95 L2.476,54.923 C2.384,54.879 2.291,54.841 2.199,54.802 L2.599,54.748 C3.815,54.479 4.732,54.211 5.347,53.952 C5.967,53.688 6.549,53.161 7.1,52.374 C7.652,51.584 7.994,50.949 8.126,50.476 C8.252,50.007 8.365,49.582 8.449,49.201 C8.59,48.449 8.672,47.673 8.702,46.877 C8.644,46.598 8.629,46.311 8.649,45.998 C8.752,45.41 8.638,45.583 8.776,45.388 L8.8,44.948 L8.849,44.948 L8.849,44.001 L8.855,44.001 L9.097,7.848 C9.097,7.584 9.215,7.248 9.449,6.852 C9.699,6.418 9.947,6.124 10.201,5.973 L10.441,5.702 z M13.172,60.922 L11.9,61.398 L12.492,61.18 C13.15,60.935 12.934,61.046 13.172,60.922 z M15.598,59.311 L14.827,59.927 L13.305,60.853 C13.828,60.574 14.322,60.239 14.827,59.928 L14.827,59.927 L14.832,59.925 C15.073,59.704 15.367,59.542 15.598,59.311 z M15.389,59.586 L15.037,59.8 C15.154,59.729 15.271,59.657 15.388,59.586 C15.389,59.586 15.389,59.586 15.389,59.586 z M16.251,58.752 L15.421,59.558 C15.721,59.314 15.977,59.023 16.251,58.752 z M15.531,59.431 L15.41,59.532 C15.489,59.476 15.448,59.509 15.531,59.431 z M16.5,58.298 L15.627,59.282 C15.937,58.973 16.212,58.628 16.5,58.298 z M11.985,52.859 C10.743,54.303 11.359,53.762 10.25,54.602 C8.985,55.402 7.501,55.749 5.801,55.651 L4.151,55.402 C4.537,55.417 4.927,55.383 5.324,55.299 L5.099,55.299 C4.869,55.299 4.635,55.319 4.4,55.348 C3.859,55.446 3.346,55.446 2.877,55.348 C2.916,55.368 2.955,55.383 2.999,55.402 C3.165,55.402 3.385,55.437 3.649,55.499 C3.917,55.534 4.215,55.583 4.551,55.651 C4.684,55.651 4.835,55.666 5.001,55.701 L5.299,55.701 C5.734,55.768 6.167,55.798 6.597,55.798 C7.832,55.734 8.931,55.417 9.899,54.851 C10.235,54.684 10.547,54.484 10.85,54.249 C11.802,53.227 11.453,53.713 11.985,52.859 z M12.775,51.076 C12.667,51.408 12.545,51.749 12.399,52.102 L12.035,52.778 L12.301,52.351 C12.399,52.116 12.501,51.882 12.599,51.652 C12.667,51.452 12.725,51.262 12.775,51.076 z M13.502,51.982 L13.502,51.999 L13.511,52.067 L13.502,51.982 z M46.906,50.327 C47.255,50.566 47.603,50.791 48.002,50.932 L46.906,50.327 z M53.047,50.299 C52.881,50.432 52.716,50.548 52.55,50.651 C52.716,50.548 52.881,50.437 53.047,50.299 z M9.274,50.251 C9.269,50.284 9.259,50.314 9.249,50.348 L9.274,50.324 L9.274,50.251 z M13.054,49.544 L13.047,50.002 L13.099,50.037 L13.15,50.051 L13.15,50.099 L13.214,50.334 L13.054,49.544 z M9.46,46.749 L9.449,46.749 L9.449,47.102 C9.459,46.754 9.454,46.871 9.46,46.749 z M9.428,46.638 L9.425,46.652 L9.427,46.659 L9.428,46.638 z M10.888,6.927 C10.616,7.008 10.44,7.252 10.25,7.448 C10.176,7.576 10.109,7.746 10.05,7.951 C9.752,8.977 9.6,10.973 9.6,13.952 C9.6,14.451 9.635,16.852 9.699,21.149 C9.732,22.883 9.669,29.851 9.497,42.048 C9.497,42.687 9.494,43.337 9.474,44.001 L9.499,44.001 C9.519,43.337 9.522,42.687 9.522,42.048 C9.694,29.851 9.757,22.883 9.724,21.149 C9.66,16.852 9.625,14.451 9.625,13.952 C9.625,10.973 9.777,8.977 10.075,7.951 C10.134,7.746 10.201,7.576 10.275,7.448 C10.673,7.1 10.468,7.274 10.888,6.927 z M12.302,6.48 L12.011,6.53 L11.529,6.711 C11.948,6.596 11.689,6.67 12.302,6.48 z M20.075,6.149 L20.05,6.149 C20.084,6.218 19.966,6.281 19.699,6.349 C19.6,6.349 19.351,6.398 18.951,6.501 L18.604,6.563 C18.744,6.568 18.618,6.565 18.976,6.501 C19.376,6.398 19.625,6.349 19.724,6.349 C19.991,6.281 20.109,6.218 20.075,6.149 z M13.047,6.349 L12.353,6.471 L13.053,6.353 L13.047,6.349 z M15.718,6.159 C15.149,6.167 15.522,6.159 14.6,6.198 C14.497,6.198 14.415,6.218 14.351,6.252 L13.816,6.437 C14.027,6.451 13.83,6.441 14.376,6.252 C14.44,6.218 14.522,6.198 14.625,6.198 C15.38,6.165 15.016,6.178 15.718,6.159 z M29.709,6.335 C30.823,6.373 30.191,6.35 31.607,6.411 C30.019,6.339 30.651,6.357 29.709,6.335 z M16.402,6.149 L16.193,6.152 L16.403,6.15 L16.402,6.149 z M14.143,5.693 L14.221,5.716 C14.196,5.69 14.216,5.708 14.143,5.693 z" fill="#C1C845"/>
    </g>
    <path d="M10.747,5.402 C10.567,5.583 10.401,5.768 10.25,5.949 L10.201,5.973 C10.337,5.803 10.524,5.612 10.747,5.402 z" fill="#6AC480" id="path14"/>
    <path d="M34.801,6.349 C36.5,6.452 37.833,6.549 38.8,6.652 C38.903,6.652 39,6.687 39.097,6.749 C37.569,6.618 36.134,6.482 34.801,6.349 z" fill="url(#Gradient_1)" id="path32"/>
    <path d="M13.047,6.349 C12.847,6.281 12.784,6.169 12.847,5.998 C12.881,5.832 13.047,5.714 13.35,5.651 C13.882,5.548 14.215,5.617 14.351,5.852 C14.415,5.949 14.415,6.066 14.351,6.198 L14.351,6.252 C14.015,6.452 13.634,6.501 13.199,6.398 C13.131,6.398 13.082,6.383 13.047,6.349 z M20.05,6.149 C20.084,6.218 19.966,6.281 19.699,6.349 C19.6,6.349 19.351,6.398 18.951,6.501 C18.751,6.569 18.482,6.584 18.15,6.549 C17.315,6.482 16.735,6.349 16.402,6.149 C16.3,6.086 16.216,6.017 16.149,5.949 C15.982,5.749 16.534,5.617 17.799,5.548 C18.667,5.514 19.317,5.632 19.752,5.901 C19.952,5.998 20.05,6.081 20.05,6.149 z" fill="#E1F8F8" id="path34"/>
    <path d="M17.051,1.798 L16.451,2.199 C16.051,2.531 14.65,3.381 12.252,4.748 L11.5,5.348 L21.851,5.602 C24.684,5.602 29,5.852 34.801,6.349 C36.134,6.482 37.569,6.618 39.097,6.749 C30.265,6.316 24.381,6.116 21.451,6.149 L20.05,6.149 C20.05,6.086 19.952,5.998 19.752,5.901 C19.317,5.632 18.667,5.519 17.799,5.548 C16.534,5.617 15.982,5.749 16.149,5.949 C16.216,6.017 16.3,6.081 16.402,6.149 C15.699,6.149 15.099,6.169 14.6,6.198 C14.497,6.198 14.415,6.218 14.351,6.252 L14.351,6.198 C14.415,6.066 14.415,5.949 14.351,5.852 C14.215,5.617 13.882,5.548 13.35,5.651 C13.047,5.714 12.881,5.832 12.847,5.998 C12.784,6.169 12.847,6.281 13.047,6.349 C11.515,6.549 10.582,6.916 10.25,7.448 C10.176,7.576 10.109,7.746 10.05,7.951 C9.752,8.977 9.6,10.973 9.6,13.952 C9.6,14.451 9.635,16.852 9.699,21.149 C9.732,22.883 9.669,29.851 9.497,42.048 C9.497,42.687 9.494,43.337 9.474,44.001 C9.469,44.347 9.464,44.699 9.449,45.051 C9.444,45.363 9.435,45.681 9.425,45.998 C9.415,46.247 9.405,46.501 9.4,46.749 L8.702,46.749 L8.8,44.948 L8.849,44.948 L9.097,7.848 C9.097,7.584 9.215,7.248 9.449,6.852 C9.699,6.418 9.947,6.124 10.201,5.973 L10.25,5.949 C10.401,5.768 10.567,5.583 10.747,5.402 C10.836,5.319 10.929,5.236 11.026,5.148 C11.812,4.484 12.789,3.869 13.951,3.298 C15.719,2.331 16.749,1.833 17.051,1.798 z" fill="#F6FF98" id="path36"/>
    <path d="M34.614,6.349 C28.812,5.852 24.496,5.602 21.664,5.602 L11.312,5.348 L12.065,4.748 C14.462,3.381 15.864,2.531 16.264,2.199 L16.864,1.798 C19.296,1.701 24.012,1.749 31.015,1.951 C37.977,2.116 42.68,2.316 45.111,2.551 C45.277,2.584 45.444,2.682 45.614,2.848 C46.547,3.982 45.731,5.002 43.162,5.901 C41.845,6.349 40.487,6.672 39.086,6.877 C39.027,6.823 38.974,6.784 38.91,6.749 C38.812,6.687 38.715,6.652 38.612,6.652 C37.645,6.549 36.312,6.452 34.614,6.349 z" fill="#BFC46A" id="path38"/>
    <path d="M20.075,6.149 L21.476,6.149 C24.411,6.116 30.29,6.316 39.122,6.749 C39.186,6.784 39.24,6.823 39.299,6.877 C39.469,7.018 39.625,7.228 39.778,7.502 C40.04,7.999 40.177,8.401 40.177,8.698 C40.177,9.034 40.241,13.552 40.372,22.248 L40.372,44.001 C40.362,44.367 40.353,44.718 40.349,45.051 C40.353,45.383 40.353,45.701 40.349,45.998 L40.349,46.749 L9.425,46.749 C9.43,46.501 9.44,46.247 9.45,45.998 C9.46,45.681 9.469,45.363 9.474,45.051 C9.489,44.694 9.494,44.347 9.499,44.001 C9.519,43.337 9.522,42.687 9.522,42.048 C9.694,29.851 9.757,22.883 9.724,21.149 C9.66,16.852 9.625,14.451 9.625,13.952 C9.625,10.973 9.777,8.977 10.075,7.951 C10.134,7.746 10.201,7.576 10.275,7.448 C10.607,6.916 11.54,6.549 13.072,6.349 C13.107,6.383 13.156,6.398 13.224,6.398 C13.659,6.501 14.04,6.452 14.376,6.252 C14.44,6.218 14.522,6.198 14.625,6.198 C15.124,6.169 15.724,6.149 16.427,6.149 C16.76,6.349 17.34,6.482 18.175,6.549 C18.507,6.584 18.776,6.569 18.976,6.501 C19.376,6.398 19.625,6.349 19.724,6.349 C19.991,6.281 20.109,6.218 20.075,6.149 z" fill="url(#Gradient_2)" id="path56"/>
    <path d="M39.274,6.877 C40.675,6.672 42.033,6.349 43.35,5.901 C45.919,5.002 46.735,3.982 45.801,2.848 C45.631,2.682 45.465,2.584 45.299,2.551 C45.631,2.584 45.967,2.883 46.3,3.449 C46.569,3.952 46.7,4.352 46.7,4.651 C46.7,4.982 46.769,9.499 46.9,18.201 L46.9,36.999 C46.9,39.869 46.798,42.204 46.597,44.001 C46.564,44.372 46.525,44.723 46.475,45.051 C46.431,45.392 46.382,45.709 46.324,45.998 C46.319,46.052 46.31,46.101 46.3,46.149 L40.324,46.749 L40.324,45.998 C40.327,45.701 40.327,45.383 40.324,45.051 C40.327,44.718 40.337,44.367 40.347,44.001 L40.347,22.248 C40.216,13.552 40.153,9.034 40.153,8.698 C40.153,8.401 40.015,7.999 39.752,7.502 C39.6,7.228 39.444,7.018 39.274,6.877 z" fill="url(#Gradient_3)" id="path74"/>
    <g clip-path="url(#Clip_3)" id="g78">
      <path d="M49.176,41.697 C50.805,41.431 51.739,40.763 51.977,39.697 C52.215,38.709 51.895,37.564 51.016,36.255 C48.938,33.216 46.016,31.365 42.258,30.697 C38.684,30.084 36.055,30.189 34.375,31.017 C32.778,31.818 31.922,33.298 31.817,35.455 C31.739,37.431 31.872,38.908 32.215,39.896 C32.485,40.697 32.961,41.298 33.657,41.697 C34.215,42.017 36.789,42.138 41.375,42.056 C45.563,41.978 48.165,41.857 49.176,41.697 z" fill="url(#Gradient_4)" id="path114"/>
    </g>
    <path d="M46.051,45.998 C46.085,47.102 46.417,48.982 47.051,51.652 C47.653,54.216 47.95,56.267 47.95,57.799 C47.95,59.767 47.584,61.198 46.851,62.102 C46.319,62.766 45.65,63.102 44.85,63.102 C45.084,62.868 45.299,62.468 45.499,61.901 C45.699,61.334 45.792,60.857 45.778,60.476 C45.66,59.113 45.153,58.117 44.249,57.477 C43.35,56.828 42.266,56.272 41.002,55.798 C39.532,55.299 38.8,52.732 38.8,48.102 L38.849,45.998 L46.051,45.998 z" fill="url(#Gradient_5)" id="path132"/>
    <path d="M42.999,65.548 C42.999,65.583 43.034,65.632 43.101,65.701 C43.165,65.734 42.931,65.783 42.399,65.852 C41.833,65.881 41.251,65.798 40.65,65.602 C40.015,65.368 39.635,65.182 39.498,65.051 C38.869,64.684 38.316,64.284 37.847,63.849 C37.716,63.752 37.584,63.634 37.452,63.498 C37.051,63.132 36.7,62.784 36.403,62.448 C35.568,61.418 34.917,60.319 34.449,59.152 C34.415,59.049 34.386,58.952 34.351,58.849 L33.903,57.751 L34.049,53.102 L34.097,53.201 L34.097,53.401 L34.801,55.499 C35.132,56.798 35.465,57.819 35.801,58.552 C36.1,59.249 36.451,59.948 36.851,60.651 C37.286,61.316 37.847,61.999 38.551,62.702 C39.284,63.366 39.815,63.869 40.153,64.201 C40.519,64.533 40.801,64.748 41.002,64.851 C41.167,64.919 41.349,65.017 41.549,65.148 C42.018,65.348 42.481,65.486 42.95,65.548 L42.999,65.548 z" fill="#6E7338" id="path134"/>
    <path d="M42.999,65.548 L42.95,65.548 C42.481,65.486 42.017,65.348 41.549,65.148 C41.349,65.017 41.167,64.919 41.002,64.851 C40.801,64.748 40.519,64.533 40.152,64.201 C39.815,63.869 39.284,63.366 38.551,62.702 C37.847,61.999 37.281,61.316 36.851,60.651 C36.451,59.948 36.1,59.249 35.801,58.552 C35.465,57.819 35.132,56.798 34.801,55.499 L34.097,53.401 L34.097,53.201 C34.034,51.169 33.951,48.767 33.849,45.998 L40.152,46.052 C39.981,46.652 39.932,47.614 40.001,48.952 C40.035,50.451 40.065,51.964 40.099,53.498 L40.099,56.301 C40.132,57.868 40.181,59.034 40.25,59.802 C40.319,60.701 40.499,61.549 40.801,62.351 C41.065,63.117 41.451,63.816 41.949,64.451 C42.417,65.084 42.847,65.402 43.247,65.402 C43.185,65.466 43.116,65.499 43.047,65.499 L42.999,65.548 z" fill="url(#Gradient_6)" id="path152"/>
    <path d="M34.85,57.151 C34.815,58.083 34.884,59.016 35.05,59.948 C35.119,60.881 35.167,62.282 35.201,64.152 C34.669,63.952 33.282,62.717 31.051,60.451 C29.517,58.781 28.667,57.151 28.502,55.548 C27.501,50.651 26.797,47.468 26.402,45.998 L34.699,45.998 C34.566,54.167 34.615,57.883 34.85,57.151 z" fill="url(#Gradient_7)" id="path170"/>
    <path d="M22.399,64.249 C24.464,62.248 25.801,60.084 26.402,57.751 C26.832,56.116 27.169,54.582 27.399,53.151 L27.599,51.549 L28.502,55.548 L28.502,55.602 C28.331,56.301 28.131,57.048 27.901,57.848 C27.735,58.317 27.55,58.767 27.35,59.201 C26.617,60.934 25.547,62.419 24.151,63.649 C23.449,64.249 22.819,64.684 22.252,64.948 L22.35,64.249 L22.399,64.249 z" fill="#6E7338" id="path172"/>
    <path d="M28.502,55.548 L27.599,51.549 L27.399,53.151 C27.169,54.582 26.832,56.116 26.402,57.751 C25.801,60.084 24.464,62.248 22.399,64.249 C22.432,63.718 22.466,62.937 22.501,61.901 C22.565,60.568 22.466,59.133 22.199,57.599 C21.935,55.998 21.582,54.767 21.149,53.898 L20.949,53.401 C20.772,52.838 20.04,50.373 18.751,45.998 L28.551,45.998 L28.551,55.798 C28.531,55.686 28.511,55.568 28.502,55.451 L28.502,55.548 z" fill="url(#Gradient_8)" id="path190"/>
    <path d="M20.949,53.624 C20.944,53.601 20.934,53.576 20.924,53.552 L20.949,53.601 L20.949,53.624 z M8.926,61.501 L8.951,61.501 L8.975,61.526 L8.926,61.501 z" fill="url(#Gradient_9)" id="path208"/>
    <path d="M8.926,61.501 L8.975,61.526 C9.025,61.539 9.082,61.569 9.151,61.598 C9.181,61.598 9.235,61.618 9.297,61.652 C9.932,61.784 10.801,61.701 11.9,61.398 C13.77,60.812 15.221,59.928 16.251,58.752 C15.767,59.274 15.201,59.743 14.551,60.148 C15.319,59.636 15.967,59.021 16.5,58.298 C16.807,57.883 17.081,57.443 17.325,56.974 C17.266,57.116 17.212,57.258 17.15,57.399 C17.452,56.867 17.701,56.301 17.901,55.701 C18.131,55.133 18.301,54.548 18.4,53.952 C18.467,53.581 18.531,53.234 18.6,52.902 C18.634,52.599 18.649,52.302 18.649,51.999 L18.649,51.951 L18.849,51.149 C18.882,51.052 18.903,50.949 18.903,50.852 C19.235,51.218 19.551,51.569 19.85,51.901 L19.952,51.999 C20.119,52.164 20.265,52.331 20.401,52.502 C20.416,52.522 20.431,52.546 20.45,52.576 C20.665,52.912 20.826,53.239 20.924,53.552 C20.934,53.576 20.944,53.601 20.949,53.624 L20.949,53.649 L20.347,55.499 C19.65,57.502 18.483,59.098 16.851,60.299 C15.347,61.432 13.785,62.131 12.15,62.399 L11.549,62.399 C11.417,62.399 11.3,62.419 11.202,62.448 C10.89,62.428 10.606,62.384 10.347,62.326 C10.05,62.272 9.776,62.189 9.527,62.077 C9.625,62.141 9.722,62.199 9.825,62.248 C9.337,62.082 8.931,61.813 8.6,61.452 C8.565,61.418 8.536,61.383 8.502,61.349 L8.449,61.301 C8.487,61.334 8.516,61.349 8.551,61.349 C8.614,61.383 8.677,61.418 8.751,61.452 L8.702,61.398 L8.649,61.349 C8.682,61.383 8.716,61.398 8.751,61.398 L8.8,61.452 C8.839,61.462 8.877,61.482 8.926,61.501 z" fill="#6E7338" id="path210"/>
    <path d="M20.45,52.576 C20.431,52.546 20.416,52.522 20.401,52.502 C20.265,52.331 20.119,52.164 19.952,51.999 L19.85,51.901 C19.551,51.569 19.235,51.218 18.903,50.852 C18.903,50.949 18.882,51.052 18.849,51.149 L18.649,51.951 L18.649,51.999 C18.649,52.302 18.634,52.599 18.6,52.902 C18.536,53.234 18.467,53.586 18.4,53.952 C18.301,54.548 18.131,55.133 17.901,55.701 C17.701,56.301 17.452,56.867 17.15,57.399 C17.212,57.258 17.266,57.116 17.325,56.974 C17.081,57.443 16.807,57.883 16.5,58.298 C15.962,59.021 15.314,59.636 14.551,60.148 C15.201,59.743 15.767,59.274 16.251,58.752 C15.221,59.928 13.77,60.812 11.9,61.398 C10.801,61.701 9.932,61.784 9.297,61.652 C9.235,61.618 9.181,61.598 9.151,61.598 C9.082,61.569 9.025,61.539 8.975,61.526 C9.561,61.706 10.327,61.691 11.275,61.477 C10.109,61.711 9.215,61.652 8.6,61.301 C8.565,61.232 8.516,61.149 8.449,61.052 L8.047,60.451 L8.449,60.602 C8.785,60.701 9.166,60.714 9.6,60.651 C9.732,60.651 9.899,60.632 10.099,60.602 C10.601,60.432 11.134,60.119 11.7,59.651 C11.832,59.548 11.969,59.451 12.1,59.352 C12.599,58.849 12.999,58.298 13.301,57.702 C13.4,57.433 13.502,57.151 13.6,56.852 C13.765,56.218 13.819,55.417 13.751,54.451 C13.716,54.152 13.667,53.849 13.6,53.552 C13.634,52.883 13.551,52.033 13.35,50.998 C13.019,49.401 12.701,47.819 12.399,46.252 C12.867,46.149 13.365,46.066 13.902,45.998 L20.801,45.998 L21.002,47.248 L21.002,53.649 C20.855,53.127 20.64,52.702 20.347,52.374 L20.45,52.576 z" fill="url(#Gradient_10)" id="path228"/>
    <path d="M2.877,55.348 C2.765,55.299 2.672,55.251 2.599,55.202 C2.412,55.128 2.242,55.056 2.1,54.977 C2.222,54.958 2.35,54.943 2.476,54.923 C2.384,54.879 2.291,54.841 2.199,54.802 L2.599,54.748 C3.815,54.479 4.732,54.211 5.347,53.952 C5.967,53.688 6.549,53.161 7.1,52.374 C7.652,51.584 7.994,50.949 8.126,50.476 C8.252,50.007 8.365,49.582 8.449,49.201 C8.59,48.449 8.672,47.673 8.702,46.877 C8.644,46.598 8.629,46.311 8.649,45.998 C8.649,45.568 8.785,45.232 9.049,45.002 C9.082,45.002 9.097,45.017 9.097,45.051 C9.131,45.051 9.166,45.066 9.2,45.099 C9.235,45.099 9.249,45.084 9.249,45.051 C9.317,45.017 9.366,45.017 9.4,45.051 C9.532,45.319 9.581,45.617 9.551,45.949 L9.497,45.949 C9.489,46.106 9.479,46.262 9.474,46.423 C9.459,46.501 9.444,46.574 9.425,46.652 C9.435,46.677 9.444,46.701 9.449,46.726 L9.449,47.502 C9.42,48.102 9.386,48.703 9.351,49.298 C9.327,49.616 9.302,49.933 9.274,50.251 C9.269,50.284 9.259,50.314 9.249,50.348 L9.274,50.324 C9.249,50.632 9.225,50.944 9.2,51.252 C9.097,51.916 8.136,53.166 6.3,55.002 C6.251,55.022 6.202,55.036 6.149,55.051 L5.949,55.124 C5.757,55.197 5.567,55.256 5.377,55.299 L5.099,55.299 C4.869,55.299 4.635,55.319 4.4,55.348 C3.859,55.446 3.346,55.446 2.877,55.348 z" fill="#F6FF98" id="path230"/>
    <path d="M2.877,55.348 C2.916,55.368 2.955,55.383 2.999,55.402 C3.165,55.402 3.385,55.437 3.649,55.499 C3.917,55.534 4.215,55.583 4.551,55.651 C4.684,55.651 4.835,55.666 5.001,55.701 L5.299,55.701 C5.734,55.768 6.167,55.798 6.597,55.798 C7.832,55.734 8.931,55.417 9.899,54.851 C10.235,54.684 10.547,54.484 10.85,54.249 C11.451,53.718 11.935,53.083 12.301,52.351 C12.399,52.116 12.501,51.882 12.599,51.652 C12.667,51.452 12.725,51.262 12.775,51.076 C12.824,50.896 12.867,50.719 12.901,50.548 C12.931,50.486 12.95,50.417 12.95,50.348 C12.985,50.251 13.019,50.133 13.047,50.002 C13.082,50.031 13.116,50.051 13.15,50.051 L13.15,50.099 L13.301,50.651 C13.301,50.714 13.316,50.768 13.35,50.798 C13.419,51.134 13.467,51.432 13.502,51.701 L13.502,51.999 C13.531,52.199 13.551,52.384 13.551,52.551 L13.551,53.151 C13.551,53.214 13.531,53.268 13.502,53.298 C13.434,53.434 13.365,53.532 13.301,53.601 C13.234,53.732 13.165,53.849 13.101,53.952 C13.067,54.016 13.034,54.069 12.999,54.098 C12.701,54.464 12.35,54.816 11.949,55.148 C11.749,55.251 11.549,55.368 11.349,55.499 L9.6,56.398 C9.497,56.432 9.4,56.482 9.297,56.549 C8.731,56.716 8.199,56.833 7.701,56.901 C6.769,57.033 5.816,57.033 4.85,56.901 C4.717,56.867 4.581,56.818 4.449,56.749 C3.419,56.584 2.632,56.198 2.1,55.602 C1.997,55.466 1.915,55.334 1.851,55.202 L1.549,54.602 L1.5,54.548 L1.749,54.748 C1.846,54.831 1.964,54.904 2.1,54.977 C2.242,55.056 2.412,55.128 2.599,55.202 C2.672,55.251 2.765,55.299 2.877,55.348 z" fill="#6E7338" id="path232"/>
    <path d="M12.775,51.076 C12.667,51.408 12.545,51.749 12.399,52.102 C11.935,53.132 11.216,53.967 10.25,54.602 C8.985,55.402 7.501,55.749 5.801,55.651 L4.151,55.402 C4.537,55.417 4.927,55.383 5.324,55.299 L5.377,55.299 C5.567,55.256 5.757,55.197 5.949,55.124 L6.149,55.051 C6.202,55.036 6.251,55.022 6.3,55.002 C8.131,53.166 9.097,51.916 9.2,51.252 C9.225,50.944 9.249,50.632 9.274,50.324 L9.274,50.251 C9.302,49.933 9.327,49.616 9.351,49.298 C9.386,48.703 9.42,48.102 9.449,47.502 L9.449,47.102 C9.454,46.867 9.464,46.642 9.474,46.423 C9.484,46.262 9.489,46.106 9.497,45.949 L9.551,45.949 C10.406,45.568 11.587,45.602 13.101,46.052 L13.047,50.002 C13.019,50.133 12.985,50.251 12.95,50.348 C12.95,50.417 12.931,50.486 12.901,50.548 C12.867,50.719 12.824,50.896 12.775,51.076 z" fill="url(#Gradient_11)" id="path250"/>
    <path d="M53.873,49.401 C53.946,49.298 54.02,49.182 54.097,49.049 C54.097,49.049 54.097,49.049 54.097,49.049 C54.672,48.625 54.688,48.515 55.299,48.401 L55.176,49.074 C55.05,49.656 54.869,50.314 54.625,51.052 C54.566,51.227 54.474,51.393 54.351,51.549 C54.215,51.784 54.069,51.984 53.903,52.151 C53.869,52.218 53.8,52.267 53.702,52.302 C52.931,53.034 51.784,53.483 50.25,53.649 C49.917,53.683 49.581,53.683 49.249,53.649 C48.985,53.649 48.731,53.634 48.502,53.601 C47.599,53.532 46.881,53.283 46.349,52.848 C46.119,52.648 45.9,52.448 45.699,52.248 C45.665,52.184 45.636,52.102 45.601,51.999 C45.001,51.101 44.699,49.748 44.699,47.951 C44.669,47.384 44.669,46.736 44.699,45.998 L44.699,45.949 C44.766,45.949 44.85,45.934 44.952,45.901 L44.952,46.101 C44.986,46.257 45.015,46.413 45.05,46.574 L45.299,47.502 C45.553,48.293 45.855,48.996 46.202,49.602 C46.866,50.568 47.833,51.101 49.097,51.198 C49.19,51.208 49.284,51.213 49.376,51.227 C49.415,51.232 49.454,51.237 49.498,51.252 L50.05,51.252 C50.304,51.237 50.537,51.218 50.748,51.198 C51.149,51.169 51.515,51.101 51.851,50.998 C52.096,50.906 52.33,50.788 52.55,50.651 C52.716,50.548 52.881,50.437 53.048,50.299 C53.316,50.099 53.565,49.831 53.8,49.499 C53.819,49.474 53.844,49.441 53.873,49.401 z" fill="#6E7338" id="path254"/>
    <path d="M44.929,45.91 C45.357,45.675 45.724,45.627 46.027,45.759 C46.627,47.125 46.925,47.829 46.925,47.858 C47.857,49.162 49.094,49.875 50.626,50.012 C51.359,50.04 51.911,50.04 52.277,50.012 C52.609,49.943 52.857,49.875 53.024,49.812 C53.292,49.674 53.541,49.509 53.776,49.308 C53.805,49.348 54.079,49.021 54.097,49.049 C54.069,49.089 53.8,49.537 53.781,49.562 C53.546,49.893 53.292,50.109 53.024,50.309 C52.857,50.442 52.692,50.558 52.526,50.66 C52.306,50.798 52.072,50.915 51.827,51.008 C51.491,51.11 51.125,51.179 50.724,51.208 C50.514,51.228 50.28,51.247 50.026,51.262 L49.474,51.262 C49.43,51.247 49.391,51.242 49.352,51.237 C49.26,51.223 49.166,51.218 49.074,51.208 C47.809,51.11 46.842,50.578 46.179,49.612 C45.831,49.005 45.529,48.303 45.275,47.512 L45.026,46.584 C44.991,46.423 44.962,46.267 44.929,46.11 L44.929,45.91 z" fill="url(#Gradient_12)" id="path272"/>
    <path d="M9.425,45.998 L8.751,45.998 L8.8,44.948 L8.849,44.948 L8.849,44.001 L9.474,44.001 C9.469,44.347 9.464,44.699 9.449,45.051 C9.444,45.363 9.435,45.681 9.425,45.998 z" fill="#F6FF98" id="path274"/>
    <path d="M9.474,44.001 L40.347,44.001 C40.337,44.367 40.327,44.718 40.324,45.051 C40.327,45.383 40.327,45.701 40.324,45.998 L9.425,45.998 C9.435,45.681 9.444,45.363 9.449,45.051 C9.464,44.699 9.469,44.347 9.474,44.001 z" fill="url(#Gradient_13)" id="path292"/>
    <path d="M40.324,45.998 C40.327,45.701 40.327,45.383 40.324,45.051 C40.327,44.718 40.337,44.367 40.347,44.001 L46.597,44.001 C46.564,44.372 46.525,44.723 46.475,45.051 C46.431,45.392 46.382,45.709 46.324,45.998 L40.324,45.998 z" fill="url(#Gradient_14)" id="path310"/>
    <path d="M35.347,38.449 C35.084,39.016 35.23,39.518 35.801,39.948 C36.5,40.451 36.969,40.432 37.199,39.899 C37.569,39.431 37.417,38.932 36.749,38.401 C36.149,37.999 35.685,38.014 35.347,38.449 z M33.4,38.151 C33.931,37.619 34.551,37.351 35.25,37.351 C36.016,37.351 36.666,37.619 37.199,38.151 C37.701,38.752 37.95,39.451 37.95,40.251 C37.95,41.052 37.701,41.736 37.199,42.302 C36.666,42.902 36.016,43.201 35.25,43.201 C34.551,43.201 33.931,42.902 33.4,42.302 C32.901,41.736 32.647,41.052 32.647,40.251 C32.647,39.451 32.901,38.752 33.4,38.151 z M36.3,42.199 C35.801,42.302 35.23,42.184 34.6,41.847 C34.034,41.584 33.634,41.232 33.4,40.798 L33.15,40.099 L33.15,40.949 C33.316,41.549 33.667,42.018 34.2,42.351 C35.001,42.848 35.699,42.799 36.3,42.199 z M14.2,38.952 C14.766,39.416 15.201,39.401 15.499,38.898 C15.699,38.332 15.519,37.834 14.952,37.399 C14.351,36.999 13.931,37.048 13.702,37.551 C13.434,38.048 13.6,38.517 14.2,38.952 z M11.9,37.399 C12.399,36.798 12.965,36.467 13.6,36.398 C14.269,36.369 14.85,36.618 15.347,37.151 C15.85,37.717 16.119,38.401 16.149,39.201 C16.216,40.002 16.016,40.701 15.547,41.301 C15.119,41.833 14.566,42.131 13.897,42.199 C13.199,42.233 12.599,41.984 12.1,41.452 C11.597,40.886 11.334,40.202 11.3,39.401 C11.231,38.601 11.431,37.932 11.9,37.399 z M14.752,41.198 C14.284,41.369 13.751,41.301 13.15,40.998 C12.716,40.734 12.35,40.383 12.051,39.948 L11.797,39.249 L11.9,40.099 C11.997,40.734 12.315,41.198 12.847,41.501 C13.619,41.964 14.249,41.867 14.752,41.198 z" fill="#3B3526" id="path312"/>
    <path d="M35.347,38.449 C35.685,38.014 36.149,37.999 36.749,38.401 C37.417,38.932 37.569,39.431 37.199,39.899 C36.969,40.432 36.5,40.451 35.801,39.948 C35.23,39.518 35.084,39.016 35.347,38.449 z M14.2,38.952 C13.6,38.517 13.434,38.048 13.702,37.551 C13.931,37.048 14.351,36.999 14.952,37.399 C15.519,37.834 15.699,38.332 15.499,38.898 C15.201,39.401 14.766,39.416 14.2,38.952 z" fill="#FFFFFF" id="path314"/>
    <path d="M36.3,42.199 C35.699,42.799 35.001,42.848 34.2,42.351 C33.667,42.018 33.316,41.549 33.15,40.949 L33.15,40.099 L33.4,40.798 C33.634,41.232 34.034,41.584 34.6,41.847 C35.23,42.184 35.801,42.302 36.3,42.199 z M14.752,41.198 C14.249,41.867 13.619,41.964 12.847,41.501 C12.315,41.198 11.997,40.734 11.9,40.099 L11.797,39.249 L12.051,39.948 C12.35,40.383 12.716,40.734 13.15,40.998 C13.751,41.301 14.284,41.369 14.752,41.198 z" fill="#5C4F2E" id="path316"/>
    <path d="M54.376,49.274" fill="#387347"/>
    <path d="M54.127,48.898 L54.097,48.898 z" fill="#6AC480"/>
    <path d="M17.051,1.798 L16.451,2.199 C16.051,2.531 14.65,3.381 12.252,4.748 L11.5,5.348 L21.851,5.602 C24.684,5.602 29,5.852 34.801,6.349 C36.134,6.482 37.569,6.618 39.097,6.749 C30.265,6.316 24.381,6.116 21.451,6.149 L20.05,6.149 C20.05,6.086 19.952,5.998 19.752,5.901 C19.317,5.632 18.667,5.519 17.799,5.548 C16.534,5.617 15.982,5.749 16.149,5.949 C16.216,6.017 16.3,6.081 16.402,6.149 C15.699,6.149 15.099,6.169 14.6,6.198 C14.497,6.198 14.415,6.218 14.351,6.252 L14.351,6.198 C14.415,6.066 14.415,5.949 14.351,5.852 C14.215,5.617 13.882,5.548 13.35,5.651 C13.047,5.714 12.881,5.832 12.847,5.998 C12.784,6.169 12.847,6.281 13.047,6.349 C11.515,6.549 10.582,6.916 10.25,7.448 C10.176,7.576 10.109,7.746 10.05,7.951 C9.752,8.977 9.6,10.973 9.6,13.952 C9.6,14.451 9.635,16.852 9.699,21.149 C9.732,22.883 9.669,29.851 9.497,42.048 C9.497,42.687 9.494,43.337 9.474,44.001 C9.469,44.347 9.464,44.699 9.449,45.051 C9.444,45.363 9.435,45.681 9.425,45.998 C9.415,46.247 9.405,46.501 9.4,46.749 L8.702,46.749 L8.8,44.948 L8.849,44.948 L9.097,7.848 C9.097,7.584 9.215,7.248 9.449,6.852 C9.699,6.418 9.947,6.124 10.201,5.973 L10.25,5.949 C10.401,5.768 10.567,5.583 10.747,5.402 C10.836,5.319 10.929,5.236 11.026,5.148 C11.812,4.484 12.789,3.869 13.951,3.298 C15.719,2.331 16.749,1.833 17.051,1.798 z" fill="#F6FF98" id="path36"/>
    <path d="M35.347,38.449 C35.084,39.016 35.23,39.518 35.801,39.948 C36.5,40.451 36.969,40.432 37.199,39.899 C37.569,39.431 37.417,38.932 36.749,38.401 C36.149,37.999 35.685,38.014 35.347,38.449 z M33.4,38.151 C33.931,37.619 34.551,37.351 35.25,37.351 C36.016,37.351 36.666,37.619 37.199,38.151 C37.701,38.752 37.95,39.451 37.95,40.251 C37.95,41.052 37.701,41.736 37.199,42.302 C36.666,42.902 36.016,43.201 35.25,43.201 C34.551,43.201 33.931,42.902 33.4,42.302 C32.901,41.736 32.647,41.052 32.647,40.251 C32.647,39.451 32.901,38.752 33.4,38.151 z M36.3,42.199 C35.801,42.302 35.23,42.184 34.6,41.847 C34.034,41.584 33.634,41.232 33.4,40.798 L33.15,40.099 L33.15,40.949 C33.316,41.549 33.667,42.018 34.2,42.351 C35.001,42.848 35.699,42.799 36.3,42.199 z M14.2,38.952 C14.766,39.416 15.201,39.401 15.499,38.898 C15.699,38.332 15.519,37.834 14.952,37.399 C14.351,36.999 13.931,37.048 13.702,37.551 C13.434,38.048 13.6,38.517 14.2,38.952 z M11.9,37.399 C12.399,36.798 12.965,36.467 13.6,36.398 C14.269,36.369 14.85,36.618 15.347,37.151 C15.85,37.717 16.119,38.401 16.149,39.201 C16.216,40.002 16.016,40.701 15.547,41.301 C15.119,41.833 14.566,42.131 13.897,42.199 C13.199,42.233 12.599,41.984 12.1,41.452 C11.597,40.886 11.334,40.202 11.3,39.401 C11.231,38.601 11.431,37.932 11.9,37.399 z M14.752,41.198 C14.284,41.369 13.751,41.301 13.15,40.998 C12.716,40.734 12.35,40.383 12.051,39.948 L11.797,39.249 L11.9,40.099 C11.997,40.734 12.315,41.198 12.847,41.501 C13.619,41.964 14.249,41.867 14.752,41.198 z" fill="#3B3526" id="path312"/>
    <path d="M35.347,38.449 C35.685,38.014 36.149,37.999 36.749,38.401 C37.417,38.932 37.569,39.431 37.199,39.899 C36.969,40.432 36.5,40.451 35.801,39.948 C35.23,39.518 35.084,39.016 35.347,38.449 z M14.2,38.952 C13.6,38.517 13.434,38.048 13.702,37.551 C13.931,37.048 14.351,36.999 14.952,37.399 C15.519,37.834 15.699,38.332 15.499,38.898 C15.201,39.401 14.766,39.416 14.2,38.952 z" fill="#FFFFFF" id="path314"/>
    <path d="M36.3,42.199 C35.699,42.799 35.001,42.848 34.2,42.351 C33.667,42.018 33.316,41.549 33.15,40.949 L33.15,40.099 L33.4,40.798 C33.634,41.232 34.034,41.584 34.6,41.847 C35.23,42.184 35.801,42.302 36.3,42.199 z M14.752,41.198 C14.249,41.867 13.619,41.964 12.847,41.501 C12.315,41.198 11.997,40.734 11.9,40.099 L11.797,39.249 L12.051,39.948 C12.35,40.383 12.716,40.734 13.15,40.998 C13.751,41.301 14.284,41.369 14.752,41.198 z" fill="#5C4F2E" id="path316"/>
  </g>
</svg>
